<svg width="572" height="349" viewBox="0 0 572 349" fill="none" xmlns="http://www.w3.org/2000/svg">
<path d="M510.116 142.227H545.545V127.255H510.116V142.227Z" stroke="#EBEBEB" stroke-width="0.75" stroke-miterlimit="10"/>
<path d="M529.893 123.348H565.321V108.376H529.893V123.348Z" stroke="#EBEBEB" stroke-width="0.75" stroke-miterlimit="10"/>
<path d="M286.146 201.281H321.575V186.31H286.146V201.281Z" stroke="#EBEBEB" stroke-width="0.75" stroke-miterlimit="10"/>
<path d="M305.907 182.402H341.336V167.431H305.907V182.402Z" stroke="#EBEBEB" stroke-width="0.75" stroke-miterlimit="10"/>
<path d="M325.59 201.281H361.019V186.31H325.59V201.281Z" stroke="#EBEBEB" stroke-width="0.75" stroke-miterlimit="10"/>
<path d="M27.9238 321.363H63.3525V306.392H27.9238V321.363Z" stroke="#EBEBEB" stroke-width="0.75" stroke-miterlimit="10"/>
<path d="M26.7481 161.945H62.1768V146.974H26.7481V161.945Z" stroke="#EBEBEB" stroke-width="0.75" stroke-miterlimit="10"/>
<path d="M6.97169 143.066H42.4004V128.095H6.97169V143.066Z" stroke="#EBEBEB" stroke-width="0.75" stroke-miterlimit="10"/>
<path d="M272.845 18.3584C272.842 18.9888 273.027 19.6057 273.375 20.1311C273.723 20.6566 274.22 21.0668 274.801 21.3098C275.383 21.5529 276.023 21.6179 276.642 21.4965C277.261 21.3752 277.829 21.073 278.276 20.6282C278.723 20.1834 279.027 19.616 279.151 18.9979C279.275 18.3799 279.213 17.739 278.972 17.1563C278.732 16.5737 278.323 16.0756 277.8 15.7251C277.276 15.3746 276.659 15.1875 276.029 15.1875C275.187 15.1875 274.379 15.5211 273.782 16.1154C273.185 16.7097 272.848 17.5162 272.845 18.3584Z" stroke="#EBEBEB" stroke-miterlimit="10"/>
<path d="M197.559 348.401C276.188 348.401 339.929 338.223 339.929 325.669C339.929 313.115 276.188 302.938 197.559 302.938C118.93 302.938 55.1885 313.115 55.1885 325.669C55.1885 338.223 118.93 348.401 197.559 348.401Z" fill="#FFEDEB"/>
<path d="M396.38 193.598H309.387V296.847H396.38V193.598Z" fill="#37474F"/>
<path d="M556.477 193.598H396.379V296.847H556.477V193.598Z" fill="#455A64"/>
<path d="M546.483 248.469H408.395V280.365H546.483V248.469Z" fill="#37474F"/>
<path d="M492.805 253.727H414.201V256.416H492.805V253.727Z" fill="#455A64"/>
<path d="M492.805 258.395H414.201V261.084H492.805V258.395Z" fill="#455A64"/>
<path d="M492.805 263.066H414.201V265.756H492.805V263.066Z" fill="#455A64"/>
<path d="M492.805 267.734H414.201V270.424H492.805V267.734Z" fill="#455A64"/>
<path d="M492.805 272.391H414.201V275.08H492.805V272.391Z" fill="#455A64"/>
<path d="M507.136 256.402C507.136 256.932 506.979 257.449 506.685 257.889C506.391 258.329 505.973 258.672 505.484 258.875C504.995 259.077 504.457 259.13 503.938 259.027C503.419 258.924 502.942 258.669 502.568 258.295C502.194 257.92 501.939 257.444 501.836 256.924C501.732 256.405 501.785 255.867 501.988 255.378C502.19 254.889 502.533 254.472 502.973 254.178C503.413 253.884 503.931 253.727 504.46 253.727C505.17 253.727 505.85 254.008 506.352 254.51C506.854 255.012 507.136 255.693 507.136 256.402Z" fill="#FC2D3F"/>
<path d="M515.937 256.402C515.937 256.932 515.78 257.449 515.486 257.889C515.192 258.329 514.774 258.672 514.285 258.875C513.796 259.077 513.258 259.13 512.739 259.027C512.22 258.924 511.743 258.669 511.369 258.295C510.994 257.92 510.74 257.444 510.636 256.924C510.533 256.405 510.586 255.867 510.789 255.378C510.991 254.889 511.334 254.472 511.774 254.178C512.214 253.884 512.732 253.727 513.261 253.727C513.971 253.727 514.651 254.008 515.153 254.51C515.655 255.012 515.937 255.693 515.937 256.402Z" fill="#FC2D3F"/>
<path d="M524.737 256.402C524.737 256.932 524.581 257.449 524.287 257.889C523.993 258.329 523.575 258.672 523.086 258.875C522.597 259.077 522.059 259.13 521.54 259.027C521.021 258.924 520.544 258.669 520.169 258.295C519.795 257.92 519.54 257.444 519.437 256.924C519.334 256.405 519.387 255.867 519.589 255.378C519.792 254.889 520.135 254.472 520.575 254.178C521.015 253.884 521.532 253.727 522.062 253.727C522.771 253.727 523.452 254.008 523.954 254.51C524.456 255.012 524.737 255.693 524.737 256.402Z" fill="#FC2D3F"/>
<path d="M533.529 256.402C533.529 256.932 533.372 257.449 533.078 257.889C532.784 258.329 532.366 258.672 531.877 258.875C531.388 259.077 530.85 259.13 530.331 259.027C529.812 258.924 529.335 258.669 528.961 258.295C528.586 257.92 528.331 257.444 528.228 256.924C528.125 256.405 528.178 255.867 528.38 255.378C528.583 254.889 528.926 254.472 529.366 254.178C529.806 253.884 530.323 253.727 530.853 253.727C531.562 253.727 532.243 254.008 532.745 254.51C533.247 255.012 533.529 255.693 533.529 256.402Z" fill="#FC2D3F"/>
<path d="M542.335 256.402C542.335 256.932 542.178 257.449 541.884 257.889C541.59 258.329 541.172 258.672 540.683 258.875C540.194 259.077 539.656 259.13 539.137 259.027C538.618 258.924 538.141 258.669 537.767 258.295C537.393 257.92 537.138 257.444 537.035 256.924C536.932 256.405 536.985 255.867 537.187 255.378C537.39 254.889 537.733 254.472 538.173 254.178C538.613 253.884 539.13 253.727 539.659 253.727C540.369 253.727 541.05 254.008 541.551 254.51C542.053 255.012 542.335 255.693 542.335 256.402Z" fill="#FC2D3F"/>
<path d="M507.136 264.418C507.136 264.947 506.979 265.465 506.685 265.905C506.391 266.345 505.973 266.688 505.484 266.89C504.995 267.093 504.457 267.146 503.938 267.043C503.419 266.939 502.942 266.684 502.568 266.31C502.194 265.936 501.939 265.459 501.836 264.94C501.732 264.421 501.785 263.883 501.988 263.394C502.19 262.905 502.533 262.487 502.973 262.193C503.413 261.899 503.931 261.742 504.46 261.742C505.17 261.742 505.85 262.024 506.352 262.526C506.854 263.028 507.136 263.708 507.136 264.418Z" fill="#FC2D3F"/>
<path d="M515.937 264.418C515.937 264.947 515.78 265.465 515.486 265.905C515.192 266.345 514.774 266.688 514.285 266.89C513.796 267.093 513.258 267.146 512.739 267.043C512.22 266.939 511.743 266.684 511.369 266.31C510.994 265.936 510.74 265.459 510.636 264.94C510.533 264.421 510.586 263.883 510.789 263.394C510.991 262.905 511.334 262.487 511.774 262.193C512.214 261.899 512.732 261.742 513.261 261.742C513.971 261.742 514.651 262.024 515.153 262.526C515.655 263.028 515.937 263.708 515.937 264.418Z" fill="#FC2D3F"/>
<path d="M524.737 264.418C524.737 264.947 524.581 265.465 524.287 265.905C523.993 266.345 523.575 266.688 523.086 266.89C522.597 267.093 522.059 267.146 521.54 267.043C521.021 266.939 520.544 266.684 520.169 266.31C519.795 265.936 519.54 265.459 519.437 264.94C519.334 264.421 519.387 263.883 519.589 263.394C519.792 262.905 520.135 262.487 520.575 262.193C521.015 261.899 521.532 261.742 522.062 261.742C522.771 261.742 523.452 262.024 523.954 262.526C524.456 263.028 524.737 263.708 524.737 264.418Z" fill="#FC2D3F"/>
<path d="M533.529 264.418C533.529 264.947 533.372 265.465 533.078 265.905C532.784 266.345 532.366 266.688 531.877 266.89C531.388 267.093 530.85 267.146 530.331 267.043C529.812 266.939 529.335 266.684 528.961 266.31C528.586 265.936 528.331 265.459 528.228 264.94C528.125 264.421 528.178 263.883 528.38 263.394C528.583 262.905 528.926 262.487 529.366 262.193C529.806 261.899 530.323 261.742 530.853 261.742C531.562 261.742 532.243 262.024 532.745 262.526C533.247 263.028 533.529 263.708 533.529 264.418Z" fill="#FC2D3F"/>
<path d="M542.335 264.418C542.335 264.947 542.178 265.465 541.884 265.905C541.59 266.345 541.172 266.688 540.683 266.89C540.194 267.093 539.656 267.146 539.137 267.043C538.618 266.939 538.141 266.684 537.767 266.31C537.393 265.936 537.138 265.459 537.035 264.94C536.932 264.421 536.985 263.883 537.187 263.394C537.39 262.905 537.733 262.487 538.173 262.193C538.613 261.899 539.13 261.742 539.659 261.742C540.369 261.742 541.05 262.024 541.551 262.526C542.053 263.028 542.335 263.708 542.335 264.418Z" fill="#FC2D3F"/>
<path d="M507.136 272.418C507.136 272.947 506.979 273.465 506.685 273.905C506.391 274.345 505.973 274.688 505.484 274.89C504.995 275.093 504.457 275.146 503.938 275.043C503.419 274.939 502.942 274.684 502.568 274.31C502.194 273.936 501.939 273.459 501.836 272.94C501.732 272.421 501.785 271.883 501.988 271.394C502.19 270.905 502.533 270.487 502.973 270.193C503.413 269.899 503.931 269.742 504.46 269.742C505.17 269.742 505.85 270.024 506.352 270.526C506.854 271.028 507.136 271.708 507.136 272.418Z" fill="#FC2D3F"/>
<path d="M515.937 272.418C515.937 272.947 515.78 273.465 515.486 273.905C515.192 274.345 514.774 274.688 514.285 274.89C513.796 275.093 513.258 275.146 512.739 275.043C512.22 274.939 511.743 274.684 511.369 274.31C510.994 273.936 510.74 273.459 510.636 272.94C510.533 272.421 510.586 271.883 510.789 271.394C510.991 270.905 511.334 270.487 511.774 270.193C512.214 269.899 512.732 269.742 513.261 269.742C513.971 269.742 514.651 270.024 515.153 270.526C515.655 271.028 515.937 271.708 515.937 272.418Z" fill="#FC2D3F"/>
<path d="M524.737 272.418C524.737 272.947 524.581 273.465 524.287 273.905C523.993 274.345 523.575 274.688 523.086 274.89C522.597 275.093 522.059 275.146 521.54 275.043C521.021 274.939 520.544 274.684 520.169 274.31C519.795 273.936 519.54 273.459 519.437 272.94C519.334 272.421 519.387 271.883 519.589 271.394C519.792 270.905 520.135 270.487 520.575 270.193C521.015 269.899 521.532 269.742 522.062 269.742C522.771 269.742 523.452 270.024 523.954 270.526C524.456 271.028 524.737 271.708 524.737 272.418Z" fill="#FC2D3F"/>
<path d="M533.529 272.418C533.529 272.947 533.372 273.465 533.078 273.905C532.784 274.345 532.366 274.688 531.877 274.89C531.388 275.093 530.85 275.146 530.331 275.043C529.812 274.939 529.335 274.684 528.961 274.31C528.586 273.936 528.331 273.459 528.228 272.94C528.125 272.421 528.178 271.883 528.38 271.394C528.583 270.905 528.926 270.487 529.366 270.193C529.806 269.899 530.323 269.742 530.853 269.742C531.562 269.742 532.243 270.024 532.745 270.526C533.247 271.028 533.529 271.708 533.529 272.418Z" fill="#FC2D3F"/>
<path d="M542.335 272.418C542.335 272.947 542.178 273.465 541.884 273.905C541.59 274.345 541.172 274.688 540.683 274.89C540.194 275.093 539.656 275.146 539.137 275.043C538.618 274.939 538.141 274.684 537.767 274.31C537.393 273.936 537.138 273.459 537.035 272.94C536.932 272.421 536.985 271.883 537.187 271.394C537.39 270.905 537.733 270.487 538.173 270.193C538.613 269.899 539.13 269.742 539.659 269.742C540.369 269.742 541.05 270.024 541.551 270.526C542.053 271.028 542.335 271.708 542.335 272.418Z" fill="#FC2D3F"/>
<path d="M498.274 253.727H496.735V275.08H498.274V253.727Z" fill="#263238"/>
<path d="M546.483 210.031H408.395V241.928H546.483V210.031Z" fill="#37474F"/>
<path d="M492.805 215.301H414.201V217.99H492.805V215.301Z" fill="#455A64"/>
<path d="M492.805 219.957H414.201V222.646H492.805V219.957Z" fill="#455A64"/>
<path d="M492.805 224.625H414.201V227.314H492.805V224.625Z" fill="#455A64"/>
<path d="M492.805 229.297H414.201V231.986H492.805V229.297Z" fill="#455A64"/>
<path d="M492.805 233.965H414.201V236.654H492.805V233.965Z" fill="#455A64"/>
<path d="M507.136 217.965C507.136 218.494 506.979 219.012 506.685 219.452C506.391 219.892 505.973 220.235 505.484 220.437C504.995 220.64 504.457 220.693 503.938 220.589C503.419 220.486 502.942 220.231 502.568 219.857C502.194 219.483 501.939 219.006 501.836 218.487C501.732 217.968 501.785 217.43 501.988 216.941C502.19 216.452 502.533 216.034 502.973 215.74C503.413 215.446 503.931 215.289 504.46 215.289C505.17 215.289 505.85 215.571 506.352 216.073C506.854 216.575 507.136 217.255 507.136 217.965Z" fill="#FC2D3F"/>
<path d="M515.937 217.965C515.937 218.494 515.78 219.012 515.486 219.452C515.192 219.892 514.774 220.235 514.285 220.437C513.796 220.64 513.258 220.693 512.739 220.589C512.22 220.486 511.743 220.231 511.369 219.857C510.994 219.483 510.74 219.006 510.636 218.487C510.533 217.968 510.586 217.43 510.789 216.941C510.991 216.452 511.334 216.034 511.774 215.74C512.214 215.446 512.732 215.289 513.261 215.289C513.971 215.289 514.651 215.571 515.153 216.073C515.655 216.575 515.937 217.255 515.937 217.965Z" fill="#FC2D3F"/>
<path d="M524.737 217.965C524.737 218.494 524.581 219.012 524.287 219.452C523.993 219.892 523.575 220.235 523.086 220.437C522.597 220.64 522.059 220.693 521.54 220.589C521.021 220.486 520.544 220.231 520.169 219.857C519.795 219.483 519.54 219.006 519.437 218.487C519.334 217.968 519.387 217.43 519.589 216.941C519.792 216.452 520.135 216.034 520.575 215.74C521.015 215.446 521.532 215.289 522.062 215.289C522.771 215.289 523.452 215.571 523.954 216.073C524.456 216.575 524.737 217.255 524.737 217.965Z" fill="#FC2D3F"/>
<path d="M533.529 217.965C533.529 218.494 533.372 219.012 533.078 219.452C532.784 219.892 532.366 220.235 531.877 220.437C531.388 220.64 530.85 220.693 530.331 220.589C529.812 220.486 529.335 220.231 528.961 219.857C528.586 219.483 528.331 219.006 528.228 218.487C528.125 217.968 528.178 217.43 528.38 216.941C528.583 216.452 528.926 216.034 529.366 215.74C529.806 215.446 530.323 215.289 530.853 215.289C531.562 215.289 532.243 215.571 532.745 216.073C533.247 216.575 533.529 217.255 533.529 217.965Z" fill="#FC2D3F"/>
<path d="M542.335 217.965C542.335 218.494 542.178 219.012 541.884 219.452C541.59 219.892 541.172 220.235 540.683 220.437C540.194 220.64 539.656 220.693 539.137 220.589C538.618 220.486 538.141 220.231 537.767 219.857C537.393 219.483 537.138 219.006 537.035 218.487C536.932 217.968 536.985 217.43 537.187 216.941C537.39 216.452 537.733 216.034 538.173 215.74C538.613 215.446 539.13 215.289 539.659 215.289C540.369 215.289 541.05 215.571 541.551 216.073C542.053 216.575 542.335 217.255 542.335 217.965Z" fill="#FC2D3F"/>
<path d="M504.47 228.653C505.948 228.653 507.146 227.455 507.146 225.977C507.146 224.499 505.948 223.301 504.47 223.301C502.992 223.301 501.794 224.499 501.794 225.977C501.794 227.455 502.992 228.653 504.47 228.653Z" fill="#FC2D3F"/>
<path d="M515.937 225.977C515.937 226.506 515.78 227.023 515.486 227.463C515.192 227.903 514.774 228.246 514.285 228.449C513.796 228.651 513.258 228.704 512.739 228.601C512.22 228.498 511.743 228.243 511.369 227.869C510.994 227.495 510.74 227.018 510.636 226.499C510.533 225.98 510.586 225.442 510.789 224.953C510.991 224.464 511.334 224.046 511.774 223.752C512.214 223.458 512.732 223.301 513.261 223.301C513.971 223.301 514.651 223.583 515.153 224.085C515.655 224.586 515.937 225.267 515.937 225.977Z" fill="#FC2D3F"/>
<path d="M522.062 228.653C523.539 228.653 524.738 227.455 524.738 225.977C524.738 224.499 523.539 223.301 522.062 223.301C520.584 223.301 519.386 224.499 519.386 225.977C519.386 227.455 520.584 228.653 522.062 228.653Z" fill="#FC2D3F"/>
<path d="M533.529 225.977C533.529 226.506 533.372 227.023 533.078 227.463C532.784 227.903 532.366 228.246 531.877 228.449C531.388 228.651 530.85 228.704 530.331 228.601C529.812 228.498 529.335 228.243 528.961 227.869C528.586 227.495 528.331 227.018 528.228 226.499C528.125 225.98 528.178 225.442 528.38 224.953C528.583 224.464 528.926 224.046 529.366 223.752C529.806 223.458 530.323 223.301 530.853 223.301C531.562 223.301 532.243 223.583 532.745 224.085C533.247 224.586 533.529 225.267 533.529 225.977Z" fill="#FC2D3F"/>
<path d="M542.335 225.977C542.335 226.506 542.178 227.023 541.884 227.463C541.59 227.903 541.172 228.246 540.683 228.449C540.194 228.651 539.656 228.704 539.137 228.601C538.618 228.498 538.141 228.243 537.767 227.869C537.393 227.495 537.138 227.018 537.035 226.499C536.932 225.98 536.985 225.442 537.187 224.953C537.39 224.464 537.733 224.046 538.173 223.752C538.613 223.458 539.13 223.301 539.659 223.301C540.369 223.301 541.05 223.583 541.551 224.085C542.053 224.586 542.335 225.267 542.335 225.977Z" fill="#FC2D3F"/>
<path d="M507.136 233.977C507.136 234.506 506.979 235.023 506.685 235.463C506.391 235.903 505.973 236.246 505.484 236.449C504.995 236.651 504.457 236.704 503.938 236.601C503.419 236.498 502.942 236.243 502.568 235.869C502.194 235.495 501.939 235.018 501.836 234.499C501.732 233.98 501.785 233.442 501.988 232.953C502.19 232.464 502.533 232.046 502.973 231.752C503.413 231.458 503.931 231.301 504.46 231.301C505.17 231.301 505.85 231.583 506.352 232.085C506.854 232.586 507.136 233.267 507.136 233.977Z" fill="#FC2D3F"/>
<path d="M515.937 233.977C515.937 234.506 515.78 235.023 515.486 235.463C515.192 235.903 514.774 236.246 514.285 236.449C513.796 236.651 513.258 236.704 512.739 236.601C512.22 236.498 511.743 236.243 511.369 235.869C510.994 235.495 510.74 235.018 510.636 234.499C510.533 233.98 510.586 233.442 510.789 232.953C510.991 232.464 511.334 232.046 511.774 231.752C512.214 231.458 512.732 231.301 513.261 231.301C513.971 231.301 514.651 231.583 515.153 232.085C515.655 232.586 515.937 233.267 515.937 233.977Z" fill="#FC2D3F"/>
<path d="M524.737 233.977C524.737 234.506 524.581 235.023 524.287 235.463C523.993 235.903 523.575 236.246 523.086 236.449C522.597 236.651 522.059 236.704 521.54 236.601C521.021 236.498 520.544 236.243 520.169 235.869C519.795 235.495 519.54 235.018 519.437 234.499C519.334 233.98 519.387 233.442 519.589 232.953C519.792 232.464 520.135 232.046 520.575 231.752C521.015 231.458 521.532 231.301 522.062 231.301C522.771 231.301 523.452 231.583 523.954 232.085C524.456 232.586 524.737 233.267 524.737 233.977Z" fill="#FC2D3F"/>
<path d="M533.529 233.977C533.529 234.506 533.372 235.023 533.078 235.463C532.784 235.903 532.366 236.246 531.877 236.449C531.388 236.651 530.85 236.704 530.331 236.601C529.812 236.498 529.335 236.243 528.961 235.869C528.586 235.495 528.331 235.018 528.228 234.499C528.125 233.98 528.178 233.442 528.38 232.953C528.583 232.464 528.926 232.046 529.366 231.752C529.806 231.458 530.323 231.301 530.853 231.301C531.562 231.301 532.243 231.583 532.745 232.085C533.247 232.586 533.529 233.267 533.529 233.977Z" fill="#FC2D3F"/>
<path d="M542.335 233.977C542.335 234.506 542.178 235.023 541.884 235.463C541.59 235.903 541.172 236.246 540.683 236.449C540.194 236.651 539.656 236.704 539.137 236.601C538.618 236.498 538.141 236.243 537.767 235.869C537.393 235.495 537.138 235.018 537.035 234.499C536.932 233.98 536.985 233.442 537.187 232.953C537.39 232.464 537.733 232.046 538.173 231.752C538.613 231.458 539.13 231.301 539.659 231.301C540.369 231.301 541.05 231.583 541.551 232.085C542.053 232.586 542.335 233.267 542.335 233.977Z" fill="#FC2D3F"/>
<path d="M498.274 215.301H496.735V236.654H498.274V215.301Z" fill="#263238"/>
<path d="M523.953 183.484H341.926V193.599H523.953V183.484Z" fill="#37474F"/>
<path d="M343.743 246.273H323.42V266.597H343.743V246.273Z" fill="#263238"/>
<path d="M164.619 22.6486V52.3643C166.836 49.3053 169.868 46.9314 173.37 45.514C175.596 44.6582 177.969 44.2446 180.354 44.2965C189.505 44.2965 196.262 47.4986 200.623 53.9029C204.388 59.433 206.27 67.2421 206.27 77.3302V107.153C206.27 117.393 203.027 125.79 196.543 132.346C193.512 135.466 189.865 137.922 185.834 139.557C181.804 141.193 177.477 141.972 173.129 141.846C168.842 141.945 164.586 141.107 160.657 139.39C156.728 137.673 153.222 135.118 150.384 131.905C144.577 125.595 141.45 117.277 141.66 108.705V105.387L161.636 103.888L162.077 108.638C162.604 114.159 164.834 117.843 168.767 119.689C169.934 120.275 171.222 120.578 172.527 120.573C181.063 120.573 185.331 116.113 185.331 107.193V73.2361C185.377 71.3374 185.002 69.4521 184.234 67.715C183.467 65.9779 182.324 64.4321 180.889 63.1882C179.231 61.8472 177.13 61.1786 175.002 61.3151C173.37 61.2187 171.743 61.5689 170.296 62.328C168.848 63.087 167.635 64.2263 166.787 65.6232C165.334 68.0194 164.565 70.7682 164.566 73.5706V77.3302H143.748V1.65625H204.838V22.6486H164.619Z" fill="#FC2D3F"/>
<path d="M290 108.705C289.977 115.242 288.021 121.625 284.379 127.052C280.736 132.479 275.57 136.707 269.53 139.205C263.489 141.702 256.845 142.357 250.434 141.087C244.022 139.816 238.13 136.678 233.498 132.066C230.382 129.036 227.92 125.401 226.263 121.383C224.606 117.365 223.79 113.051 223.865 108.705V33.1385C223.86 26.584 225.801 20.1755 229.441 14.7246C233.081 9.27369 238.256 5.02564 244.312 2.51841C250.368 0.0111921 257.032 -0.642399 263.46 0.640405C269.888 1.92321 275.79 5.0847 280.42 9.7245C283.524 12.7729 285.976 16.4203 287.627 20.4452C289.278 24.4701 290.095 28.7885 290.026 33.1385L290 108.705ZM268.352 32.697C268.352 29.5034 267.083 26.4406 264.825 24.1823C262.567 21.9241 259.504 20.6555 256.31 20.6555C254.733 20.6296 253.168 20.93 251.713 21.5379C250.258 22.1457 248.944 23.0478 247.854 24.1876C246.732 25.2988 245.845 26.6253 245.247 28.0875C244.649 29.5496 244.353 31.1175 244.376 32.697V108.371C244.351 109.951 244.647 111.519 245.245 112.981C245.843 114.444 246.73 115.77 247.854 116.88C248.944 118.02 250.258 118.922 251.713 119.53C253.168 120.138 254.733 120.438 256.31 120.412C259.504 120.412 262.567 119.144 264.825 116.886C267.083 114.627 268.352 111.565 268.352 108.371V32.697Z" fill="#FC2D3F"/>
<path d="M374.179 108.704C374.179 117.479 370.694 125.895 364.488 132.1C358.283 138.305 349.867 141.791 341.092 141.791C332.317 141.791 323.901 138.305 317.696 132.1C311.491 125.895 308.005 117.479 308.005 108.704V33.1368C308.004 26.5824 309.947 20.175 313.589 14.7254C317.23 9.27581 322.407 5.02896 328.463 2.52228C334.519 0.0156076 341.183 -0.638223 347.611 0.643527C354.038 1.92528 359.942 5.085 364.573 9.72285C367.677 12.7713 370.129 16.4186 371.78 20.4435C373.432 24.4684 374.248 28.7869 374.179 33.1368V108.704ZM352.518 32.6953C352.518 29.5017 351.25 26.4389 348.991 24.1807C346.733 21.9225 343.67 20.6538 340.477 20.6538C338.9 20.6263 337.334 20.926 335.879 21.5339C334.423 22.1419 333.11 23.0449 332.021 24.186C330.896 25.2953 330.007 26.6214 329.409 28.084C328.811 29.5467 328.516 31.1154 328.542 32.6953V108.369C328.515 109.949 328.809 111.519 329.407 112.981C330.005 114.444 330.894 115.77 332.021 116.879C333.11 118.02 334.423 118.923 335.879 119.531C337.334 120.139 338.9 120.438 340.477 120.411C343.67 120.411 346.733 119.142 348.991 116.884C351.25 114.626 352.518 111.563 352.518 108.369V32.6953Z" fill="#FC2D3F"/>
<path d="M45.3424 205.695H9.80664V241.231H45.3424V205.695Z" fill="#37474F"/>
<path d="M27.5746 235.317C34.1288 235.317 39.4421 230.004 39.4421 223.45C39.4421 216.895 34.1288 211.582 27.5746 211.582C21.0203 211.582 15.707 216.895 15.707 223.45C15.707 230.004 21.0203 235.317 27.5746 235.317Z" fill="#455A64"/>
<path d="M25.4073 218.66H22.7314V228.454H25.4073V218.66Z" fill="#263238"/>
<path d="M32.8439 218.66H30.168V228.454H32.8439V218.66Z" fill="#263238"/>
<path d="M0.964844 296.474L72.2638 296.153L143.563 296.032L286.147 295.805L428.732 296.032L500.03 296.153L571.329 296.474L500.03 296.808L428.732 296.929L286.147 297.143L143.563 296.915L72.2638 296.795L0.964844 296.474Z" fill="#263238"/>
<path d="M123.02 262.932C124.358 265.768 119.221 286.092 117.669 290.266C116.117 294.441 110.457 317.734 107.728 318.738C104.998 319.741 91.7661 319.46 89.893 318.738C88.0199 318.015 89.893 314.041 92.0471 312.65C94.2012 311.258 96.7834 309.131 96.7834 309.131C96.7834 309.131 92.9167 273.154 93.6392 269.127C94.3617 265.099 119.542 255.319 123.02 262.932Z" fill="#FC2D3F"/>
<path opacity="0.1" d="M123.02 262.932C124.358 265.768 119.221 286.092 117.669 290.266C116.117 294.441 110.457 317.734 107.728 318.738C104.998 319.741 91.7661 319.46 89.893 318.738C88.0199 318.015 89.893 314.041 92.0471 312.65C94.2012 311.258 96.7834 309.131 96.7834 309.131C96.7834 309.131 92.9167 273.154 93.6392 269.127C94.3617 265.099 119.542 255.319 123.02 262.932Z" fill="black"/>
<path opacity="0.1" d="M95.3547 317.17C95.5013 316.452 95.7976 315.772 96.2243 315.176C96.6514 314.593 97.1607 314.075 97.7362 313.638C98.2953 313.196 98.9435 312.881 99.6361 312.715C99.6571 312.706 99.6806 312.705 99.7023 312.712C99.724 312.719 99.7423 312.734 99.7538 312.753C99.7653 312.773 99.7692 312.796 99.7648 312.819C99.7604 312.841 99.7479 312.861 99.7297 312.875C99.4889 313.089 99.2213 313.277 98.9939 313.504C98.7664 313.731 98.5122 313.972 98.2981 314.213C97.8589 314.684 97.4771 315.205 97.1609 315.765C96.8264 316.314 96.5187 316.876 96.2243 317.464C95.93 318.053 95.7828 318.682 95.5554 319.297C95.5554 319.333 95.5413 319.367 95.5162 319.392C95.4911 319.417 95.4571 319.431 95.4216 319.431C95.3861 319.431 95.3521 319.417 95.327 319.392C95.3019 319.367 95.2878 319.333 95.2878 319.297C95.1543 318.592 95.1771 317.866 95.3547 317.17Z" fill="black"/>
<path opacity="0.1" d="M91.4881 315.057C92.2243 313.788 93.3572 312.796 94.7125 312.234C94.8062 312.234 94.8998 312.301 94.8196 312.368C93.7964 313.174 92.9263 314.158 92.2507 315.272C91.913 315.84 91.6938 316.471 91.6064 317.126C91.519 317.781 91.5652 318.448 91.7423 319.085C91.7423 319.085 91.7423 319.165 91.6486 319.085C91.2584 318.491 91.0372 317.803 91.009 317.093C90.9807 316.384 91.1463 315.68 91.4881 315.057Z" fill="black"/>
<path opacity="0.1" d="M94.7361 288.994L112.919 306.2C114.926 299.604 116.799 292.433 117.615 290.305C119.22 286.131 124.305 265.807 122.967 262.971C119.475 255.358 94.2277 265.139 93.532 269.166C93.251 271.025 93.92 279.99 94.7361 288.994Z" fill="black"/>
<path d="M191.701 283.267C192.437 283.963 199.595 277.193 200.692 274.022C201.789 270.851 197.213 261.9 198.016 260.375C198.819 258.85 202.766 257.632 204.786 259.974C206.807 262.315 211.984 275.146 210.914 280.631C209.844 286.117 198.832 298.359 197.668 298.359C196.504 298.359 191.701 283.267 191.701 283.267Z" fill="#FC2D3F"/>
<path opacity="0.1" d="M191.701 283.267C191.701 283.267 196.531 298.252 197.668 298.319C198.511 298.319 204.639 291.817 208.305 286.157L198.284 277.715C195.755 280.698 192.21 283.749 191.701 283.267Z" fill="black"/>
<path d="M151.266 221.375H91.8609C91.8609 221.375 87.4457 260.496 87.9274 265.674C88.409 270.852 114.512 309.211 122.607 314.161C130.701 319.112 177.235 319.352 188.554 316.837C197.358 314.897 204.703 303.658 201.05 286.359C199.458 278.786 178.827 260.751 175.951 257.299C173.074 253.847 151.266 221.375 151.266 221.375Z" fill="#C7C7C7"/>
<path d="M87.9276 265.674C88.4092 270.852 114.512 309.21 122.62 314.161C130.728 319.111 177.235 319.352 188.568 316.837C197.358 314.897 204.716 303.658 201.051 286.345C199.458 278.785 178.841 260.75 175.964 257.298C174.198 255.184 165.341 242.179 158.731 232.412C154.544 226.231 151.266 221.348 151.266 221.348H91.8611C91.8611 221.348 90.7506 231.168 89.707 241.617C88.6634 252.067 87.6867 263.091 87.9276 265.674Z" fill="#FC2D3F"/>
<path opacity="0.1" d="M89.71 241.645C121.633 251.492 150.024 237.484 158.734 232.44C154.547 226.259 151.269 221.375 151.269 221.375H91.864C91.864 221.375 90.8071 231.195 89.71 241.645Z" fill="black"/>
<path d="M189.692 284.497C189.692 284.497 173.343 274.235 161.876 276.082C150.41 277.928 146.356 301.503 151.855 314.735C151.855 314.735 141.393 317.839 141.393 322.896C141.393 325.773 147.373 326.696 155.99 326.482C164.606 326.268 181.758 326.107 182.133 323.94C182.213 322.154 181.825 320.379 181.009 318.789C181.009 318.789 196.489 317.049 199.526 306.747C202.563 296.445 192.275 286.223 189.692 284.497Z" fill="#FC2D3F"/>
<path opacity="0.1" d="M167.363 315.899C171.744 317.692 176.401 318.724 181.13 318.949C181.224 318.949 181.25 319.11 181.13 319.123C176.307 319.599 171.46 318.506 167.309 316.006C167.255 315.979 167.296 315.859 167.363 315.899Z" fill="black"/>
<path opacity="0.1" d="M148.125 326.549C148.694 324.623 149.964 322.981 151.684 321.946C152.617 321.301 153.634 320.788 154.708 320.421C155.939 320.006 157.196 319.779 158.44 319.391C158.534 319.391 158.614 319.511 158.44 319.551C157.377 319.936 156.347 320.411 155.363 320.969C154.364 321.485 153.395 322.057 152.46 322.682C150.919 323.8 149.564 325.155 148.446 326.696C148.406 326.87 148.071 326.776 148.125 326.549Z" fill="black"/>
<path opacity="0.1" d="M150.237 318.43C150.258 318.43 150.278 318.438 150.293 318.453C150.308 318.468 150.317 318.489 150.317 318.51C150.317 318.531 150.308 318.552 150.293 318.567C150.278 318.582 150.258 318.59 150.237 318.59C147.07 319.912 144.545 322.418 143.199 325.574C143.199 325.708 142.905 325.708 142.931 325.574C143.192 323.745 144.05 322.053 145.371 320.761C146.692 319.47 148.402 318.65 150.237 318.43Z" fill="black"/>
<path opacity="0.1" d="M145.14 317.693C145.14 317.693 145.14 317.773 145.14 317.76C147.177 316.554 149.334 315.564 151.575 314.803C151.843 315.271 152.124 315.739 152.431 316.141C152.431 316.234 152.632 316.141 152.579 316.061C150.625 311.932 149.645 307.409 149.715 302.842C149.724 300.423 149.867 298.006 150.144 295.603C150.705 291.389 152.019 287.311 154.024 283.562C155.152 281.208 156.894 279.202 159.068 277.755C161.413 276.613 164.032 276.15 166.627 276.417C169.306 276.597 171.955 277.087 174.521 277.876C177.128 278.597 179.685 279.491 182.174 280.552C177.402 277.841 172.149 276.082 166.707 275.374C163.888 274.981 161.016 275.447 158.466 276.712C156.067 278.236 154.125 280.381 152.846 282.92C150.316 287.848 148.913 293.277 148.739 298.814C148.739 299.443 148.739 300.086 148.739 300.714C148.739 301.557 148.739 302.387 148.739 303.23C148.759 307.204 149.727 311.117 151.562 314.642C149.165 314.996 146.928 316.058 145.14 317.693Z" fill="black"/>
<path d="M142.223 267.973C143.561 270.796 138.423 291.119 136.871 295.294C135.319 299.468 129.606 322.762 126.93 323.778C124.254 324.795 110.968 324.501 109.095 323.778C107.222 323.056 109.095 319.082 111.249 317.691C113.403 316.299 115.972 314.172 115.972 314.172C115.972 314.172 112.119 278.195 112.828 274.168C113.537 270.14 138.744 260.347 142.223 267.973Z" fill="#FC2D3F"/>
<path opacity="0.1" d="M133.31 306.589C134.528 302.923 136.12 299.364 137.324 295.711C137.324 295.564 137.605 295.631 137.551 295.778C136.615 298.722 135.906 301.745 135.023 304.716C135.156 304.515 135.277 304.301 135.397 304.1C136.276 302.975 136.983 301.726 137.498 300.394C137.507 300.362 137.528 300.335 137.557 300.319C137.586 300.303 137.62 300.298 137.652 300.307C137.684 300.316 137.711 300.337 137.727 300.366C137.743 300.395 137.748 300.429 137.739 300.461C137.545 301.087 137.28 301.688 136.949 302.254C136.601 302.909 136.24 303.592 135.879 304.221C135.518 304.85 134.929 305.906 134.407 306.723C134.407 306.79 134.407 306.843 134.407 306.897C133.27 310.593 131.93 314.225 130.393 317.774C130.373 317.806 130.343 317.831 130.308 317.844C130.273 317.857 130.234 317.859 130.197 317.848C130.161 317.838 130.129 317.816 130.107 317.785C130.084 317.755 130.072 317.718 130.072 317.68C130.965 313.931 132.045 310.229 133.31 306.589Z" fill="black"/>
<path opacity="0.1" d="M112.278 279.897C112.278 279.83 112.425 279.803 112.439 279.897C112.827 282.572 112.987 285.382 113.268 288.125C113.549 290.868 113.897 293.811 114.205 296.661C114.834 302.32 115.784 307.967 116.238 313.639C116.238 313.88 115.824 313.907 115.757 313.639C114.396 308.183 113.478 302.626 113.014 297.022C112.72 294.239 112.546 291.456 112.412 288.673C112.205 285.753 112.16 282.822 112.278 279.897Z" fill="black"/>
<path opacity="0.1" d="M113.913 321.922C114.049 321.202 114.342 320.522 114.77 319.928C115.198 319.341 115.712 318.823 116.295 318.389C116.851 317.943 117.5 317.627 118.195 317.466C118.215 317.463 118.235 317.466 118.253 317.475C118.271 317.484 118.286 317.499 118.295 317.517C118.304 317.535 118.307 317.555 118.303 317.575C118.3 317.595 118.29 317.613 118.275 317.627C118.034 317.854 117.767 318.028 117.539 318.256L116.843 318.965C116.411 319.441 116.03 319.961 115.706 320.517C115.385 321.065 115.064 321.627 114.783 322.216C114.502 322.805 114.328 323.433 114.101 324.049C114.092 324.076 114.075 324.099 114.052 324.116C114.029 324.132 114.002 324.141 113.974 324.141C113.945 324.141 113.918 324.132 113.895 324.116C113.872 324.099 113.855 324.076 113.846 324.049C113.706 323.344 113.729 322.616 113.913 321.922Z" fill="black"/>
<path opacity="0.1" d="M110.03 319.768C110.769 318.497 111.907 317.505 113.268 316.945C113.348 316.945 113.442 317.012 113.361 317.079C112.339 317.882 111.472 318.866 110.806 319.982C110.461 320.548 110.238 321.179 110.151 321.836C110.063 322.492 110.113 323.159 110.297 323.796C110.297 323.796 110.297 323.876 110.204 323.796C109.811 323.204 109.588 322.516 109.557 321.806C109.527 321.097 109.69 320.392 110.03 319.768Z" fill="black"/>
<path d="M114.594 166.987C115.236 164.632 109.376 156.283 107.142 153.54C104.907 150.798 92.6115 146.556 88.678 148.71C87.1393 149.553 84.2761 155.467 80.4095 160.591C74.4155 168.539 67.4314 176.874 69.9735 179.108C76.1281 184.554 90.1898 175.964 94.7522 173.088C99.3146 170.211 103.476 166.692 104.586 166.813C106.058 166.973 109.135 169.301 110.379 169.489C111.253 169.547 112.123 169.34 112.876 168.893C113.628 168.446 114.227 167.781 114.594 166.987Z" fill="#FC2D3F"/>
<path opacity="0.1" d="M114.594 166.987C115.236 164.632 109.376 156.283 107.142 153.54C104.907 150.798 92.6115 146.556 88.678 148.71C87.1393 149.553 84.2761 155.467 80.4095 160.591C74.4155 168.539 67.4314 176.874 69.9735 179.108C76.1281 184.554 90.1898 175.964 94.7522 173.088C99.3146 170.211 103.476 166.692 104.586 166.813C106.058 166.973 109.135 169.301 110.379 169.489C111.253 169.547 112.123 169.34 112.876 168.893C113.628 168.446 114.227 167.781 114.594 166.987Z" fill="black"/>
<path d="M142.983 158.664C157.339 167.253 163.708 190.079 164.096 193.731C164.417 196.702 171.254 207.245 170.036 218.577C169.247 225.855 156.162 235.529 145.512 235.435C143.558 235.435 126.981 241.429 112.973 240.466C98.9647 239.502 88.3682 229.561 87.9535 228.719C87.5387 227.876 76.0859 226.243 75.417 214.536C74.2797 195.805 93.3454 164.016 98.7908 159.681C107.822 152.523 133.163 152.83 142.983 158.664Z" fill="#FC2D3F"/>
<path d="M136.163 168.58C135.896 166.038 143.348 158.398 146.131 155.869C148.914 153.341 162.374 151.039 166.093 153.929C167.551 155.067 169.545 161.663 172.702 167.63C177.586 176.875 183.406 186.682 180.463 188.582C173.157 193.211 159.992 181.973 155.737 178.213C151.483 174.453 147.71 170.185 146.572 170.078C145.02 169.998 141.435 171.898 140.137 171.831C139.225 171.75 138.358 171.397 137.649 170.817C136.941 170.238 136.423 169.458 136.163 168.58Z" fill="#FC2D3F"/>
<path opacity="0.1" d="M136.163 168.58C135.896 166.038 143.348 158.398 146.131 155.869C148.914 153.341 162.374 151.039 166.093 153.929C167.551 155.067 169.545 161.663 172.702 167.63C177.586 176.875 183.406 186.682 180.463 188.582C173.157 193.211 159.992 181.973 155.737 178.213C151.483 174.453 147.71 170.185 146.572 170.078C145.02 169.998 141.435 171.898 140.137 171.831C139.225 171.75 138.358 171.397 137.649 170.817C136.941 170.238 136.423 169.458 136.163 168.58Z" fill="black"/>
<path opacity="0.1" d="M109.935 200.594C118.739 200.674 122.753 210.107 123.81 212.555C124.867 215.004 130.312 220.583 130.5 226.51C130.687 232.437 119.488 238.953 107.755 236.879C96.0209 234.805 89.8262 228.196 89.8931 222.229C89.8931 217.426 94.4689 213.265 94.9773 212.007C95.4857 210.749 101.921 200.514 109.935 200.594Z" fill="black"/>
<path opacity="0.1" d="M131.588 217.16C132.765 218.499 133.759 219.988 134.545 221.589C135.364 223.2 135.945 224.922 136.271 226.7C136.642 228.544 136.442 230.458 135.695 232.185C135.292 233.037 134.708 233.791 133.983 234.393C133.263 234.941 132.452 235.357 131.588 235.624C133.037 234.732 134.144 233.38 134.732 231.784C135.205 230.203 135.279 228.53 134.946 226.914C134.655 225.239 134.207 223.595 133.608 222.003C132.979 220.385 132.284 218.766 131.588 217.16Z" fill="black"/>
<path opacity="0.1" d="M91.2447 213.641C90.4821 214.591 89.7596 215.514 89.0906 216.45C88.431 217.365 87.8619 218.342 87.3914 219.367C86.9506 220.366 86.688 221.435 86.6154 222.525C86.6278 223.672 86.8406 224.809 87.2443 225.883C86.3491 224.993 85.7629 223.839 85.5718 222.591C85.4398 221.307 85.6475 220.011 86.1739 218.832C87.2351 216.582 89.0208 214.754 91.2447 213.641Z" fill="black"/>
<path d="M228.8 339.649C214.391 339.649 198.483 339.395 182.494 339.1C174.253 338.953 167.777 338.833 163.683 338.833C142.905 338.833 136.924 312.074 131.144 286.305C130.341 282.706 129.539 279.107 128.696 275.601C127.037 268.684 125.685 261.714 124.361 254.957C120.347 234.072 116.775 216.05 107.57 215.06C95.4077 213.722 84.5837 231.944 80.6368 260.322L77.9609 259.961C82.1219 230.045 94.1233 210.912 107.824 212.397C118.996 213.588 122.688 232.466 126.956 254.449C128.294 261.138 129.632 268.122 131.265 274.973C132.121 278.518 132.924 282.144 133.74 285.756C139.546 311.686 145.032 336.183 163.656 336.183C167.737 336.183 174.266 336.304 182.521 336.451C200.61 336.799 225.335 337.254 246.341 336.839C280.351 336.17 284.379 333.494 284.793 332.678C284.793 327.112 248.883 320.423 235.37 317.894C221.857 315.365 221.188 315.218 221.335 313.572C221.482 311.927 223.141 312.06 225.683 312.06H281.796C299.39 312.06 305.063 286.747 308.462 271.614C309.043 268.365 309.907 265.173 311.044 262.075C314.977 253.887 324.932 255.077 325.346 255.131L324.999 257.807C324.651 257.807 316.543 256.817 313.452 263.252C312.424 266.173 311.627 269.17 311.071 272.216C307.498 288.125 301.544 314.75 281.796 314.75H233.095L235.892 315.271C268.564 321.372 287.483 326.202 287.483 332.798C287.477 333.158 287.397 333.513 287.247 333.84C287.098 334.167 286.882 334.459 286.613 334.698C282.639 338.565 258.998 339.649 228.8 339.649Z" fill="#263238"/>
<path d="M87.797 258.358L71.3965 257.375L70.8065 267.218L87.207 268.201L87.797 258.358Z" fill="#455A64"/>
<path d="M84.8826 255.058L74.6523 254.445L74.465 257.57L84.6953 258.184L84.8826 255.058Z" fill="#37474F"/>
<path d="M76.2442 267.554L74.3076 267.438L73.8577 274.943L75.7943 275.059L76.2442 267.554Z" fill="#FC2D3F"/>
<path d="M83.6576 267.982L81.7344 267.867L81.2845 275.373L83.2077 275.488L83.6576 267.982Z" fill="#FC2D3F"/>
<path d="M330.361 248.226V264.656H337.546V248.226H330.361Z" fill="#455A64"/>
<path d="M324.57 251.318V261.566H330.377V251.318H324.57Z" fill="#37474F"/>
<path d="M98.835 214.871C98.835 214.871 102.327 218.885 103.678 218.055C105.03 217.226 108.415 209.252 108.415 209.252C108.415 209.252 109.231 219.366 111.84 219.647C114.449 219.928 118.917 215.928 118.917 215.928L108.361 208.609L98.835 214.871Z" fill="#FC2D3F"/>
<path opacity="0.1" d="M98.835 214.871C98.835 214.871 102.327 218.885 103.678 218.055C105.03 217.226 108.415 209.252 108.415 209.252C108.415 209.252 109.231 219.366 111.84 219.647C114.449 219.928 118.917 215.928 118.917 215.928L108.361 208.609L98.835 214.871Z" fill="black"/>
<path opacity="0.1" d="M150.544 202.309C151.583 199.054 151.948 195.622 151.614 192.221C151.463 190.462 151.053 188.735 150.396 187.097C150.039 186.252 149.591 185.449 149.059 184.702C148.547 183.929 147.945 183.219 147.266 182.588C146.926 182.272 146.564 181.982 146.182 181.718C145.794 181.451 145.393 181.237 145.005 180.996L144.403 180.661L143.774 180.407C143.338 180.219 142.891 180.058 142.436 179.925C140.701 179.416 138.884 179.243 137.084 179.417C133.638 179.745 130.355 181.039 127.611 183.15C130.658 181.989 133.891 181.395 137.151 181.397C138.688 181.417 140.211 181.688 141.66 182.2C142.021 182.307 142.355 182.508 142.703 182.641L143.212 182.869L143.693 183.177C144.001 183.377 144.336 183.551 144.643 183.765C144.94 183.978 145.221 184.21 145.486 184.461C146.589 185.47 147.473 186.695 148.082 188.06C148.743 189.482 149.233 190.978 149.54 192.515C150.209 195.737 150.545 199.019 150.544 202.309Z" fill="black"/>
<path opacity="0.1" d="M85.2818 195.47C85.4262 192.687 85.8748 189.928 86.6198 187.242C87.2598 184.752 88.6634 182.525 90.6336 180.873C91.1272 180.513 91.6561 180.203 92.2124 179.95C92.7537 179.714 93.3258 179.557 93.9116 179.482C95.1982 179.336 96.4987 179.363 97.7782 179.562C100.531 180.05 103.242 180.752 105.886 181.663C104.776 180.726 103.57 179.909 102.287 179.227C101.645 178.893 100.949 178.585 100.307 178.291C99.6196 178.014 98.9185 177.773 98.2063 177.568C96.7265 177.113 95.1742 176.941 93.6306 177.06C92.8006 177.121 91.9866 177.32 91.2223 177.649C90.4809 177.965 89.7802 178.37 89.1351 178.853C87.8677 179.819 86.8342 181.058 86.1114 182.479C85.4377 183.839 84.986 185.298 84.7734 186.8C84.3023 189.692 84.476 192.653 85.2818 195.47Z" fill="black"/>
<path d="M128.749 198.106C128.749 197.959 129.097 198.306 129.083 198.48C128.762 202.494 129.083 207.177 133.097 208.689C133.218 208.689 133.191 208.943 133.097 208.916C128.187 208.073 127.745 201.879 128.749 198.106Z" fill="#263238"/>
<path d="M132.9 194.068C140.044 193.881 140.031 206.926 133.408 207.1C126.785 207.274 126.932 194.216 132.9 194.068Z" fill="#263238"/>
<path d="M101.15 194.937C101.15 194.79 100.789 195.098 100.775 195.272C100.534 199.285 99.4373 203.875 95.4235 204.825C95.3031 204.825 95.2897 205.052 95.4235 205.052C100.334 204.891 101.632 198.817 101.15 194.937Z" fill="#263238"/>
<path d="M97.6151 190.361C90.5776 189.183 88.758 202.108 95.2871 203.192C101.816 204.275 103.529 191.324 97.6151 190.361Z" fill="#263238"/>
<path d="M108.08 208.877C109.418 209.291 118.168 206.509 117.445 203.833C116.709 200.943 104.32 200.26 102.728 202.133C101.136 204.007 106.755 208.449 108.08 208.877Z" fill="#263238"/>
<path d="M119.077 215.793C117.669 216.857 116.169 217.793 114.594 218.589C113.842 218.993 113.012 219.23 112.159 219.285C111.651 219.379 111.223 218.696 110.928 218.041C110.394 216.666 110.022 215.234 109.818 213.773C109.55 212.314 109.403 210.816 109.243 209.358L108.828 205.344L107.61 209.291C107.236 210.508 106.794 211.726 106.353 212.943C105.909 214.156 105.381 215.336 104.774 216.475C104.625 216.759 104.451 217.027 104.252 217.278C104.089 217.529 103.881 217.747 103.637 217.92C103.408 218.031 103.148 218.059 102.901 218.001C102.564 217.907 102.241 217.772 101.938 217.599C100.739 216.82 99.6689 215.859 98.7666 214.749C99.4145 216.024 100.327 217.146 101.442 218.041C101.792 218.312 102.186 218.52 102.606 218.656C102.865 218.721 103.13 218.757 103.396 218.763C103.693 218.765 103.987 218.696 104.252 218.563C104.627 218.355 104.962 218.084 105.242 217.76C105.485 217.486 105.709 217.195 105.911 216.89C106.658 215.752 107.298 214.547 107.824 213.291C108.36 212.074 108.815 210.843 109.162 209.598L107.517 209.478C107.635 210.991 107.841 212.497 108.132 213.987C108.28 214.745 108.468 215.496 108.694 216.235C108.915 217.008 109.215 217.757 109.591 218.469C109.799 218.871 110.065 219.24 110.38 219.566C110.583 219.775 110.823 219.943 111.089 220.061C111.262 220.144 111.447 220.199 111.638 220.222C111.802 220.242 111.968 220.242 112.133 220.222C113.164 220.112 114.155 219.759 115.023 219.191C116.529 218.257 117.894 217.113 119.077 215.793Z" fill="#263238"/>
<path d="M51.8682 262.091C57.182 261.782 62.5137 262.146 67.7362 263.175C62.4223 263.483 57.0907 263.119 51.8682 262.091Z" fill="#263238"/>
<path d="M90.3916 270.556C92.901 271.428 95.3465 272.474 97.7101 273.687C100.091 274.859 102.385 276.2 104.574 277.701C99.5634 275.923 94.7981 273.518 90.3916 270.543V270.556Z" fill="#263238"/>
<path d="M60.3662 288.996C62.9986 284.371 66.2086 280.1 69.9191 276.285C68.6239 278.618 67.1617 280.853 65.544 282.975C63.9639 285.103 62.2335 287.115 60.3662 288.996Z" fill="#263238"/>
<path d="M45.3145 246.273C47.3883 246.929 49.4086 247.678 51.4155 248.454C53.4224 249.23 55.4293 250.06 57.4094 250.903C59.3896 251.746 61.4233 252.615 63.3098 253.579C65.1963 254.542 67.2166 255.438 69.1164 256.482C67.0426 255.813 65.0223 255.064 63.0154 254.288C61.0085 253.512 59.0016 252.682 57.0214 251.839C55.0413 250.996 53.0076 250.127 51.1211 249.163C49.2346 248.2 47.2277 247.304 45.3145 246.273Z" fill="#263238"/>
<path d="M92.3145 258.127C94.1785 257.191 96.1216 256.421 98.1211 255.826C100.106 255.196 102.143 254.749 104.209 254.488C100.471 256.35 96.4528 257.584 92.3145 258.141V258.127Z" fill="#263238"/>
<path d="M73.0776 251.359C71.9805 249.62 70.9904 247.84 70.0137 246.007C69.037 244.174 68.1004 242.395 67.1772 240.562C66.2541 238.729 65.371 236.896 64.5014 235.023C63.6317 233.15 62.8289 231.29 62.1064 229.363C63.2036 231.103 64.207 232.895 65.1837 234.715C66.1604 236.535 67.097 238.327 68.0201 240.147C68.9433 241.967 69.813 243.813 70.696 245.686C71.5791 247.559 72.3551 249.432 73.0776 251.359Z" fill="#263238"/>
<path d="M100.17 293.679C98.9792 292.341 97.8687 290.883 96.785 289.451C95.7013 288.02 94.6577 286.534 93.6141 285.063C92.5705 283.591 91.5938 282.079 90.6439 280.54C89.6939 279.002 88.744 277.463 87.8877 275.871C89.0785 277.209 90.189 278.667 91.2727 280.099C92.3564 281.531 93.4134 283.016 94.4436 284.487C95.4738 285.959 96.4639 287.471 97.4138 289.01C98.3638 290.548 99.3137 292.074 100.17 293.679Z" fill="#263238"/>
<path d="M459.999 183.487H349.405L340.842 108.375H451.436L459.999 183.487Z" fill="#A6A6A6"/>
<path d="M453.98 178.455H354.29L346.878 113.418H446.568L453.98 178.455Z" fill="white"/>
<path d="M392.405 147.63L390.813 149.53L375.132 135.99L376.724 134.09L392.405 147.63Z" fill="#FC2D3F"/>
<path d="M388.367 134.09L390.562 135.99L379.176 149.53L376.981 147.63L388.367 134.09Z" fill="#FC2D3F"/>
<path d="M425.937 147.63L424.345 149.53L408.664 135.99L410.256 134.09L425.937 147.63Z" fill="#FC2D3F"/>
<path d="M421.895 134.09L424.089 135.99L412.703 149.53L410.509 147.63L421.895 134.09Z" fill="#FC2D3F"/>
<path d="M373.124 160.649L372.696 157.973H433.479L433.907 160.649H373.124Z" fill="#FC2D3F"/>
<path d="M492.458 178.457H350.182V183.501H492.458V178.457Z" fill="#A6A6A6"/>
<path d="M504.47 178.457H381.085V183.501H504.47V178.457Z" fill="#C7C7C7"/>
<path d="M446.929 116.576L446.568 113.418H346.878L347.239 116.576H446.929Z" fill="#263238"/>
<path d="M355.265 114.996C355.281 115.199 355.369 115.39 355.514 115.532C355.659 115.675 355.851 115.76 356.054 115.772C356.149 115.771 356.242 115.748 356.327 115.706C356.412 115.664 356.486 115.604 356.545 115.529C356.604 115.455 356.645 115.369 356.667 115.277C356.688 115.185 356.689 115.089 356.67 114.996C356.657 114.791 356.57 114.598 356.424 114.452C356.279 114.307 356.086 114.22 355.88 114.207C355.785 114.211 355.692 114.235 355.607 114.279C355.522 114.322 355.448 114.384 355.39 114.459C355.331 114.534 355.289 114.621 355.268 114.714C355.246 114.807 355.245 114.903 355.265 114.996Z" fill="#C7C7C7"/>
<path d="M352.377 114.996C352.396 115.2 352.487 115.391 352.635 115.533C352.782 115.676 352.976 115.76 353.18 115.772C353.274 115.768 353.366 115.744 353.449 115.701C353.533 115.659 353.606 115.598 353.665 115.525C353.723 115.451 353.765 115.366 353.788 115.275C353.81 115.184 353.813 115.089 353.795 114.996C353.78 114.792 353.692 114.6 353.547 114.455C353.402 114.311 353.21 114.222 353.006 114.207C352.911 114.211 352.817 114.236 352.732 114.279C352.647 114.323 352.572 114.384 352.512 114.459C352.452 114.533 352.409 114.62 352.386 114.713C352.363 114.806 352.36 114.902 352.377 114.996Z" fill="white"/>
<path d="M349.5 114.996C349.516 115.199 349.605 115.39 349.75 115.532C349.895 115.675 350.087 115.76 350.29 115.772C350.384 115.771 350.477 115.748 350.562 115.706C350.647 115.664 350.721 115.604 350.78 115.529C350.839 115.455 350.881 115.369 350.902 115.277C350.924 115.185 350.925 115.089 350.905 114.996C350.892 114.791 350.805 114.598 350.66 114.452C350.514 114.307 350.321 114.22 350.116 114.207C350.02 114.211 349.927 114.235 349.842 114.279C349.758 114.322 349.683 114.384 349.625 114.459C349.566 114.534 349.525 114.621 349.503 114.714C349.482 114.807 349.481 114.903 349.5 114.996Z" fill="#FC2D3F"/>
</svg>
