<svg xmlns="http://www.w3.org/2000/svg" width="163" height="53" viewBox="0 0 163 53" fill="none">
  <g clip-path="url(#clip0_3761_22381)">
    <path d="M163 45.6833C163 49.6266 159.776 52.821 155.795 52.821H7.20473C3.22432 52.821 0 49.6235 0 45.6833V7.13772C0 3.19743 3.22744 0 7.20473 0H155.795C159.773 0 163 3.19743 163 7.13772V45.6833Z" fill="black"/>
    <path d="M42.507 34.9161C41.6447 36.8104 41.2322 37.6554 40.12 39.3299C38.5703 41.6669 36.3833 44.5795 33.6776 44.6043C31.2718 44.626 30.6532 43.0535 27.3883 43.0721C24.1234 43.0907 23.4422 44.6321 21.0365 44.6105C18.3308 44.5857 16.2594 41.9578 14.7097 39.6178C10.3731 33.0806 9.92322 25.4074 12.5945 21.3309C14.4941 18.4306 17.4904 16.7344 20.3085 16.7344C23.1267 16.7344 24.9825 18.2944 27.3539 18.2944C29.7253 18.2944 31.0594 16.7344 34.3743 16.7344C36.8832 16.7344 39.5389 18.087 41.4322 20.427C35.2304 23.7947 36.2364 32.5729 42.5038 34.9192L42.507 34.9161Z" fill="white"/>
    <path d="M31.8595 14.1198C33.0655 12.5877 33.9809 10.421 33.6466 8.21094C31.6783 8.34403 29.3756 9.58524 28.0291 11.2041C26.8074 12.6743 25.8014 14.8503 26.1951 16.9675C28.3446 17.0325 30.5691 15.7603 31.8595 14.1198Z" fill="white"/>
    <path d="M55.7131 21.2344L49.502 39.3418H52.3451L54.1978 33.7826H60.2091L62.1149 39.3418H65.0362L58.8 21.2344H55.7069H55.7131ZM57.1878 24.212C57.3972 25.0199 57.6252 25.8587 57.9158 26.7656L59.5904 31.5664H54.829L56.4786 26.7347C56.7286 25.9516 56.9691 25.1035 57.191 24.212H57.1878Z" fill="white"/>
    <path d="M73.0751 25.9281C71.1911 25.9281 69.682 26.6493 68.6791 28.0174L68.5698 26.2159H66.0391L66.0547 26.445C66.1297 27.5655 66.1609 28.8036 66.1609 30.5741V44.5307H68.926V38.0182C69.7851 39.0366 71.1536 39.6278 72.7064 39.6278C74.2592 39.6278 75.812 38.9994 76.8961 37.8635C78.1084 36.5944 78.7458 34.7713 78.7458 32.5922C78.7458 30.6669 78.1896 29.0017 77.1398 27.779C76.1088 26.5812 74.6685 25.9219 73.0751 25.9219V25.9281ZM72.3846 28.1969C74.8497 28.1969 75.9526 30.4596 75.9526 32.7005C75.9526 35.5915 74.5435 37.3899 72.2784 37.3899C70.7318 37.3899 69.3946 36.3468 69.0197 34.8487C68.9541 34.6165 68.9228 34.3101 68.9228 33.9603V31.7565C68.9228 31.5584 68.9666 31.3139 69.0103 31.0817C69.0228 31.0074 69.0384 30.9331 69.0509 30.8589C69.4633 29.2926 70.8318 28.1969 72.3846 28.1969Z" fill="white"/>
    <path d="M87.3161 25.9281C85.4321 25.9281 83.9231 26.6493 82.9201 28.0174L82.8108 26.2159H80.2832L80.2957 26.445C80.3707 27.5686 80.4019 28.8036 80.4019 30.5741V44.5307H83.167V38.0182C84.0262 39.0366 85.3946 39.6278 86.9474 39.6278C88.5002 39.6278 90.053 38.9994 91.1403 37.8635C92.3494 36.5944 92.9899 34.7713 92.9899 32.5922C92.9899 30.6669 92.4338 29.0017 91.3809 27.779C90.353 26.5812 88.9095 25.9219 87.3161 25.9219V25.9281ZM86.6287 28.1969C89.0938 28.1969 90.1967 30.4596 90.1967 32.7005C90.1967 35.5915 88.7877 37.3899 86.5225 37.3899C84.976 37.3899 83.6356 36.3468 83.2638 34.8487C83.1982 34.6165 83.167 34.3101 83.167 33.9603V31.7565C83.167 31.5553 83.2107 31.3139 83.2545 31.0786C83.267 31.0043 83.2826 30.93 83.2951 30.8589C83.7075 29.2926 85.0759 28.1969 86.6287 28.1969Z" fill="white"/>
    <path d="M105.159 28.9064C102.578 27.9159 101.751 27.139 101.751 25.6997C101.751 24.4894 102.722 23.2668 104.894 23.2668C106.684 23.2668 107.83 23.8827 108.14 24.0746L108.374 24.217L109.155 21.9296L109.002 21.8398C108.54 21.5706 107.218 20.9453 104.975 20.9453C101.447 20.9453 98.9855 23.0068 98.9855 25.9597C98.9855 28.3399 100.529 30.0052 103.841 31.1969C106.187 32.0667 107.062 32.955 107.062 34.481C107.062 36.2081 105.715 37.2791 103.547 37.2791C102.135 37.2791 100.682 36.8705 99.5603 36.1586L99.3198 36.0069L98.5762 38.347L98.7136 38.4367C99.7572 39.127 101.722 39.6284 103.388 39.6284C108.14 39.6284 109.827 36.756 109.827 34.2984C109.827 31.8407 108.477 30.2002 105.162 28.9033L105.159 28.9064Z" fill="white"/>
    <path d="M114.801 23.0938L112.089 23.9388V26.2138H110.102V28.4022H112.089V35.1096C112.089 36.7316 112.401 37.8675 113.045 38.5856C113.663 39.2573 114.613 39.6256 115.719 39.6256C116.766 39.6256 117.506 39.4214 117.856 39.2975L118.012 39.2418L117.881 37.0473L117.616 37.1278C117.266 37.233 116.906 37.2763 116.328 37.2763C115.257 37.2763 114.801 36.6047 114.801 35.0292V28.4022H118.137V26.2138H114.801V23.0938Z" fill="white"/>
    <path d="M124.989 25.9297C121.121 25.9297 118.419 28.7897 118.419 32.8848C118.419 36.9798 121.034 39.6325 124.78 39.6325H124.805C127.97 39.6325 131.376 37.4472 131.376 32.6495C131.376 30.6995 130.766 29.025 129.613 27.8023C128.454 26.5766 126.855 25.9297 124.989 25.9297ZM124.908 28.0933C127.395 28.0933 128.529 30.4952 128.529 32.73C128.529 35.4755 126.983 37.4689 124.855 37.4689H124.827C122.731 37.4689 121.206 35.5096 121.206 32.8074C121.206 30.4612 122.349 28.0933 124.905 28.0933H124.908Z" fill="white"/>
    <path d="M139.846 26.0566L139.68 26.0164C139.437 25.9575 139.237 25.9297 138.993 25.9297C137.546 25.9297 136.247 26.7747 135.525 28.1366L135.444 26.2206H132.963L132.979 26.4497C133.053 27.533 133.082 28.7526 133.082 30.3962L133.057 39.3477H135.822V32.3648C135.822 31.9841 135.847 31.625 135.897 31.3031C136.209 29.6255 137.349 28.5421 138.805 28.5421C139.09 28.5421 139.312 28.5638 139.546 28.5885L139.843 28.6195V26.0628L139.846 26.0566Z" fill="white"/>
    <path d="M146.062 25.9062C142.382 25.9062 139.811 28.8189 139.811 32.9944C139.811 37.17 142.369 39.6091 146.328 39.6091C148.409 39.6091 149.858 39.1572 150.705 38.7764L150.871 38.7021L150.34 36.6593L150.108 36.7521C149.355 37.0555 148.352 37.365 146.643 37.365C145.441 37.365 142.672 36.9719 142.501 33.3937L151.427 33.4216L151.464 33.2452C151.521 32.9666 151.549 32.5921 151.549 32.103C151.549 29.2461 150.112 25.9062 146.062 25.9062ZM145.878 27.9894C146.722 27.9894 147.403 28.2463 147.909 28.757C148.706 29.5587 148.843 30.7411 148.862 31.3075H142.554C142.81 29.7258 143.81 27.9894 145.878 27.9894Z" fill="white"/>
    <path d="M49.5022 8.86393C50.2739 8.76179 51.1705 8.6875 52.1547 8.6875C53.9387 8.6875 55.2072 9.04346 56.0476 9.74299C56.9162 10.4425 57.4161 11.4454 57.4161 12.8321C57.4161 14.2188 56.9162 15.3733 56.032 16.1626C55.1197 16.9643 53.6357 17.3976 51.7673 17.3976C50.8675 17.3976 50.1426 17.3729 49.499 17.2955V8.86393H49.5022ZM50.7581 16.4567C51.0706 16.5062 51.5267 16.5062 52.0141 16.5062C54.6667 16.5186 56.107 15.1845 56.107 12.8692C56.1226 10.8232 54.8385 9.56346 52.2141 9.56346C51.5736 9.56346 51.0862 9.61608 50.7581 9.67799V16.4567Z" fill="white"/>
    <path d="M61.8653 17.4585C60.0095 17.4585 58.5566 16.239 58.5566 14.2921C58.5566 12.2306 60.0813 11.0234 61.9778 11.0234C63.8743 11.0234 65.3021 12.308 65.3021 14.1775C65.3021 16.4649 63.5181 17.4585 61.8809 17.4585H61.8653ZM61.9091 16.6197C63.1057 16.6197 64.0055 15.6137 64.0055 14.2178C64.0055 13.1747 63.4212 11.8654 61.9372 11.8654C60.4531 11.8654 59.8251 13.0849 59.8251 14.2549C59.8251 15.6014 60.6812 16.6197 61.8934 16.6197H61.9091Z" fill="white"/>
    <path d="M67.2888 11.1641L68.2167 14.281C68.4011 14.9682 68.5885 15.6151 68.7166 16.2527H68.7604C68.9166 15.6306 69.1446 14.9682 69.3727 14.2934L70.5006 11.1641H71.5566L72.6252 14.2408C72.8814 14.9651 73.0813 15.6275 73.2375 16.2496H73.2813C73.3969 15.6275 73.5812 14.9774 73.8093 14.2532L74.7935 11.1641H76.0338L73.8093 17.3175H72.6689L71.6129 14.3801C71.3692 13.6805 71.1692 13.0708 71.0005 12.3465H70.9724C70.8006 13.0831 70.5881 13.7331 70.3444 14.3924L69.2321 17.3175H68.0917L66.0078 11.1641H67.2919H67.2888Z" fill="white"/>
    <path d="M77.2867 12.828C77.2867 12.178 77.2711 11.6704 77.2305 11.1627H78.3427L78.4146 12.1687H78.4427C78.7864 11.5961 79.5831 11.0234 80.7235 11.0234C81.6795 11.0234 83.1636 11.5311 83.1636 13.642V17.3161H81.9107V13.769C81.9107 12.7785 81.4952 11.9396 80.3142 11.9396C79.5019 11.9396 78.8582 12.4596 78.6302 13.0849C78.5739 13.2242 78.5458 13.4285 78.5458 13.6049V17.3192H77.2898V12.8311L77.2867 12.828Z" fill="white"/>
    <path d="M85.2012 8.28906H86.4572V17.318H85.2012V8.28906Z" fill="white"/>
    <path d="M91.3497 17.4585C89.497 17.4585 88.041 16.239 88.041 14.2921C88.041 12.2306 89.5657 11.0234 91.4653 11.0234C93.3649 11.0234 94.7865 12.308 94.7865 14.1775C94.7865 16.4649 93.0025 17.4585 91.3622 17.4585H91.3497ZM91.3903 16.6197C92.5869 16.6197 93.4867 15.6137 93.4867 14.2178C93.4867 13.1747 92.9025 11.8654 91.4184 11.8654C89.9344 11.8654 89.3064 13.0849 89.3064 14.2549C89.3064 15.6014 90.1624 16.6197 91.3747 16.6197H91.3872H91.3903Z" fill="white"/>
    <path d="M101.235 15.8397C101.235 16.3721 101.264 16.8952 101.335 17.313H100.207L100.092 16.5392H100.051C99.6795 17.0221 98.9234 17.4554 97.9392 17.4554C96.5426 17.4554 95.8271 16.5795 95.8271 15.688C95.8271 14.1992 97.3112 13.3851 99.9763 13.4006V13.2737C99.9763 12.7661 99.8201 11.8375 98.4079 11.8499C97.7517 11.8499 97.08 12.0139 96.5957 12.308L96.3114 11.5589C96.8832 11.2401 97.7236 11.0234 98.5922 11.0234C100.717 11.0234 101.229 12.308 101.229 13.5399V15.8428L101.235 15.8397ZM100.011 14.1744C98.6422 14.1497 97.0863 14.3663 97.0863 15.5611C97.0863 16.2978 97.6268 16.629 98.2548 16.629C99.1671 16.629 99.7513 16.1214 99.9513 15.5983C99.995 15.4837 100.008 15.3568 100.008 15.2423V14.1744H100.011Z" fill="white"/>
    <path d="M109.206 8.28906V15.727C109.206 16.2749 109.221 16.897 109.262 17.318H108.134L108.078 16.2501H108.05C107.665 16.9373 106.837 17.4573 105.709 17.4573C104.041 17.4573 102.741 16.1975 102.741 14.328C102.726 12.2665 104.169 11.0222 105.838 11.0222C106.909 11.0222 107.622 11.4679 107.921 11.9508H107.95V8.28906H109.206ZM107.95 13.6687C107.95 13.517 107.937 13.3375 107.893 13.1858C107.709 12.4863 107.025 11.9013 106.081 11.9013C104.785 11.9013 104.013 12.9196 104.013 14.2661C104.013 15.5258 104.713 16.5535 106.053 16.5535C106.894 16.5535 107.665 16.0458 107.893 15.2194C107.937 15.0677 107.95 14.913 107.95 14.7365V13.6687Z" fill="white"/>
    <path d="M117.122 17.4585C115.269 17.4585 113.813 16.239 113.813 14.2921C113.813 12.2306 115.341 11.0234 117.238 11.0234C119.134 11.0234 120.562 12.308 120.562 14.1775C120.562 16.4649 118.778 17.4585 117.141 17.4585H117.125H117.122ZM117.166 16.6197C118.363 16.6197 119.262 15.6137 119.262 14.2178C119.262 13.1747 118.678 11.8654 117.194 11.8654C115.71 11.8654 115.082 13.0849 115.082 14.2549C115.082 15.6014 115.938 16.6197 117.15 16.6197H117.166Z" fill="white"/>
    <path d="M122.143 12.828C122.143 12.178 122.128 11.6704 122.087 11.1627H123.199L123.271 12.1687H123.299C123.643 11.5961 124.44 11.0234 125.58 11.0234C126.536 11.0234 128.02 11.5311 128.02 13.642V17.3161H126.764V13.769C126.764 12.7785 126.352 11.9396 125.168 11.9396C124.355 11.9396 123.712 12.4596 123.483 13.0849C123.427 13.2242 123.399 13.4285 123.399 13.6049V17.3192H122.143V12.8311V12.828Z" fill="white"/>
    <path d="M134.593 9.68897V11.1623H136.39V12.0135H134.593V15.3317C134.593 16.0931 134.837 16.5264 135.534 16.5264C135.874 16.5264 136.074 16.5017 136.262 16.4491L136.318 17.3003C136.074 17.3777 135.69 17.4519 135.206 17.4519C134.621 17.4519 134.15 17.2724 133.85 16.9815C133.506 16.6379 133.365 16.09 133.365 15.3657V12.0073H132.297V11.1561H133.365V10.0233L134.593 9.67969V9.68897Z" fill="white"/>
    <path d="M137.802 8.28906H139.058V12.1303H139.086C139.286 11.8115 139.598 11.5205 139.986 11.341C140.358 11.1367 140.798 11.0222 141.27 11.0222C142.195 11.0222 143.679 11.5298 143.679 13.6532V17.3149H142.423V13.7801C142.423 12.7741 142.01 11.9477 140.826 11.9477C140.014 11.9477 139.386 12.4553 139.142 13.0682C139.07 13.2198 139.055 13.387 139.055 13.6037V17.318H137.799V8.28906H137.802Z" fill="white"/>
    <path d="M146.432 14.4281C146.46 15.9417 147.532 16.5638 148.785 16.5638C149.681 16.5638 150.241 16.4246 150.697 16.2574L150.925 17.0467C150.481 17.2262 149.713 17.4398 148.613 17.4398C146.501 17.4398 145.217 16.18 145.217 14.3383C145.217 12.4966 146.457 11.0078 148.469 11.0078C150.722 11.0078 151.306 12.7752 151.306 13.9081C151.306 14.1371 151.294 14.3136 151.266 14.4405L146.429 14.4281H146.432ZM150.097 13.6264C150.11 12.9269 149.769 11.8064 148.369 11.8064C147.085 11.8064 146.545 12.8495 146.445 13.6264H150.097Z" fill="white"/>
  </g>
  <defs>
    <clipPath id="clip0_3761_22381">
      <rect width="163" height="52.8241" fill="white"/>
    </clipPath>
  </defs>
</svg>