<svg xmlns="http://www.w3.org/2000/svg" width="163" height="54" viewBox="0 0 163 54" fill="none">
  <path d="M163 46.1134C163 50.0938 159.775 53.3189 155.795 53.3189H7.20542C3.22507 53.3189 0 50.0906 0 46.1134V7.20542C0 3.22507 3.22507 0 7.20542 0H155.795C159.772 0 163 3.22507 163 7.20542V46.1134Z" fill="#1D1D1B"/>
  <mask id="mask0_3761_22410" style="mask-type:luminance" maskUnits="userSpaceOnUse" x="12" y="10" width="31" height="36">
    <path d="M35.3267 23.4626L27.9778 19.2177C27.9778 19.2177 14.5868 11.4865 13.7996 11.0308C13.0125 10.575 12.2285 10.8523 12.2285 11.802V45.1522C12.2285 45.8628 12.7894 46.1719 13.4714 45.7768C14.1565 45.3816 27.9746 37.4018 27.9746 37.4018L35.3235 33.1601C35.3235 33.1601 41.5601 29.559 42.3887 29.081C43.2173 28.6029 43.1376 27.9465 42.4397 27.5672C41.7417 27.1912 35.3267 23.4594 35.3267 23.4594V23.4626Z" fill="white"/>
  </mask>
  <g mask="url(#mask0_3761_22410)">
    <path d="M12.2285 10.2559V28.3093V46.3658L30.4381 28.3124L12.2285 10.2559Z" fill="url(#paint0_linear_3761_22410)"/>
    <path d="M35.3267 23.4619L27.9778 19.217L12.2285 10.125V10.2557L30.4381 28.3122L35.3267 23.4619Z" fill="url(#paint1_linear_3761_22410)"/>
    <path d="M12.2285 46.3659V46.4966L27.9778 37.4045L35.3267 33.1597L30.4381 28.3125L12.2285 46.3659Z" fill="url(#paint2_linear_3761_22410)"/>
    <path d="M35.328 23.4609L30.4395 28.3113L35.328 33.1585L43.7285 28.3081L35.328 23.4609Z" fill="url(#paint3_linear_3761_22410)"/>
  </g>
  <path d="M126.854 35.3772C126.169 35.3772 125.548 35.2497 124.981 34.9979C124.416 34.7462 123.942 34.3574 123.556 33.8347H123.441C123.518 34.4466 123.556 35.0298 123.556 35.5779V39.8993H121.966V24.6854H123.26L123.48 26.1226H123.556C123.964 25.549 124.442 25.1315 124.984 24.8766C125.526 24.6216 126.15 24.4941 126.851 24.4941C128.244 24.4941 129.318 24.969 130.076 25.9218C130.832 26.8747 131.211 28.21 131.211 29.9277C131.211 31.6454 130.825 32.9934 130.057 33.9463C129.286 34.9023 128.218 35.3772 126.851 35.3772H126.854ZM126.625 25.8454C125.551 25.8454 124.777 26.1417 124.299 26.7377C123.821 27.3304 123.572 28.2769 123.559 29.5739V29.9277C123.559 31.4032 123.805 32.458 124.299 33.0954C124.789 33.7296 125.58 34.0483 126.663 34.0483C127.571 34.0483 128.282 33.6818 128.795 32.9456C129.308 32.2126 129.566 31.1992 129.566 29.9086C129.566 28.6179 129.308 27.5949 128.795 26.8938C128.282 26.1927 127.556 25.8454 126.625 25.8454Z" fill="#F9F9F9"/>
  <path d="M134.895 35.1853H133.305V20.2773H134.895V35.1853Z" fill="#F9F9F9"/>
  <path d="M144.042 35.1851L143.726 33.6905H143.65C143.127 34.3502 142.604 34.7931 142.082 35.0258C141.562 35.2584 140.912 35.3763 140.131 35.3763C139.089 35.3763 138.273 35.1086 137.684 34.5701C137.094 34.0315 136.798 33.2698 136.798 32.2819C136.798 30.1627 138.493 29.0505 141.884 28.9485L143.665 28.8911V28.241C143.665 27.4156 143.487 26.807 143.133 26.415C142.78 26.023 142.212 25.8254 141.431 25.8254C140.555 25.8254 139.567 26.0931 138.461 26.6317L137.974 25.4143C138.49 25.1339 139.057 24.914 139.676 24.7546C140.291 24.5953 140.909 24.5156 141.53 24.5156C142.783 24.5156 143.71 24.7929 144.312 25.3506C144.915 25.9051 145.217 26.7974 145.217 28.0243V35.1915H144.038L144.042 35.1851ZM140.45 34.0634C141.441 34.0634 142.215 33.7925 142.783 33.2507C143.347 32.709 143.63 31.9473 143.63 30.969V30.0193L142.04 30.0862C140.775 30.1308 139.864 30.3284 139.306 30.6758C138.748 31.0231 138.468 31.5649 138.468 32.301C138.468 32.8747 138.64 33.3145 138.99 33.614C139.338 33.9136 139.825 34.0634 140.453 34.0634H140.45Z" fill="#F9F9F9"/>
  <path d="M146.142 24.6836H147.847L150.147 30.6716C150.651 32.0388 150.966 33.0267 151.088 33.6322H151.164C151.247 33.3072 151.422 32.7495 151.687 31.9591C151.951 31.1688 152.818 28.7468 154.287 24.6836H155.992L151.48 36.6406C151.033 37.8229 150.511 38.661 149.912 39.155C149.316 39.649 148.583 39.8975 147.713 39.8975C147.228 39.8975 146.747 39.8433 146.275 39.735V38.4603C146.626 38.5367 147.021 38.575 147.455 38.575C148.548 38.575 149.325 37.9631 149.794 36.7362L150.377 35.2416L146.142 24.6836Z" fill="#F9F9F9"/>
  <path d="M97.3916 25.6595C97.8951 26.077 98.9499 26.9565 98.9499 28.6264C98.9499 30.2963 98.0289 31.0197 97.1048 31.7463C96.818 32.03 96.4897 32.3391 96.4897 32.8235C96.4897 33.3079 96.818 33.5692 97.0602 33.7668L97.8505 34.3818C98.8161 35.1945 99.6957 35.9434 99.6957 37.4571C99.6957 39.5222 97.6975 41.6064 93.9211 41.6064C90.7343 41.6064 89.1982 40.0926 89.1982 38.4642C89.1982 37.6738 89.5934 36.5552 90.8904 35.784C92.2512 34.9491 94.0964 34.8407 95.0843 34.7738C94.7752 34.3786 94.4246 33.9612 94.4246 33.2824C94.4246 32.9095 94.5362 32.6896 94.6445 32.4251C94.4023 32.4474 94.1601 32.4697 93.9402 32.4697C91.6139 32.4697 90.2945 30.7329 90.2945 29.0216C90.2945 28.0114 90.7566 26.8896 91.6999 26.077C92.9523 25.0444 94.447 24.8691 95.6325 24.8691H100.155L98.7492 25.6595H97.3884H97.3916ZM95.8332 35.4112C95.6579 35.3889 95.5464 35.3889 95.3297 35.3889C95.1321 35.3889 93.9434 35.4335 93.0224 35.7426C92.538 35.9179 91.1327 36.4437 91.1327 38.0053C91.1327 39.5668 92.6496 40.6854 94.9983 40.6854C97.1048 40.6854 98.2265 39.672 98.2265 38.3112C98.2265 37.1894 97.4999 36.5967 95.8332 35.4112ZM96.4706 31.2364C96.9741 30.7297 97.0187 30.0286 97.0187 29.6335C97.0187 28.0528 96.0754 25.5925 94.2526 25.5925C93.6821 25.5925 93.0671 25.8762 92.7133 26.3192C92.3405 26.7812 92.2289 27.374 92.2289 27.9444C92.2289 29.4167 93.0862 31.8547 94.976 31.8547C95.5241 31.8547 96.1169 31.5902 96.4706 31.2396V31.2364Z" fill="#F9F9F9"/>
  <path d="M83.5636 35.0604C80.0772 35.0604 78.2129 32.3421 78.2129 29.885C78.2129 27.0137 80.5584 24.5566 83.8918 24.5566C87.2252 24.5566 89.131 27.0774 89.131 29.7321C89.131 32.3867 87.136 35.0604 83.5604 35.0604H83.5636ZM86.3043 33.2854C86.8301 32.5843 86.9639 31.7047 86.9639 30.8506C86.9639 28.9194 86.0429 25.2354 83.3246 25.2354C82.6012 25.2354 81.8777 25.5223 81.3519 25.9812C80.4978 26.7492 80.3417 27.7116 80.3417 28.6581C80.3417 30.8283 81.4157 34.4008 84.0703 34.4008C84.9244 34.4008 85.8039 33.9865 86.3043 33.2854Z" fill="#F9F9F9"/>
  <path d="M71.6798 35.0604C68.1934 35.0604 66.3291 32.3421 66.3291 29.885C66.3291 27.0137 68.6746 24.5566 72.008 24.5566C75.3415 24.5566 77.2472 27.0774 77.2472 29.7321C77.2472 32.3867 75.2522 35.0604 71.6766 35.0604H71.6798ZM74.4205 33.2854C74.9463 32.5843 75.0801 31.7047 75.0801 30.8506C75.0801 28.9194 74.1591 25.2354 71.4408 25.2354C70.7174 25.2354 69.994 25.5223 69.4681 25.9812C68.6141 26.7492 68.4579 27.7116 68.4579 28.6581C68.4579 30.8283 69.5319 34.4008 72.1865 34.4008C73.0406 34.4008 73.9169 33.9865 74.4236 33.2854H74.4205Z" fill="#F9F9F9"/>
  <path d="M64.6533 34.7126L61.5015 35.4392C60.2236 35.6368 59.0763 35.812 57.8653 35.812C51.7785 35.812 49.4648 31.3377 49.4648 27.8322C49.4648 23.5555 52.7505 19.5879 58.372 19.5879C59.5639 19.5879 60.708 19.7632 61.7437 20.05C63.3977 20.5121 64.1689 21.0857 64.6533 21.4171L62.824 23.1571L62.0528 23.3324L62.6041 22.4497C61.8552 21.7231 60.4881 20.3782 57.8876 20.3782C54.4044 20.3782 51.7817 23.0233 51.7817 26.8826C51.7817 31.0254 54.7805 34.9293 59.5862 34.9293C60.998 34.9293 61.7246 34.6425 62.3874 34.378V30.8278L59.0604 31.0031L60.8227 30.0534H65.4978L64.9242 30.6048C64.768 30.7386 64.7489 30.7832 64.7043 30.9585C64.682 31.1561 64.6596 31.7966 64.6596 32.0165V34.7062L64.6533 34.7126Z" fill="#F9F9F9"/>
  <path d="M104.357 34.0797C103.631 34.0127 103.478 33.8821 103.478 33.0216V20.5452C103.481 20.4974 103.484 20.4496 103.49 20.4018C103.58 19.6306 103.8 19.4967 104.485 19.1016H101.33L99.6758 19.8951H101.362V32.7763V33.506C101.362 33.9458 101.276 34.0127 100.766 34.6724H104.67L105.485 34.188C105.113 34.1434 104.736 34.1211 104.36 34.0765L104.357 34.0797Z" fill="#F9F9F9"/>
  <path d="M113.329 34.2843C113.09 34.4149 112.848 34.5711 112.609 34.6795C111.886 35.0077 111.14 35.0969 110.483 35.0969C109.785 35.0969 108.689 35.0523 107.571 34.2429C106.019 33.1466 105.34 31.2632 105.34 29.622C105.34 26.228 108.1 24.5645 110.353 24.5645C111.14 24.5645 111.953 24.762 112.609 25.1763C113.702 25.8965 113.989 26.8398 114.139 27.3434L108.995 29.4244L107.309 29.555C107.854 32.3339 109.738 33.9529 111.819 33.9529C112.934 33.9529 113.747 33.5609 114.489 33.188L113.329 34.2811V34.2843ZM111.274 27.7577C111.688 27.6047 111.908 27.474 111.908 27.1681C111.908 26.2917 110.923 25.2847 109.741 25.2847C108.864 25.2847 107.223 25.9635 107.223 28.3281C107.223 28.701 107.268 29.0929 107.29 29.4881L111.274 27.7577Z" fill="#F9F9F9"/>
  <path d="M115.446 24.7123V26.1559H115.271V24.7123H114.793V24.5625H115.924V24.7123H115.446Z" fill="#F9F9F9"/>
  <path d="M117.415 26.1579V24.6983H117.405L116.959 26.1579H116.822L116.373 24.6983H116.366V26.1579H116.207V24.5645H116.481L116.886 25.8519H116.892L117.291 24.5645H117.568V26.1579H117.408H117.415Z" fill="#F9F9F9"/>
  <path d="M53.8405 15.3041H52.7442C52.7442 15.1543 52.639 14.7273 52.4319 14.023H50.8512C50.6377 14.7145 50.5293 15.1416 50.5293 15.3041H49.5C49.5 15.2148 49.7677 14.4851 50.2999 13.1115C50.8321 11.7412 51.0998 10.9859 51.0998 10.8457H52.3936C52.3936 10.9764 52.6358 11.7189 53.117 13.0797C53.5983 14.4373 53.8405 15.1798 53.8405 15.3041ZM52.2598 13.3697C51.871 12.1905 51.6734 11.5564 51.6734 11.4608H51.6192C51.6192 11.55 51.4185 12.1874 51.0137 13.3697H52.2598Z" fill="#FCFCFD"/>
  <path d="M58.2589 15.3041H57.4144C57.4144 15.2117 57.102 14.7177 56.4742 13.8222C55.8178 12.8789 55.4417 12.2352 55.3525 11.8878H55.2983C55.3557 12.3881 55.3843 12.8407 55.3843 13.2422C55.3843 13.8063 55.4003 14.4914 55.4321 15.3041H54.5908C54.6259 14.5966 54.6418 13.819 54.6418 12.9713C54.6418 12.1236 54.6259 11.4289 54.5908 10.8457H55.6074C55.6074 10.9668 55.8879 11.448 56.4519 12.2925C57.0511 13.188 57.3952 13.7967 57.4845 14.1186H57.5354C57.4813 13.6087 57.4526 13.153 57.4526 12.7482C57.4526 12.13 57.4367 11.4958 57.4048 10.8457H58.2621C58.2302 11.413 58.2142 12.1204 58.2142 12.9713C58.2142 13.8222 58.2302 14.6062 58.2621 15.3041H58.2589Z" fill="#FCFCFD"/>
  <path d="M63.22 12.9199C63.22 13.5668 63.0128 14.1341 62.5953 14.6185C62.1811 15.1029 61.5979 15.3451 60.849 15.3451C60.5112 15.3451 60.0459 15.3324 59.4531 15.3037C59.4818 14.6153 59.4977 13.8377 59.4977 12.9709C59.4977 12.1041 59.4818 11.4317 59.4531 10.8453H60.0523C60.151 10.8453 60.2976 10.8421 60.4888 10.8357C60.6832 10.8294 60.8107 10.8262 60.8681 10.8262C61.6903 10.8262 62.2894 11.0301 62.6591 11.4412C63.0287 11.8523 63.2168 12.3463 63.2168 12.9199H63.22ZM62.2862 13.0665C62.2862 12.6267 62.1587 12.2602 61.9038 11.9575C61.6489 11.6579 61.2569 11.5082 60.7342 11.5082C60.6354 11.5082 60.5016 11.5177 60.3295 11.54C60.3518 11.9957 60.3646 12.4738 60.3646 12.9709C60.3646 13.5159 60.3773 14.0576 60.3996 14.593C60.5494 14.6217 60.696 14.6376 60.8458 14.6376C61.3365 14.6376 61.6998 14.4847 61.9357 14.1819C62.1715 13.876 62.2894 13.5063 62.2894 13.0665H62.2862Z" fill="#FCFCFD"/>
  <path d="M67.793 15.3024H66.7796C66.5151 14.493 66.3112 13.9958 66.1709 13.8078C66.0307 13.6198 65.8013 13.5242 65.4858 13.5242C65.3519 13.5242 65.2276 13.5242 65.1065 13.5274C65.1065 14.1137 65.1161 14.7065 65.1384 15.3056H64.1855C64.2142 14.6173 64.2302 13.8397 64.2302 12.9729C64.2302 12.106 64.2142 11.4336 64.1855 10.8472H64.7783C64.8452 10.8472 64.9886 10.8441 65.2085 10.8377C65.4252 10.8313 65.6292 10.8281 65.814 10.8281C66.8625 10.8281 67.3851 11.185 67.3851 11.9021C67.3851 12.4693 67.0856 12.8677 66.4896 13.0908V13.1418C66.7191 13.2055 66.923 13.384 67.0951 13.6803C67.2672 13.9767 67.503 14.5185 67.7962 15.3056L67.793 15.3024ZM66.5087 12.1538C66.5087 11.7013 66.2156 11.4719 65.6324 11.4719C65.4188 11.4719 65.2276 11.4878 65.0651 11.5197C65.0906 11.8734 65.1034 12.3355 65.1034 12.9028C65.2276 12.9059 65.336 12.9091 65.422 12.9091C66.1486 12.9091 66.5119 12.6574 66.5119 12.1538H66.5087Z" fill="#FCFCFD"/>
  <path d="M72.7004 12.9928C72.7004 13.6939 72.4869 14.2739 72.0567 14.736C71.6264 15.1981 71.0974 15.4275 70.4633 15.4275C69.8291 15.4275 69.3574 15.2172 68.9495 14.7934C68.5448 14.3695 68.3408 13.8309 68.3408 13.1808C68.3408 12.4797 68.5543 11.8997 68.9846 11.4376C69.4148 10.9755 69.9438 10.7461 70.578 10.7461C71.2122 10.7461 71.6838 10.9564 72.0917 11.3803C72.4964 11.8041 72.7004 12.3395 72.7004 12.996V12.9928ZM71.7571 13.0916C71.7571 12.6136 71.636 12.228 71.3906 11.9316C71.1452 11.6352 70.8457 11.4854 70.4856 11.4854C70.1509 11.4854 69.8705 11.6352 69.6379 11.9348C69.4052 12.2343 69.2873 12.6104 69.2873 13.0693C69.2873 13.5282 69.4084 13.9297 69.6538 14.2293C69.8992 14.5257 70.1987 14.6755 70.5557 14.6755C70.8903 14.6755 71.1707 14.5257 71.4034 14.2261C71.636 13.9265 71.7539 13.5505 71.7539 13.0948L71.7571 13.0916Z" fill="#FCFCFD"/>
  <path d="M74.6348 15.3041H73.666C73.6947 14.5966 73.7106 13.819 73.7106 12.9713C73.7106 12.1236 73.6947 11.4289 73.666 10.8457H74.6348C74.6061 11.4193 74.5902 12.13 74.5902 12.9713C74.5902 13.8126 74.6061 14.6094 74.6348 15.3041Z" fill="#FCFCFD"/>
  <path d="M79.5969 12.9199C79.5969 13.5668 79.3898 14.1341 78.9723 14.6185C78.558 15.1029 77.9748 15.3451 77.2259 15.3451C76.8881 15.3451 76.4228 15.3324 75.8301 15.3037C75.8588 14.6153 75.8747 13.8377 75.8747 12.9709C75.8747 12.1041 75.8588 11.4317 75.8301 10.8453H76.4292C76.528 10.8453 76.6746 10.8421 76.869 10.8357C77.0634 10.8294 77.1909 10.8262 77.2482 10.8262C78.0704 10.8262 78.6695 11.0301 79.0392 11.4412C79.4089 11.8523 79.5969 12.3463 79.5969 12.9199ZM78.6632 13.0665C78.6632 12.6267 78.5357 12.2602 78.2808 11.9575C78.0258 11.6579 77.6338 11.5082 77.1112 11.5082C77.0124 11.5082 76.8785 11.5177 76.7065 11.54C76.7288 11.9957 76.7415 12.4738 76.7415 12.9709C76.7415 13.5159 76.7543 14.0576 76.7766 14.593C76.9263 14.6217 77.0729 14.6376 77.2227 14.6376C77.7135 14.6376 78.0768 14.4847 78.3126 14.1819C78.5484 13.876 78.6664 13.5063 78.6664 13.0665H78.6632Z" fill="#FCFCFD"/>
  <path d="M86.1803 15.3041H85.084C85.084 15.1543 84.9789 14.7273 84.7717 14.023H83.1911C82.9775 14.7145 82.8692 15.1416 82.8692 15.3041H81.8398C81.8398 15.2148 82.1075 14.4851 82.6397 13.1115C83.1719 11.7412 83.4396 10.9859 83.4396 10.8457H84.7335C84.7335 10.9764 84.9757 11.7189 85.4569 13.0797C85.9381 14.4373 86.1803 15.1798 86.1803 15.3041ZM84.5996 13.3697C84.2108 12.1905 84.0133 11.5564 84.0133 11.4608H83.9591C83.9591 11.55 83.7583 12.1874 83.3536 13.3697H84.5996Z" fill="#FCFCFD"/>
  <path d="M90.1737 12.011C90.1737 12.5559 89.9697 12.9606 89.565 13.2188C89.1603 13.4801 88.6631 13.6076 88.0736 13.6076C87.9652 13.6076 87.8887 13.6076 87.8441 13.6012C87.8441 14.0314 87.8568 14.5955 87.8823 15.2998H86.9199C86.9486 14.6401 86.9645 13.8625 86.9645 12.967C86.9645 12.1448 86.9486 11.4373 86.9199 10.8414H87.5159C87.5987 10.8414 87.7612 10.8382 88.0034 10.8318C88.2425 10.8255 88.4496 10.8223 88.6281 10.8223C89.0615 10.8223 89.428 10.9211 89.7275 11.1155C90.0271 11.313 90.1769 11.6094 90.1769 12.0078L90.1737 12.011ZM89.2909 12.199C89.2909 11.7114 88.9659 11.466 88.3189 11.466C88.1564 11.466 87.9843 11.4819 87.8059 11.517C87.8314 11.9472 87.8441 12.438 87.8441 12.9829C87.9015 12.9861 87.9684 12.9893 88.0417 12.9893C88.8734 12.9893 89.2909 12.7248 89.2909 12.199Z" fill="#FCFCFD"/>
  <path d="M94.2772 12.011C94.2772 12.5559 94.0732 12.9606 93.6685 13.2188C93.2638 13.4801 92.7666 13.6076 92.1771 13.6076C92.0687 13.6076 91.9922 13.6076 91.9476 13.6012C91.9476 14.0314 91.9604 14.5955 91.9859 15.2998H91.0234C91.0521 14.6401 91.068 13.8625 91.068 12.967C91.068 12.1448 91.0521 11.4373 91.0234 10.8414H91.6194C91.7022 10.8414 91.8648 10.8382 92.107 10.8318C92.346 10.8255 92.5531 10.8223 92.7316 10.8223C93.165 10.8223 93.5315 10.9211 93.831 11.1155C94.1306 11.313 94.2804 11.6094 94.2804 12.0078L94.2772 12.011ZM93.3944 12.199C93.3944 11.7114 93.0694 11.466 92.4225 11.466C92.2599 11.466 92.0878 11.4819 91.9094 11.517C91.9349 11.9472 91.9476 12.438 91.9476 12.9829C92.005 12.9861 92.0719 12.9893 92.1452 12.9893C92.977 12.9893 93.3944 12.7248 93.3944 12.199Z" fill="#FCFCFD"/>
  <path d="M100.994 12.9928C100.994 13.6939 100.781 14.2739 100.351 14.736C99.9204 15.1981 99.3914 15.4275 98.7572 15.4275C98.123 15.4275 97.6514 15.2172 97.2435 14.7934C96.8387 14.3695 96.6348 13.8309 96.6348 13.1808C96.6348 12.4797 96.8483 11.8997 97.2785 11.4376C97.7087 10.9755 98.2377 10.7461 98.8719 10.7461C99.5061 10.7461 99.9777 10.9564 100.386 11.3803C100.79 11.8041 100.994 12.3395 100.994 12.996V12.9928ZM100.051 13.0916C100.051 12.6136 99.9299 12.228 99.6846 11.9316C99.4392 11.6352 99.1396 11.4854 98.7795 11.4854C98.4449 11.4854 98.1644 11.6352 97.9318 11.9348C97.6992 12.2343 97.5813 12.6104 97.5813 13.0693C97.5813 13.5282 97.7023 13.9297 97.9509 14.2293C98.1963 14.5257 98.4959 14.6755 98.8528 14.6755C99.1874 14.6755 99.4679 14.5257 99.7005 14.2261C99.9331 13.9265 100.051 13.5505 100.051 13.0948V13.0916Z" fill="#FCFCFD"/>
  <path d="M105.632 15.3041H104.787C104.787 15.2117 104.475 14.7177 103.847 13.8222C103.191 12.8789 102.815 12.2352 102.726 11.8878H102.671C102.729 12.3881 102.757 12.8407 102.757 13.2422C102.757 13.8063 102.773 14.4914 102.805 15.3041H101.964C101.999 14.5966 102.015 13.819 102.015 12.9713C102.015 12.1236 101.999 11.4289 101.964 10.8457H102.98C102.98 10.9668 103.261 11.448 103.825 12.2925C104.424 13.188 104.768 13.7967 104.858 14.1186H104.909C104.854 13.6087 104.826 13.153 104.826 12.7482C104.826 12.13 104.81 11.4958 104.778 10.8457H105.635C105.603 11.413 105.587 12.1204 105.587 12.9713C105.587 13.8222 105.603 14.6062 105.635 15.3041H105.632Z" fill="#FCFCFD"/>
  <defs>
    <linearGradient id="paint0_linear_3761_22410" x1="0.00383461" y1="10.2559" x2="0.322518" y2="46.3658" gradientUnits="userSpaceOnUse">
      <stop stop-color="#2079B0"/>
      <stop offset="0.32" stop-color="#4A97B5"/>
      <stop offset="0.78" stop-color="#81BFBC"/>
      <stop offset="1" stop-color="#97CFBF"/>
    </linearGradient>
    <linearGradient id="paint1_linear_3761_22410" x1="0.00383474" y1="19.217" x2="0.322518" y2="19.217" gradientUnits="userSpaceOnUse">
      <stop stop-color="#5ABCAB"/>
      <stop offset="1" stop-color="#E6E99A"/>
    </linearGradient>
    <linearGradient id="paint2_linear_3761_22410" x1="0.00383426" y1="28.3125" x2="0.322517" y2="46.4966" gradientUnits="userSpaceOnUse">
      <stop stop-color="#E53432"/>
      <stop offset="0.18" stop-color="#D33645"/>
      <stop offset="0.73" stop-color="#A33E7C"/>
      <stop offset="1" stop-color="#904192"/>
    </linearGradient>
    <linearGradient id="paint3_linear_3761_22410" x1="0.00522639" y1="23.4609" x2="0.323909" y2="33.1585" gradientUnits="userSpaceOnUse">
      <stop stop-color="#F18779"/>
      <stop offset="0.64" stop-color="#F9B574"/>
      <stop offset="1" stop-color="#FDCB72"/>
    </linearGradient>
  </defs>
</svg>