<svg width="181" height="55" viewBox="0 0 181 55" fill="none" xmlns="http://www.w3.org/2000/svg">
<mask id="mask0_4048_21065" style="mask-type:luminance" maskUnits="userSpaceOnUse" x="0" y="0" width="181" height="55">
<path d="M180.4 0.900391H0.400391V54.4127H180.4V0.900391Z" fill="white"/>
</mask>
<g mask="url(#mask0_4048_21065)">
<path d="M173.739 54.3259H7.06222C3.40474 54.3259 0.400391 51.3215 0.400391 47.6205V7.47539C0.400391 3.81792 3.40474 0.77002 7.06222 0.77002H173.739C177.396 0.77002 180.4 3.77437 180.4 7.47539V47.6205C180.4 51.3215 177.396 54.3259 173.739 54.3259Z" fill="#010202"/>
<path d="M89.7905 30.1608C86.612 30.1608 84.1302 32.4684 84.1302 35.7776C84.1302 39.0867 86.612 41.3944 89.7905 41.3944C92.9691 41.3944 95.4509 39.0867 95.4509 35.7776C95.4509 32.4684 92.9691 30.1608 89.7905 30.1608ZM89.7905 39.2609C88.136 39.2609 86.612 37.7805 86.612 35.7776C86.612 33.7747 88.0924 32.2943 89.7905 32.2943C91.4451 32.2943 92.9691 33.6005 92.9691 35.7776C92.9691 37.7805 91.4887 39.2609 89.7905 39.2609ZM77.5119 30.1608C74.3333 30.1608 71.8515 32.4684 71.8515 35.7776C71.8515 39.0867 74.3333 41.3944 77.5119 41.3944C80.6904 41.3944 83.1722 39.0867 83.1722 35.7776C83.1722 32.4684 80.5162 30.1608 77.5119 30.1608ZM77.5119 39.2609C75.8573 39.2609 74.3334 37.7805 74.3334 35.7776C74.3334 33.7747 75.8138 32.2943 77.5119 32.2943C79.1664 32.2943 80.6904 33.6005 80.6904 35.7776C80.6468 37.7805 79.1664 39.2609 77.5119 39.2609ZM62.7078 31.8153V34.123H68.5423C68.3682 35.4293 67.8892 36.4307 67.1926 37.0838C66.3653 37.9111 65.0155 38.9126 62.7078 38.9126C59.2245 38.9126 56.3943 36.0824 56.3943 32.5991C56.3943 29.1158 59.2245 26.2856 62.7078 26.2856C64.5365 26.2856 66.0169 26.9387 67.0184 27.9401L68.673 26.2856C67.1926 24.9793 65.3638 23.8037 62.7078 23.8037C57.8747 23.8037 53.7383 27.766 53.7383 32.5991C53.7383 37.3886 57.7441 41.3944 62.7078 41.3944C65.3638 41.3944 67.3667 40.5671 68.8471 38.9126C70.5017 37.258 70.85 35.0809 70.85 33.2957C70.85 32.8168 70.85 32.2943 70.6759 31.8153C70.85 31.8153 62.7078 31.8153 62.7078 31.8153ZM122.882 33.8182C122.403 32.512 121.053 30.1608 118.049 30.1608C115.045 30.1608 112.737 32.4684 112.737 35.7776C112.737 38.9126 115.045 41.3944 118.397 41.3944C121.053 41.3944 122.534 39.7398 123.056 38.9126L121.053 37.6063C120.4 38.6078 119.573 39.0867 118.223 39.0867C116.873 39.0867 116.046 38.6078 115.567 37.4322L123.23 34.2972C123.23 34.4713 122.882 33.8182 122.882 33.8182ZM115.219 35.6034C115.219 33.4699 116.873 32.2943 118.223 32.2943C119.224 32.2943 120.052 32.7732 120.4 33.4699C120.226 33.4699 115.219 35.6034 115.219 35.6034ZM109.079 41.0896H111.561V24.5004H109.079V41.0896ZM105.117 31.467C104.464 30.8139 103.463 30.1608 102.113 30.1608C99.2826 30.1608 96.6265 32.6426 96.6265 35.7776C96.6265 38.9126 99.2826 41.438 102.113 41.438C103.463 41.438 104.595 40.7848 105.117 40.1317H105.291V40.959C105.291 43.0925 104.116 44.2682 102.287 44.2682C100.806 44.2682 99.805 43.0925 99.4567 42.2652L97.2796 43.0925C97.9328 44.5729 99.5873 46.4017 102.287 46.4017C105.291 46.4017 107.599 44.7471 107.599 40.6107V30.5091H105.291L105.117 31.467ZM102.113 39.2609C100.458 39.2609 98.9342 37.7805 98.9342 35.7776C98.9342 33.7747 100.415 32.2943 102.113 32.2943C103.767 32.2943 105.117 33.7747 105.117 35.7776C105.248 37.7805 103.941 39.2609 102.113 39.2609ZM134.508 24.5439H128.542V41.1332H131.024V34.8197H134.508C137.338 34.8197 139.994 32.8168 139.994 29.6818C139.994 26.5033 137.338 24.5439 134.508 24.5439ZM134.682 32.4684H131.198V26.8516H134.682C136.51 26.8516 137.686 28.332 137.686 29.6818C137.512 30.988 136.51 32.4684 134.682 32.4684ZM149.965 30.1608C148.136 30.1608 146.307 30.988 145.48 32.6426L147.657 33.6441C148.136 32.6426 149.007 32.4684 149.965 32.4684C151.314 32.4684 152.621 33.2957 152.621 34.602V34.7761C152.142 34.4278 151.271 34.123 149.965 34.123C147.657 34.123 145.132 35.4293 145.132 37.7805C145.132 39.914 147.135 41.438 149.268 41.438C150.923 41.438 151.924 40.6107 152.447 39.7834H152.621V41.0896H154.928V34.7761C154.972 31.8153 152.795 30.1608 149.965 30.1608ZM149.66 39.2609C148.833 39.2609 147.657 38.9126 147.657 37.9547C147.657 36.6484 149.007 36.1259 150.313 36.1259C151.489 36.1259 151.968 36.3001 152.621 36.6049C152.447 38.1288 151.14 39.2609 149.66 39.2609ZM163.767 30.4655L160.937 37.6063H160.763L157.759 30.4655H155.103L159.587 40.5671L157.105 46.0534H159.762L166.598 30.4655H163.767ZM141.344 41.0896H143.825V24.5004H141.344V41.0896Z" fill="white"/>
<path d="M14.116 11.2632C13.7677 11.6115 13.4629 12.2646 13.4629 13.0919V42.4388C13.4629 43.2661 13.6371 43.9192 14.116 44.2675L14.2902 44.4417L30.7488 28.0266V27.6783L14.116 11.2632Z" fill="url(#paint0_linear_4048_21065)"/>
<path d="M36.1913 33.4692L30.7051 27.983V27.6347L36.1913 22.1484H36.3655L42.8531 25.8059C44.6819 26.8074 44.6819 28.6361 42.8531 29.6376L36.1913 33.4692Z" fill="url(#paint1_linear_4048_21065)"/>
<path d="M36.3654 33.4699L30.7051 27.853L14.0723 44.4423C14.7254 45.0954 15.7268 45.0954 16.9025 44.4423L36.3654 33.4699Z" fill="url(#paint2_linear_4048_21065)"/>
<path d="M36.3654 22.1923L16.9025 11.2634C15.7268 10.6103 14.7254 10.7845 14.0723 11.4376L30.7051 28.0268L36.3654 22.1923Z" fill="url(#paint3_linear_4048_21065)"/>
<path d="M56.3945 9.47853C56.917 9.34791 57.8749 9.21729 58.6587 9.21729C59.8778 9.21729 60.6616 9.47853 61.3147 9.87041C61.8372 10.2623 62.0985 10.8283 62.0985 11.6121C62.0985 12.57 61.4453 13.3537 60.4874 13.7456C61.4018 14.0068 62.4903 14.7035 62.4903 16.1404C62.4903 16.9241 62.2291 17.6208 61.7066 18.0126C61.0535 18.6658 59.9649 18.9705 58.3539 18.9705C57.5701 18.9705 56.8735 18.9706 56.4816 18.8399L56.3945 9.47853ZM57.6137 13.4843H58.6587C60.0085 13.4843 60.7922 12.8312 60.7922 11.8733C60.7922 10.7848 60.0085 10.2623 58.6587 10.2623C58.1362 10.2623 57.7443 10.2623 57.6137 10.3929V13.4843ZM57.6137 18.1868C57.8749 18.1868 58.2668 18.1868 58.6587 18.1868C60.0085 18.1868 61.1841 17.6643 61.1841 16.3145C61.1841 14.9647 60.1391 14.4422 58.6587 14.4422H57.6137V18.1868Z" fill="white"/>
<path d="M67.8899 19.1011L67.7592 18.1432C67.3674 18.6657 66.7142 19.2317 65.6257 19.2317C64.1453 19.2317 63.4922 18.2738 63.4922 17.2288C63.4922 15.4871 64.9726 14.7034 67.6286 14.7034V14.5728C67.6286 14.0503 67.498 12.9617 66.0176 12.9617C65.3645 12.9617 64.6678 13.223 64.1453 13.4842L63.8841 12.7005C64.4066 12.3086 65.3645 12.0474 66.1482 12.0474C68.2817 12.0474 68.8042 13.5278 68.8042 14.8776V17.403C68.8042 18.0561 68.8042 18.6221 68.9349 19.014H67.8899V19.1011ZM67.7592 15.4871C66.4095 15.4871 64.842 15.7484 64.842 17.0982C64.842 17.8819 65.3645 18.3173 66.0611 18.3173C66.9755 18.3173 67.5415 17.7948 67.8028 17.0982C67.8028 16.9675 67.9334 16.8369 67.9334 16.7063L67.7592 15.4871Z" fill="white"/>
<path d="M72.4171 10.1314C72.4171 10.5233 72.1559 10.9151 71.6334 10.9151C71.2415 10.9151 70.8496 10.5233 70.8496 10.1314C70.8496 9.73953 71.1109 9.34766 71.6334 9.34766C72.0252 9.34766 72.4171 9.73953 72.4171 10.1314ZM70.9367 19.1009V12.1343H72.2865V19.1009H70.9367Z" fill="white"/>
<path d="M74.9426 12.134L75.857 13.6144C76.1182 14.0063 76.3795 14.3982 76.5101 14.703C76.7713 14.3111 76.902 13.9192 77.1632 13.4838L78.0776 12.0034H79.4274L77.0326 15.3561L79.4274 18.97H77.947L76.902 17.359C76.6407 16.9671 76.3795 16.5753 76.1182 16.1398C75.857 16.5317 75.5957 16.9236 75.4651 17.359L74.4201 18.97H73.0703L75.4651 15.4867L73.0703 12.134H74.9426Z" fill="white"/>
<path d="M84.8274 19.1011L84.6967 18.1432C84.3049 18.6657 83.6517 19.2317 82.5632 19.2317C81.0828 19.2317 80.4297 18.2738 80.4297 17.2288C80.4297 15.4871 81.9101 14.7034 84.5661 14.7034V14.5728C84.5661 13.9196 84.4355 12.9617 82.9551 12.9617C82.302 12.9617 81.6053 13.223 81.0828 13.4842L80.8216 12.7005C81.3441 12.3086 82.302 12.0474 83.0857 12.0474C85.2192 12.0474 85.7417 13.5278 85.7417 14.8776V17.403C85.7417 18.0561 85.7417 18.6221 85.8724 19.014H84.8274V19.1011ZM84.5226 15.4871C83.1728 15.4871 81.6053 15.7484 81.6053 17.0982C81.6053 17.8819 82.1278 18.3173 82.8245 18.3173C83.7388 18.3173 84.3049 17.7948 84.5661 17.0982C84.5661 16.9675 84.6967 16.8369 84.6967 16.7063V15.4871H84.5226Z" fill="white"/>
<path d="M87.8756 14.2676C87.8756 13.4838 87.8756 12.7872 87.8756 12.134H88.9206V13.4838C89.1818 12.5259 89.9656 12.0034 90.7928 12.0034C90.9235 12.0034 91.0541 12.0034 91.1847 12.0034V13.2226C91.0541 13.2226 90.9235 13.2226 90.7928 13.2226C89.8785 13.2226 89.3124 13.8757 89.0512 14.8336C89.0512 14.9642 89.0512 15.2255 89.0512 15.3561V19.1007H87.832V14.2676H87.8756Z" fill="white"/>
<path d="M95.6262 14.0063C95.6262 13.3532 95.6262 12.6565 95.6262 12.134H96.6711L96.8018 13.3532C97.1936 12.7001 98.0209 12.0034 99.0659 12.0034C99.9803 12.0034 101.461 12.5259 101.461 14.9642V19.1007H100.242V15.0949C100.242 14.0063 99.8497 13.092 98.6305 13.092C97.8468 13.092 97.1501 13.6144 96.8888 14.4417C96.8888 14.5724 96.7582 14.8336 96.7582 14.9642V19.1007H95.5391V14.0063H95.6262Z" fill="white"/>
<path d="M107.337 19.1011L107.207 18.1432C106.815 18.6657 106.162 19.2317 105.073 19.2317C103.593 19.2317 102.939 18.2738 102.939 17.2288C102.939 15.4871 104.42 14.7034 107.076 14.7034V14.5728C107.076 13.9196 106.945 12.9617 105.465 12.9617C104.812 12.9617 104.115 13.223 103.593 13.4842L103.331 12.7005C103.854 12.3086 104.812 12.0474 105.595 12.0474C107.729 12.0474 108.252 13.5278 108.252 14.8776V17.403C108.252 18.0561 108.251 18.6221 108.382 19.014H107.337V19.1011ZM107.076 15.4871C105.726 15.4871 104.159 15.7484 104.159 17.0982C104.159 17.8819 104.681 18.3173 105.378 18.3173C106.292 18.3173 106.858 17.7948 107.119 17.0982C107.119 16.9675 107.25 16.8369 107.25 16.7063V15.4871H107.076Z" fill="white"/>
</g>
<defs>
<linearGradient id="paint0_linear_4048_21065" x1="29.175" y1="42.91" x2="-4.92706" y2="7.88868" gradientUnits="userSpaceOnUse">
<stop stop-color="#4596D2"/>
<stop offset="0.0066" stop-color="#4597D3"/>
<stop offset="0.2601" stop-color="#3EB9EB"/>
<stop offset="0.5122" stop-color="#49C1ED"/>
<stop offset="0.7604" stop-color="#5AC3E6"/>
<stop offset="1" stop-color="#5EC4E4"/>
</linearGradient>
<linearGradient id="paint1_linear_4048_21065" x1="45.2979" y1="27.8359" x2="-5.21384" y2="27.8359" gradientUnits="userSpaceOnUse">
<stop stop-color="#FFE006"/>
<stop offset="0.4087" stop-color="#FBBC0D"/>
<stop offset="0.7754" stop-color="#F6A316"/>
<stop offset="1" stop-color="#F59A1A"/>
</linearGradient>
<linearGradient id="paint2_linear_4048_21065" x1="22.2311" y1="35.8432" x2="-24.014" y2="-11.6486" gradientUnits="userSpaceOnUse">
<stop stop-color="#E84049"/>
<stop offset="1" stop-color="#C40F62"/>
</linearGradient>
<linearGradient id="paint3_linear_4048_21065" x1="-0.677066" y1="43.436" x2="19.9734" y2="22.229" gradientUnits="userSpaceOnUse">
<stop stop-color="#30A071"/>
<stop offset="0.0685" stop-color="#2CA771"/>
<stop offset="0.4762" stop-color="#4DB26F"/>
<stop offset="0.8009" stop-color="#5FB568"/>
<stop offset="1" stop-color="#63B664"/>
</linearGradient>
</defs>
</svg>
