<svg width="181" height="55" viewBox="0 0 181 55" fill="none" xmlns="http://www.w3.org/2000/svg">
<mask id="mask0_4048_21084" style="mask-type:luminance" maskUnits="userSpaceOnUse" x="0" y="0" width="181" height="55">
<path d="M180.4 0.700195H0.400391V54.2125H180.4V0.700195Z" fill="white"/>
</mask>
<g mask="url(#mask0_4048_21084)">
<path d="M180.4 48.9005C180.4 51.8613 178.093 54.2125 175.263 54.2125H5.53827C2.70808 54.2125 0.400391 51.8178 0.400391 48.9005V6.01224C0.400391 3.05143 2.70808 0.700195 5.53827 0.700195H175.263C178.093 0.700195 180.4 3.09497 180.4 6.01224V48.9005Z" fill="#010202"/>
<path d="M36.8003 28.262C36.8003 23.9949 40.2836 21.8614 40.5449 21.6872C38.542 18.7264 35.3634 18.3346 34.2749 18.3346C31.6189 18.0733 29.0935 19.9456 27.7437 19.9456C26.3939 19.9456 24.2604 18.3346 22.1269 18.4652C19.3402 18.4652 16.6407 20.2068 15.2038 22.7322C12.1559 27.9572 14.42 35.7076 17.3373 39.9746C18.8177 42.1081 20.5158 44.3723 22.6494 44.2417C24.7829 44.1111 25.5666 42.8919 28.2662 42.8919C30.7916 42.8919 31.6189 44.2417 33.883 44.2417C36.1472 44.2417 37.6276 42.1082 39.0645 40.1053C40.8061 37.7105 41.4592 35.4028 41.4592 35.2722C41.3286 35.0545 36.9309 33.3563 36.8003 28.262Z" fill="white"/>
<path d="M32.5337 15.5477C33.7529 14.0673 34.5366 12.0644 34.2754 10.0615C32.5337 10.1921 30.5308 11.2807 29.2246 12.5869C28.1796 13.8061 27.2217 15.9396 27.4829 17.8119C29.4859 18.0731 31.3581 17.0281 32.5337 15.5477Z" fill="white"/>
<path d="M68.673 42.8485H65.6251L64.014 37.6235H58.2666L56.6556 42.8485H53.7383L59.4857 25.04H62.9691L68.673 42.8485ZM63.6222 35.49L62.1418 30.7875C62.0111 30.265 61.7499 29.1765 61.2274 27.4348C61.0968 28.2186 60.8355 29.3071 60.4437 30.7875L58.8326 35.49H63.6222Z" fill="white"/>
<path d="M83.4781 36.2734C83.4781 38.4069 82.9556 40.1486 81.7365 41.4984C80.6915 42.5869 79.3417 43.24 77.8613 43.24C76.1196 43.24 74.944 42.5869 74.2474 41.3677V48.2037H71.4607V34.2705C71.4607 32.9207 71.4607 31.4403 71.3301 30.0034H73.8555L73.9861 32.0063C74.9005 30.5259 76.3809 29.7422 78.2532 29.7422C79.7336 29.7422 81.0398 30.2647 81.9977 31.4838C82.9556 32.6595 83.4781 34.2705 83.4781 36.2734ZM80.5609 36.404C80.5609 35.1849 80.2996 34.1399 79.7771 33.3126C79.124 32.5288 78.2967 32.0934 77.2517 32.0934C76.5986 32.0934 75.9019 32.3547 75.3794 32.7465C74.8569 33.269 74.4651 33.8351 74.3344 34.6188C74.2038 35.0107 74.2038 35.2719 74.2038 35.4026V37.5361C74.2038 38.494 74.4651 39.2777 74.9876 39.9309C75.5101 40.584 76.3373 40.8888 77.2517 40.8888C78.2967 40.8888 79.124 40.4969 79.7771 39.6696C80.2996 38.8423 80.5609 37.7538 80.5609 36.404Z" fill="white"/>
<path d="M98.15 36.2734C98.15 38.4069 97.6275 40.1486 96.4083 41.4984C95.3633 42.5869 94.0136 43.24 92.5332 43.24C90.7915 43.24 89.6159 42.5869 88.9192 41.3677V48.2037H86.1326V34.2705C86.1326 32.9207 86.1326 31.4403 86.002 30.0034H88.5273L88.658 32.0063C89.5723 30.5259 91.0527 29.7422 92.925 29.7422C94.4054 29.7422 95.7117 30.2647 96.6696 31.4838C97.6275 32.6595 98.15 34.2705 98.15 36.2734ZM95.1892 36.404C95.1892 35.1849 94.9279 34.1399 94.4054 33.3126C93.7523 32.5288 92.925 32.0934 91.88 32.0934C91.2269 32.0934 90.5303 32.3547 90.0078 32.7465C89.4853 33.269 89.0934 33.8351 88.9628 34.6188C88.8321 35.0107 88.8321 35.2719 88.8321 35.4026V37.5361C88.8321 38.494 89.0934 39.2777 89.6159 39.9309C90.1384 40.584 90.9657 40.8888 91.88 40.8888C92.925 40.8888 93.7523 40.4969 94.4054 39.6696C94.9279 38.8423 95.1892 37.7538 95.1892 36.404Z" fill="white"/>
<path d="M114.523 37.8847C114.523 39.3651 114 40.7149 112.912 41.6293C111.692 42.7178 110.125 43.2403 108.122 43.2403C106.25 43.2403 104.639 42.8485 103.594 42.1518L104.247 39.757C105.466 40.5408 106.903 40.9762 108.383 40.9762C109.428 40.9762 110.256 40.7149 110.909 40.3231C111.431 39.8006 111.823 39.2345 111.823 38.3202C111.823 37.667 111.562 36.9704 111.039 36.4479C110.517 35.9254 109.69 35.49 108.645 35.0981C105.597 33.8789 103.986 32.2679 103.986 30.0038C103.986 28.5233 104.508 27.3477 105.597 26.3898C106.642 25.4319 108.122 25.04 109.994 25.04C111.605 25.04 112.912 25.3013 114 25.8238L113.216 27.9573C112.171 27.4348 111.083 27.1736 109.864 27.1736C108.819 27.1736 108.122 27.4348 107.469 27.9573C106.946 28.3492 106.816 28.9152 106.816 29.5683C106.816 30.2215 107.077 30.9181 107.6 31.31C108.122 31.7019 108.949 32.2679 110.125 32.6598C111.605 33.3129 112.781 34.0096 113.478 34.7933C114.261 35.6206 114.523 36.6656 114.523 37.8847Z" fill="white"/>
<path d="M124.015 32.1372H120.967V38.4072C120.967 40.0182 121.489 40.802 122.578 40.802C123.1 40.802 123.492 40.802 123.797 40.6713L123.928 42.8049C123.405 43.0661 122.578 43.0661 121.663 43.0661C120.618 43.0661 119.66 42.6742 119.007 41.9776C118.354 41.3245 118.093 40.1053 118.093 38.4943V32.0937H116.221V30.0037H118.093V27.6089L120.88 26.8252V30.0473H123.928C124.015 30.0037 124.015 32.1372 124.015 32.1372Z" fill="white"/>
<path d="M138.165 36.2735C138.165 38.2764 137.642 39.8874 136.423 41.1066C135.204 42.4564 133.636 43.1095 131.764 43.1095C129.892 43.1095 128.411 42.4564 127.236 41.2372C126.017 40.018 125.494 38.407 125.494 36.5347C125.494 34.5318 126.017 32.9208 127.236 31.571C128.455 30.3519 129.892 29.6987 131.895 29.6987C133.767 29.6987 135.247 30.3519 136.423 31.571C137.599 32.7902 138.165 34.4012 138.165 36.2735ZM135.204 36.4041C135.204 35.185 134.943 34.2706 134.42 33.3127C133.898 32.2241 132.94 31.8323 131.895 31.8323C130.676 31.8323 129.892 32.3548 129.239 33.3127C128.716 34.0964 128.455 35.185 128.455 36.4041C128.455 37.6233 128.716 38.5376 129.239 39.4955C129.892 40.5841 130.719 40.976 131.764 40.976C132.809 40.976 133.767 40.4535 134.289 39.3649C134.943 38.5376 135.204 37.6233 135.204 36.4041Z" fill="white"/>
<path d="M147.352 32.5288C147.091 32.5288 146.83 32.3982 146.438 32.3982C145.393 32.3982 144.696 32.7901 144.174 33.6174C143.651 34.2705 143.521 35.0978 143.521 36.1428V42.8481H140.734V34.0092C140.734 32.5288 140.734 31.1791 140.604 30.0034H143.129L143.26 32.3982H143.39C143.651 31.6145 144.174 30.9178 144.871 30.3953C145.524 30.0034 146.22 29.7422 146.873 29.7422C147.135 29.7422 147.396 29.7422 147.527 29.7422C147.352 29.8728 147.352 32.5288 147.352 32.5288Z" fill="white"/>
<path d="M160.154 35.8815C160.154 36.404 160.155 36.8394 160.024 37.2313H151.49C151.49 38.4504 151.882 39.4954 152.709 40.1921C153.362 40.7146 154.32 41.15 155.496 41.15C156.715 41.15 157.89 40.8888 158.979 40.4969L159.371 42.4998C158.152 43.0223 156.715 43.2835 155.104 43.2835C153.101 43.2835 151.49 42.761 150.445 41.5419C149.4 40.3227 148.703 38.8859 148.703 36.8394C148.703 34.9671 149.226 33.2255 150.314 32.0063C151.359 30.6565 152.84 30.0034 154.842 30.0034C156.715 30.0034 158.021 30.6565 158.979 32.0063C159.763 32.7901 160.154 34.2705 160.154 35.8815ZM157.324 35.0978C157.324 34.314 157.194 33.4867 156.802 32.9642C156.279 32.1805 155.583 31.7451 154.538 31.7451C153.623 31.7451 152.796 32.1369 152.274 32.9642C151.751 33.6173 151.49 34.314 151.49 35.2284L157.324 35.0978Z" fill="white"/>
<path d="M56.3945 9.27785C56.917 9.14723 57.8749 9.0166 58.6587 9.0166C59.8778 9.0166 60.6616 9.27785 61.3147 9.66972C61.8372 10.0616 62.0985 10.6276 62.0985 11.4114C62.0985 12.3693 61.4453 13.153 60.4874 13.5449C61.4018 13.8062 62.4903 14.5028 62.4903 15.9397C62.4903 16.7234 62.2291 17.4201 61.7066 17.812C61.0535 18.4651 59.9649 18.7699 58.3539 18.7699C57.5701 18.7699 56.8735 18.7699 56.4816 18.6392L56.3945 9.27785ZM57.6137 13.2837H58.6587C60.0085 13.2837 60.7922 12.6305 60.7922 11.6726C60.7922 10.5841 60.0085 10.0616 58.6587 10.0616C58.1362 10.0616 57.7443 10.0616 57.6137 10.1922V13.2837ZM57.6137 17.9426C57.8749 17.9426 58.2668 17.9426 58.6587 17.9426C60.0085 17.9426 61.1841 17.4201 61.1841 16.0703C61.1841 14.7205 60.1391 14.198 58.6587 14.198H57.6137V17.9426Z" fill="white"/>
<path d="M67.8899 18.9005L67.7592 17.9425C67.3674 18.465 66.7142 19.0311 65.6257 19.0311C64.1453 19.0311 63.4922 18.0732 63.4922 17.0282C63.4922 15.2865 64.9726 14.5028 67.6286 14.5028V14.3286C67.6286 13.8061 67.498 12.7176 66.0176 12.7176C65.3645 12.7176 64.6678 12.9788 64.1453 13.2401L63.8841 12.4563C64.4066 12.0645 65.3645 11.8032 66.1482 11.8032C68.2817 11.8032 68.8042 13.2836 68.8042 14.6334V17.1588C68.8042 17.8119 68.8042 18.378 68.9349 18.7698H67.8899V18.9005ZM67.7592 15.2865C66.4095 15.2865 64.842 15.5478 64.842 16.8976C64.842 17.6813 65.3645 18.1167 66.0611 18.1167C66.9755 18.1167 67.5415 17.5942 67.8028 16.8976C67.8028 16.7669 67.9334 16.6363 67.9334 16.5057L67.7592 15.2865Z" fill="white"/>
<path d="M72.4171 9.93129C72.4171 10.3232 72.1559 10.715 71.6334 10.715C71.2415 10.715 70.8496 10.3232 70.8496 9.93129C70.8496 9.53942 71.1109 9.14755 71.6334 9.14755C72.0252 9.10401 72.4171 9.53942 72.4171 9.93129ZM70.9367 18.9008V11.9342H72.2865V18.9008H70.9367Z" fill="white"/>
<path d="M74.9426 11.9338L75.857 13.4142C76.1182 13.8061 76.3795 14.198 76.5101 14.5028C76.7713 14.1109 76.902 13.719 77.1632 13.2836L78.0776 11.8032H79.4274L77.0326 15.1559L79.4274 18.7698H77.947L76.902 17.1588C76.6407 16.7669 76.3795 16.3751 76.1182 15.9397C75.857 16.3315 75.5957 16.7234 75.4651 17.1588L74.4201 18.7698H73.0703L75.4651 15.2865L73.0703 11.9338H74.9426Z" fill="white"/>
<path d="M84.8274 18.9005L84.6967 17.9425C84.3049 18.465 83.6517 19.0311 82.5632 19.0311C81.0828 19.0311 80.4297 18.0732 80.4297 17.0282C80.4297 15.2865 81.9101 14.5028 84.5661 14.5028V14.3286C84.5661 13.6755 84.4355 12.7176 82.9551 12.7176C82.302 12.7176 81.6053 12.9788 81.0828 13.2401L80.8216 12.4563C81.3441 12.0645 82.302 11.8032 83.0857 11.8032C85.2192 11.8032 85.7417 13.2836 85.7417 14.6334V17.1588C85.7417 17.8119 85.7417 18.378 85.8724 18.7698H84.8274V18.9005ZM84.5226 15.2865C83.1728 15.2865 81.6053 15.5478 81.6053 16.8976C81.6053 17.6813 82.1278 18.1167 82.8245 18.1167C83.7388 18.1167 84.3049 17.5942 84.5661 16.8976C84.5661 16.7669 84.6967 16.6363 84.6967 16.5057V15.2865H84.5226Z" fill="white"/>
<path d="M87.8756 14.0674C87.8756 13.2836 87.8756 12.587 87.8756 11.9338H88.9206V13.2836C89.1818 12.3257 89.9656 11.8032 90.7928 11.8032C90.9235 11.8032 91.0541 11.8032 91.1847 11.8032V13.0224C91.0541 13.0224 90.9235 13.0224 90.7928 13.0224C89.8785 13.0224 89.3124 13.6755 89.0512 14.6334C89.0512 14.764 89.0512 15.0253 89.0512 15.1559V18.9005H87.832V14.0674H87.8756Z" fill="white"/>
<path d="M95.6262 13.8061C95.6262 13.153 95.6262 12.4563 95.6262 11.9338H96.6711L96.8018 13.153C97.1936 12.4999 98.0209 11.8032 99.0659 11.8032C99.9803 11.8032 101.461 12.3257 101.461 14.764V18.9005H100.242V14.8946C100.242 13.8061 99.8497 12.8918 98.6305 12.8918C97.8468 12.8918 97.1501 13.4142 96.8888 14.2415C96.8888 14.3722 96.7582 14.6334 96.7582 14.764V18.9005H95.5391V13.8061H95.6262Z" fill="white"/>
<path d="M107.337 18.9005L107.207 17.9425C106.815 18.465 106.162 19.0311 105.073 19.0311C103.593 19.0311 102.939 18.0732 102.939 17.0282C102.939 15.2865 104.42 14.5028 107.076 14.5028V14.3286C107.076 13.6755 106.945 12.7176 105.465 12.7176C104.812 12.7176 104.115 12.9788 103.593 13.2401L103.331 12.4563C103.854 12.0645 104.812 11.8032 105.595 11.8032C107.729 11.8032 108.252 13.2836 108.252 14.6334V17.1588C108.252 17.8119 108.251 18.378 108.382 18.7698H107.337V18.9005ZM107.076 15.2865C105.726 15.2865 104.159 15.5478 104.159 16.8976C104.159 17.6813 104.681 18.1167 105.378 18.1167C106.292 18.1167 106.858 17.5942 107.119 16.8976C107.119 16.7669 107.25 16.6363 107.25 16.5057V15.2865H107.076Z" fill="white"/>
</g>
</svg>
