<svg width="584" height="584" viewBox="0 0 584 584" fill="none" xmlns="http://www.w3.org/2000/svg">
<path d="M325.217 539.684C305.081 530.153 297.057 507.494 294.219 486.388C293.74 482.884 292.735 479.24 293.88 475.876C295.025 472.512 298.552 469.767 301.939 470.713C304.754 471.496 306.401 474.322 308.281 476.553C310.782 479.563 314.088 481.799 317.812 483.001C320.242 483.783 323.127 484.029 325.124 482.44C327.857 480.256 327.46 476.028 326.899 472.547C325.755 466.092 324.633 459.637 323.535 453.182C322.744 449.737 322.511 446.188 322.846 442.67C323.36 439.166 325.241 435.662 328.394 434.213C331.548 432.765 335.975 433.945 337.248 437.238C337.623 438.655 337.904 440.095 338.089 441.548C338.427 442.985 339.374 444.468 340.81 444.644C342.247 444.819 343.497 443.592 344.373 442.389C347.363 438.266 349.045 433.326 350.563 428.432C352.081 423.538 353.506 418.55 356.123 414.159C358.739 409.767 362.734 405.983 367.674 404.815C372.615 403.647 378.455 405.866 380.522 410.55C382.59 415.233 380.592 420.711 378.186 425.22C374.532 431.896 369.933 438.009 364.532 443.37C363.455 444.229 362.678 445.406 362.313 446.734C361.951 449.187 364.544 451.126 366.985 451.5C369.718 451.92 372.498 451.173 375.266 451.033C378.034 450.892 381.176 451.593 382.648 453.988C384.669 457.305 382.321 461.545 379.81 464.5C374.766 470.387 368.749 475.365 362.021 479.216C359.615 480.583 357.057 481.868 355.293 484.017C353.53 486.166 352.817 489.506 354.476 491.749C356.134 493.992 359.486 494.237 362.079 493.279C364.672 492.321 366.833 490.464 369.228 489.074C373.713 486.458 379.95 485.734 383.722 489.355C384.899 490.621 385.766 492.143 386.254 493.8C386.743 495.458 386.84 497.207 386.537 498.909C385.916 502.299 384.617 505.529 382.718 508.405C376.669 518.803 367.972 527.411 357.513 533.353C347.059 539.076 336.944 541.868 325.229 539.695" fill="#F5F5F5"/>
<path d="M328.406 525.599C329.955 513.578 332.194 501.657 335.111 489.893L337.353 480.631C338.089 477.582 338.825 474.569 339.689 471.672C341.436 466.113 343.487 460.654 345.833 455.32C348.04 450.204 350.318 445.415 352.479 440.965C354.64 436.515 356.754 432.404 358.833 428.748C362.078 422.949 365.781 417.419 369.905 412.209C371.365 410.364 372.545 408.974 373.351 408.039C373.736 407.596 374.052 407.245 374.274 406.977C374.496 406.708 374.601 406.626 374.612 406.638C374.528 406.772 374.434 406.901 374.332 407.023L373.444 408.121C372.673 409.079 371.529 410.457 370.104 412.361C366.069 417.622 362.434 423.178 359.23 428.982C357.186 432.649 355.107 436.761 352.958 441.211C350.808 445.661 348.566 450.449 346.382 455.565C344.056 460.899 342.028 466.358 340.308 471.917C339.409 474.802 338.685 477.757 337.972 480.841L335.73 490.115C332.819 501.854 330.569 513.747 328.99 525.739" fill="#E0E0E0"/>
<path d="M339.887 471.626C339.634 471.171 339.434 470.689 339.292 470.189C338.941 469.266 338.486 467.853 337.948 466.206C336.874 462.819 335.542 458.089 334.094 452.879C332.646 447.67 331.256 442.963 330.123 439.611C329.562 437.929 329.095 436.562 328.768 435.64C328.572 435.16 328.419 434.663 328.312 434.156C328.594 434.592 328.826 435.058 329.002 435.546C329.41 436.446 329.936 437.789 330.555 439.447C331.805 442.788 333.265 447.471 334.725 452.704C336.185 457.937 337.411 462.515 338.392 466.066C338.848 467.678 339.222 469.033 339.56 470.119C339.713 470.611 339.823 471.115 339.887 471.626Z" fill="#E0E0E0"/>
<path d="M383.279 455.672C382.715 455.907 382.127 456.083 381.527 456.197C380.359 456.489 378.759 456.91 376.75 457.494C372.72 458.662 367.219 460.391 361.227 462.61C355.235 464.829 349.897 467.083 346.043 468.812C344.127 469.665 342.597 470.4 341.534 470.903C341 471.193 340.442 471.436 339.864 471.627C340.347 471.254 340.868 470.933 341.418 470.669C342.446 470.097 343.952 469.302 345.844 468.333C349.617 466.488 354.943 464.163 360.947 461.932C366.071 460.015 371.291 458.366 376.586 456.992C378.618 456.454 380.277 456.104 381.433 455.882C382.041 455.755 382.658 455.684 383.279 455.672Z" fill="#E0E0E0"/>
<path d="M328.815 524.698C328.665 524.545 328.532 524.377 328.418 524.196L327.378 522.712C326.479 521.404 325.229 519.5 323.722 517.118C320.686 512.352 316.714 505.636 312.428 498.161C308.141 490.686 304.252 483.946 301.297 479.134L297.793 473.423L296.858 471.869C296.735 471.697 296.637 471.508 296.566 471.309C296.566 471.309 296.718 471.46 296.964 471.799C297.209 472.138 297.594 472.687 298.003 473.294C298.902 474.591 300.152 476.495 301.671 478.889C304.696 483.654 308.679 490.359 312.965 497.834C317.252 505.309 321.141 512.048 324.084 516.872L327.588 522.572C327.962 523.191 328.278 523.74 328.523 524.126C328.648 524.301 328.747 524.494 328.815 524.698Z" fill="#E0E0E0"/>
<path d="M385.09 495.441C384.925 495.585 384.74 495.703 384.541 495.792L382.917 496.656L376.89 499.798C371.798 502.461 364.813 506.21 357.104 510.31C349.395 514.41 342.376 518.159 337.248 520.705C334.679 521.978 332.576 523.041 331.128 523.66L329.376 524.431C329.184 524.533 328.98 524.612 328.769 524.665C328.936 524.525 329.12 524.407 329.318 524.314L330.953 523.45L336.98 520.296C342.06 517.645 349.045 513.896 356.754 509.784C364.463 505.673 371.494 501.947 376.61 499.401C379.179 498.128 381.282 497.065 382.73 496.446L384.412 495.675C384.625 495.563 384.853 495.484 385.09 495.441Z" fill="#E0E0E0"/>
<path d="M179.171 288.975C179.171 288.975 165.295 290.902 173.085 321.294C180.876 351.685 187.487 367.36 187.487 367.36C187.487 367.36 188.526 374.239 182.978 374.029C177.43 373.819 166.112 369.357 162.27 375.302C158.298 381.516 161.779 388.991 170.446 396.828C179.112 404.666 197.59 422.524 199.249 424.148C200.907 425.771 202.122 429.112 198.314 429.567C194.506 430.023 167.502 426.858 166.778 439.764C166.054 452.67 193.887 470.517 196.889 472.526C199.891 474.535 200.393 476.1 199.692 477.852C198.992 479.604 190.045 477.677 182.324 477.081C174.604 476.486 165.54 477.175 165.739 484.65C165.937 492.125 180.561 511.047 223.193 525.11L243.387 530.331L258.303 515.637C288.32 482.244 291.602 458.569 288.063 451.981C284.524 445.394 276.383 449.306 269.913 453.651C263.442 457.996 256.667 464.163 255.219 462.995C253.771 461.827 253.397 460.216 255.009 456.98C256.621 453.745 271.91 424.428 264.855 413.589C257.8 402.75 235.935 418.892 232.431 420.375C228.927 421.858 228.297 418.331 228.927 416.135C229.558 413.939 236.683 389.271 240.35 378.117C244.018 366.962 243.317 358.763 236.776 355.353C230.469 352.07 222.889 361.601 218.17 364.545C213.451 367.488 210.952 361.041 210.952 361.041C210.952 361.041 208.896 344.163 200.557 313.912C192.217 283.661 178.914 289.08 178.914 289.08" fill="#EBEBEB"/>
<path d="M243.376 535.351C237.337 513.159 227.257 473.447 218.439 439.353C209.62 405.259 201.608 374.517 195.674 352.255C192.708 341.136 190.302 332.142 188.666 325.894C187.849 322.798 187.206 320.381 186.763 318.722L186.272 316.853C186.167 316.433 186.132 316.211 186.132 316.211C186.132 316.211 186.214 316.409 186.342 316.83C186.471 317.25 186.646 317.893 186.879 318.687C187.358 320.346 188.047 322.74 188.912 325.824C190.664 332.026 193.14 341.008 196.153 352.127C202.192 374.319 210.286 405.166 219.104 439.19C227.923 473.213 237.921 512.961 243.854 535.223" fill="#E0E0E0"/>
<path d="M177.852 382.238C178.318 382.431 178.764 382.669 179.183 382.951C180.012 383.441 181.204 384.189 182.687 385.123C185.595 387.004 189.555 389.702 193.865 392.75L204.867 400.599L208.22 402.935C208.642 403.198 209.034 403.508 209.388 403.858C208.916 403.668 208.466 403.429 208.044 403.145C207.215 402.655 206.024 401.907 204.54 400.961C201.655 399.057 197.731 396.289 193.421 393.253L182.36 385.485L178.996 383.149C178.583 382.887 178.2 382.582 177.852 382.238Z" fill="#E0E0E0"/>
<path d="M211.08 402.889C210.929 402.796 216.126 394.398 222.679 384.131C229.231 373.864 234.686 365.618 234.838 365.712C234.989 365.805 229.792 374.215 223.228 384.481C216.663 394.748 211.232 402.959 211.08 402.889Z" fill="#E0E0E0"/>
<path d="M222.271 455.774C222.594 455.371 222.967 455.01 223.38 454.699L226.522 451.943C229.173 449.607 232.829 446.383 236.73 442.669C240.631 438.955 244.065 435.486 246.518 432.951C247.686 431.783 248.644 430.744 249.427 429.95C249.78 429.558 250.171 429.202 250.595 428.887C250.336 429.333 250.022 429.745 249.66 430.113C249.029 430.872 248.083 431.947 246.892 433.255C244.556 435.883 241.145 439.422 237.221 443.136C233.296 446.851 229.606 450.051 226.872 452.293C225.494 453.461 224.373 454.302 223.579 454.898C223.176 455.237 222.738 455.531 222.271 455.774Z" fill="#E0E0E0"/>
<path d="M188.106 443.711C188.578 443.767 189.041 443.881 189.485 444.05L193.187 445.218C196.294 446.21 200.581 447.624 205.299 449.212C210.018 450.801 214.281 452.296 217.353 453.405L220.986 454.737C221.438 454.878 221.873 455.07 222.282 455.309C221.81 455.261 221.347 455.151 220.904 454.982L217.201 453.814C214.094 452.821 209.808 451.408 205.089 449.808C200.37 448.208 196.107 446.724 193.035 445.626L189.403 444.283C188.947 444.151 188.511 443.959 188.106 443.711Z" fill="#E0E0E0"/>
<path d="M192.054 491.656C192.655 491.746 193.245 491.895 193.817 492.1L198.559 493.548C202.554 494.798 208.055 496.562 214.129 498.559C220.203 500.556 225.68 502.378 229.64 503.745L234.312 505.38C234.893 505.566 235.459 505.797 236.006 506.069C235.401 505.981 234.806 505.832 234.23 505.626L229.488 504.177C225.494 502.927 219.992 501.164 213.919 499.166C207.845 497.169 202.367 495.335 198.419 493.981L193.747 492.334C193.164 492.159 192.597 491.933 192.054 491.656Z" fill="#E0E0E0"/>
<path d="M235.048 505.427C235.459 504.922 235.917 504.456 236.414 504.037L240.28 500.404C243.539 497.332 248.024 493.069 252.848 488.222C257.672 483.375 261.935 478.878 264.995 475.608L268.616 471.73C269.042 471.234 269.507 470.774 270.006 470.352C269.666 470.901 269.275 471.417 268.838 471.893C268.044 472.863 266.852 474.229 265.334 475.911C262.356 479.275 258.151 483.83 253.304 488.677C248.456 493.525 243.96 497.753 240.596 500.743C238.914 502.226 237.547 503.429 236.578 504.247C236.102 504.682 235.59 505.077 235.048 505.427Z" fill="#E0E0E0"/>
<path d="M118.902 107.736L107.503 104.232C107.503 104.232 104.513 113.81 94.5145 110.878C92.5788 110.345 90.8568 109.224 89.5866 107.669C88.3164 106.114 87.5609 104.203 87.4247 102.2C87.275 100.511 87.5308 98.8103 88.1707 97.24C88.8107 95.6696 89.8163 94.2747 91.1039 93.1713C94.0356 90.5783 99.1748 89.0015 106.428 92.7508L114.452 67.0548L103.181 63.5508L98.509 78.6063C98.509 78.6063 81.4095 77.7537 75.9783 95.1685C70.7807 111.836 84.5164 120.374 90.917 122.371C95.7759 123.89 112.84 127.908 118.902 107.736Z" fill="#F5F5F5"/>
<path d="M104.708 58.1999L116.147 61.7695L119.481 51.088L108.041 47.5184L104.708 58.1999Z" fill="#F5F5F5"/>
<path d="M150.356 78.7234L154.923 77.5554C154.783 77.0367 154.75 76.4953 154.824 75.9634C154.898 75.4315 155.078 74.9199 155.354 74.4589C155.629 73.998 155.995 73.5973 156.428 73.2804C156.862 72.9636 157.355 72.7372 157.878 72.6147C158.639 72.385 159.452 72.3977 160.206 72.6509C160.959 72.9041 161.615 73.3854 162.083 74.028C162.48 74.5616 162.745 75.1816 162.857 75.8373C162.968 76.4929 162.923 77.1657 162.725 77.8007C162.293 79.284 160.903 80.8959 157.679 81.1645L160.401 91.4546L164.909 90.2866L163.321 84.2597C165.03 83.2285 166.354 81.6635 167.086 79.8061C167.818 77.9487 167.92 75.9019 167.374 73.9813C165.622 67.3003 159.198 67.3354 156.663 68.0011C154.701 68.4567 148.148 70.6875 150.356 78.7234Z" fill="#EBEBEB"/>
<path d="M166.5 91.7866L161.9 93.0195L163.051 97.3135L167.651 96.0805L166.5 91.7866Z" fill="#EBEBEB"/>
<path d="M527.398 196.936L531.837 198.536C532.023 198.034 532.308 197.574 532.675 197.183C533.042 196.792 533.483 196.479 533.973 196.261C534.462 196.043 534.991 195.926 535.527 195.915C536.062 195.905 536.595 196.002 537.093 196.2C537.84 196.441 538.495 196.907 538.968 197.534C539.441 198.161 539.708 198.919 539.733 199.704C539.76 200.374 539.628 201.041 539.348 201.65C539.068 202.259 538.647 202.793 538.121 203.208C536.953 204.178 534.862 204.704 532.059 203.092L528.426 213.101L532.818 214.69L534.944 208.85C536.937 208.973 538.916 208.439 540.577 207.329C542.237 206.22 543.488 204.595 544.136 202.706C546.472 196.212 541.204 192.603 538.716 191.704C536.813 190.956 530.155 189.076 527.398 196.936Z" fill="#EBEBEB"/>
<path d="M532.161 216.716L527.702 215.102L526.195 219.264L530.653 220.879L532.161 216.716Z" fill="#EBEBEB"/>
<path d="M56.3674 247.766L65.7114 244.145C65.7114 244.145 62.6746 236.261 70.8156 232.956C72.3736 232.297 74.0978 232.137 75.7505 232.499C77.4031 232.861 78.9028 233.727 80.0428 234.977C81.0126 236.016 81.7233 237.27 82.1171 238.636C82.5108 240.002 82.5765 241.441 82.3087 242.837C81.7247 246.084 79.1551 249.845 72.3924 251.142L80.5684 272.318L89.9124 268.743L85.1235 256.339C85.1235 256.339 96.8036 247.953 91.3256 233.587C86.0112 219.851 72.4157 221.416 67.1948 223.437C63.1652 224.99 49.8032 231.262 56.3674 247.766Z" fill="#F5F5F5"/>
<path d="M91.6826 273.055L82.2549 276.688L85.6477 285.494L95.0754 281.862L91.6826 273.055Z" fill="#F5F5F5"/>
<path d="M531.054 283.403L524.396 285.961C524.396 285.961 526.545 291.556 520.775 293.892C519.671 294.354 518.451 294.464 517.281 294.21C516.111 293.955 515.047 293.346 514.235 292.467C513.548 291.73 513.044 290.841 512.766 289.873C512.488 288.905 512.443 287.885 512.635 286.896C513.055 284.56 514.877 281.943 519.643 281.056L513.919 266L507.332 268.535L510.719 277.33C508.322 279.164 506.593 281.735 505.8 284.647C505.006 287.559 505.192 290.651 506.327 293.448C510.077 303.177 519.678 302.08 523.415 300.643C526.242 299.533 535.703 295.095 531.054 283.403Z" fill="#F5F5F5"/>
<path d="M506.029 265.484L512.71 262.91L510.308 256.676L503.627 259.25L506.029 265.484Z" fill="#F5F5F5"/>
<path d="M549.859 541.683C549.859 541.858 434.403 541.986 292.012 541.986C149.621 541.986 34.1406 541.858 34.1406 541.683C34.1406 541.507 149.574 541.379 292.012 541.379C434.449 541.379 549.859 541.519 549.859 541.683Z" fill="#263238"/>
<path d="M108.203 511.35C109.371 507.052 106.486 502.742 103.332 499.67C100.179 496.599 96.4062 493.772 94.7594 489.649C92.0963 482.968 95.6704 474.325 91.1386 468.753C88.4638 465.483 83.6751 464.385 81.304 460.881C80.2077 458.95 79.4828 456.83 79.1666 454.632C76.6463 443.536 71.188 433.321 63.3635 425.059C62.8361 434.943 64.9784 444.787 69.5656 453.558C71.3994 457.062 73.6653 460.472 74.2376 464.385C75.2304 470.727 71.6797 477.233 73.2448 483.494C75.0318 490.618 83.0327 495.396 83.4064 502.731C83.7335 508.933 78.3256 514.411 78.7344 520.578C79.062 523.219 80.0193 525.742 81.5259 527.936C86.3147 535.913 93.3695 541.403 104.045 541.228L117.127 541.683L108.203 511.35Z" fill="#FC2D3F"/>
<g opacity="0.3">
<path d="M108.203 511.35C109.371 507.052 106.486 502.742 103.332 499.67C100.179 496.599 96.4062 493.772 94.7594 489.649C92.0963 482.968 95.6704 474.325 91.1386 468.753C88.4638 465.483 83.6751 464.385 81.304 460.881C80.2077 458.95 79.4828 456.83 79.1666 454.632C76.6463 443.536 71.188 433.321 63.3635 425.059C62.8361 434.943 64.9784 444.787 69.5656 453.558C71.3994 457.062 73.6653 460.472 74.2376 464.385C75.2304 470.727 71.6797 477.233 73.2448 483.494C75.0318 490.618 83.0327 495.396 83.4064 502.731C83.7335 508.933 78.3256 514.411 78.7344 520.578C79.062 523.219 80.0193 525.742 81.5259 527.936C86.3147 535.913 93.3695 541.403 104.045 541.228L117.127 541.683L108.203 511.35Z" fill="black"/>
</g>
<path d="M119.766 541.951C120.964 542.136 122.185 542.112 123.375 541.881C124.82 541.661 126.24 541.302 127.615 540.807C129.514 540.146 131.29 539.175 132.871 537.933C133.822 537.168 134.565 536.176 135.032 535.048C135.422 533.784 135.627 532.47 135.639 531.147C135.665 529.733 135.771 528.322 135.955 526.919C136.201 525.426 136.741 523.997 137.543 522.714C139.085 520.005 141.654 517.435 142.472 513.756C143.29 510.077 142.729 506.222 142.122 502.298C141.514 498.373 140.954 494.122 142.425 490.01C143.897 485.899 146.7 482.22 148.137 477.618C149.573 473.016 148.896 467.947 149.2 463.006C149.289 460.496 149.869 458.029 150.905 455.741C151.956 453.405 153.428 451.244 154.572 448.815C156.908 443.886 157.306 438.303 157.936 432.825C158.252 430.069 158.555 427.277 158.871 424.474C159.069 421.64 159.559 418.833 160.331 416.099C161.217 413.343 162.262 410.64 163.461 408.005C164.078 406.642 164.586 405.232 164.979 403.789C165.199 402.294 165.34 400.789 165.4 399.28C165.539 396.258 165.422 393.23 165.049 390.228C164.699 387.215 164.15 384.225 163.823 381.199C163.823 381.013 163.823 380.837 163.823 380.674L163.753 380.078L163.227 380.335C160.466 381.752 158.068 383.787 156.219 386.28C154.406 388.722 152.948 391.408 151.886 394.258C149.702 399.876 148.919 405.762 147.821 411.381C146.723 416.999 145.322 422.523 142.449 427.195C141.012 429.531 139.272 431.657 137.777 433.923C136.153 436.134 135.044 438.68 134.53 441.375C133.747 446.911 136.795 451.77 136.165 456.676C135.88 459.079 135.084 461.393 133.829 463.462C132.661 465.552 131.247 467.491 129.916 469.43C128.566 471.332 127.393 473.353 126.412 475.469C125.488 477.539 124.942 479.758 124.8 482.021C124.485 486.436 125.104 490.618 124.8 494.565C124.435 498.328 123.336 501.983 121.565 505.323C119.988 508.535 118.224 511.443 116.753 514.27C116.017 515.671 115.328 517.049 114.767 518.439C114.236 519.774 113.845 521.159 113.599 522.574C113.208 525.044 113.177 527.558 113.506 530.038C113.849 533.495 115.142 536.79 117.243 539.557C117.564 539.975 117.92 540.366 118.306 540.725C118.564 540.996 118.85 541.238 119.159 541.449C119.649 541.811 119.906 541.975 119.906 541.975C118.972 541.237 118.123 540.398 117.372 539.475C115.366 536.698 114.155 533.428 113.868 530.014C113.57 527.566 113.625 525.088 114.031 522.656C114.277 521.275 114.669 519.924 115.199 518.626C115.791 517.221 116.458 515.849 117.196 514.515C118.68 511.712 120.455 508.815 122.067 505.58C123.891 502.188 125.027 498.468 125.407 494.636C125.758 490.606 125.151 486.401 125.478 482.103C125.628 479.913 126.162 477.766 127.054 475.761C128.042 473.689 129.215 471.711 130.558 469.851C131.89 467.912 133.303 465.973 134.518 463.835C135.851 461.688 136.704 459.277 137.017 456.769C137.648 451.548 134.623 446.666 135.406 441.515C135.918 438.938 136.99 436.506 138.547 434.39C140.031 432.159 141.783 430.033 143.219 427.639C146.198 422.839 147.635 417.209 148.721 411.567C149.807 405.926 150.613 400.086 152.762 394.573C153.796 391.802 155.215 389.191 156.979 386.817C158.757 384.424 161.063 382.474 163.718 381.118L163.122 380.779C163.122 380.954 163.122 381.129 163.181 381.316C163.508 384.376 164.057 387.366 164.349 390.357C164.717 393.312 164.831 396.294 164.687 399.268C164.628 400.73 164.496 402.188 164.29 403.637C163.913 405.034 163.42 406.397 162.819 407.713C161.613 410.376 160.56 413.106 159.665 415.889C158.886 418.666 158.393 421.515 158.193 424.392C157.89 427.207 157.574 429.998 157.271 432.755C156.64 438.256 156.231 443.746 154 448.5C152.832 450.836 151.431 453.066 150.344 455.449C149.275 457.822 148.68 460.381 148.592 462.983C148.3 468.029 148.954 472.969 147.588 477.431C146.221 481.893 143.383 485.607 141.946 489.823C140.51 494.04 141.035 498.502 141.666 502.414C142.297 506.327 142.927 510.182 142.087 513.651C141.246 517.12 138.839 519.713 137.274 522.492C136.449 523.831 135.897 525.319 135.651 526.872C135.474 528.291 135.381 529.718 135.371 531.147C135.372 532.437 135.183 533.72 134.81 534.955C134.377 536.025 133.682 536.969 132.789 537.7C131.251 538.94 129.518 539.919 127.662 540.596C126.305 541.119 124.901 541.511 123.469 541.764C122.593 541.923 121.707 542.009 120.817 542.021C120.081 541.951 119.766 541.951 119.766 541.951Z" fill="#263238"/>
<path d="M161.091 387.891C161.028 388.016 160.985 388.15 160.962 388.288L160.682 389.456C160.425 390.495 160.109 392.049 159.619 393.988C159.128 395.926 157.925 398.122 156.909 400.82C155.719 403.858 154.682 406.953 153.802 410.094C152.798 413.598 151.922 417.453 150.987 421.611C150.193 426.04 148.786 430.336 146.806 434.377C145.731 436.503 144.47 438.652 143.571 441.011C142.627 443.421 141.996 445.941 141.69 448.51C141.026 453.831 140.082 459.114 138.864 464.336C136.247 475.047 133.748 485.255 131.47 494.552C129.192 503.85 127.043 512.166 125.268 519.197C123.493 526.229 122.149 531.835 121.168 535.841C120.713 537.757 120.351 539.263 120.094 540.373C119.989 540.852 119.895 541.237 119.825 541.541C119.812 541.677 119.812 541.814 119.825 541.95C119.893 541.829 119.944 541.699 119.977 541.564C120.059 541.249 120.176 540.875 120.316 540.396C120.608 539.31 121.016 537.803 121.542 535.9C122.593 531.928 124.077 526.287 125.91 519.337C127.744 512.388 129.882 503.978 132.276 494.739C134.67 485.5 137.1 475.222 139.74 464.5C140.95 459.264 141.871 453.964 142.496 448.627C142.794 446.119 143.407 443.658 144.318 441.303C145.241 438.967 146.42 436.877 147.495 434.727C149.831 430.464 150.754 425.886 151.676 421.763C152.599 417.64 153.417 413.738 154.375 410.258C155.332 406.777 156.337 403.67 157.341 400.984C158.346 398.297 159.455 396.078 159.934 394.069C160.413 392.06 160.635 390.565 160.845 389.491C160.923 389.008 160.993 388.619 161.056 388.323C161.091 388.031 161.114 387.891 161.091 387.891Z" fill="#263238"/>
<path d="M122.079 542.009C130.617 536.928 133.07 521.511 129.507 512.237C125.945 502.963 119.708 494.483 118.75 484.59C118.003 476.987 120.502 469.184 118.75 461.756C116.356 451.723 106.568 443.955 106.685 433.642C106.743 427.86 110.037 422.418 109.768 416.636C109.453 409.558 104.01 403.928 100.646 397.691C95.4835 388.125 95.1448 376.83 93.3811 366.155C91.6174 355.479 87.5411 343.963 78.0336 338.695C76.632 347.794 74.2376 354.031 74.9851 366.354C75.2654 370.78 80.4046 379.202 81.1054 388.954C81.5259 394.794 81.8062 400.564 82.1683 406.358C82.5304 412.151 82.8808 417.757 84.9014 423.037C86.4548 427.09 88.9427 430.769 90.099 434.95C92.2598 442.811 89.4099 451.302 91.1619 459.291C92.6452 466.042 97.3172 471.847 98.275 478.692C99.6065 488.304 93.3928 498.303 96.5697 507.471C98.1582 512.027 101.896 515.647 102.959 520.378C103.788 524.022 102.889 527.888 103.636 531.544C104.804 537.454 116.087 542.056 122.102 541.67" fill="#FC2D3F"/>
<path d="M80.3694 347.676C80.3534 347.847 80.3534 348.019 80.3694 348.19C80.3694 348.575 80.4862 349.066 80.5563 349.685C80.7548 351.005 80.9767 352.932 81.4206 355.431C81.8644 357.931 83.1959 360.757 84.2238 364.168C85.2516 367.578 86.3963 371.48 87.354 375.848C88.3118 380.216 89.1527 385.087 90.0054 390.308C90.858 395.529 91.7924 401.217 94.3854 406.66C95.5534 409.381 96.9316 412.114 97.8894 415.034C98.8707 418.023 99.475 421.123 99.6881 424.262C100.166 430.921 101.004 437.549 102.199 444.118C104.816 457.596 107.303 470.433 109.569 482.124C111.835 493.816 114.113 504.246 115.935 513.076C117.757 521.906 119.252 528.961 120.292 533.937L121.46 539.602C121.6 540.209 121.705 540.688 121.798 541.062C121.83 541.233 121.877 541.401 121.938 541.564C121.959 541.393 121.959 541.221 121.938 541.05C121.868 540.664 121.787 540.186 121.682 539.566C121.425 538.212 121.062 536.296 120.607 533.867C119.626 528.879 118.271 521.754 116.507 512.959C114.744 504.164 112.653 493.617 110.329 481.972C108.004 470.327 105.657 457.444 103.029 443.977C101.832 437.409 100.99 430.78 100.506 424.121C100.283 420.918 99.6595 417.755 98.6486 414.707C97.6091 411.741 96.2425 408.996 95.0395 406.286C92.4699 400.925 91.5355 395.33 90.6478 390.133C89.7601 384.935 88.9075 380.053 87.8913 375.661C86.8751 371.269 85.7655 367.345 84.6209 363.981C83.4763 360.617 82.2031 357.767 81.6892 355.326C81.1753 352.885 80.93 350.923 80.6847 349.626C80.5679 349.019 80.4745 348.528 80.4044 348.143C80.402 347.987 80.3903 347.831 80.3694 347.676Z" fill="#263238"/>
<path d="M492.277 103.682H487.605C487.608 104.212 487.505 104.737 487.301 105.226C487.098 105.716 486.798 106.159 486.42 106.53C486.042 106.902 485.594 107.194 485.101 107.389C484.608 107.583 484.081 107.677 483.552 107.665C482.769 107.693 481.998 107.476 481.345 107.045C480.691 106.614 480.189 105.989 479.907 105.259C479.661 104.65 479.563 103.993 479.62 103.339C479.676 102.685 479.887 102.054 480.234 101.498C481.029 100.19 482.757 99.0099 485.888 99.5589V89.0469H481.297V95.1906C479.414 95.7451 477.764 96.9023 476.602 98.4847C475.439 100.067 474.828 101.987 474.862 103.951C474.862 110.748 480.959 112.325 483.575 112.325C485.572 112.372 492.37 111.893 492.277 103.682Z" fill="#FC2D3F"/>
<path d="M481.263 86.9219H485.923V82.5652H481.263V86.9219Z" fill="#FC2D3F"/>
<path d="M517.751 97.4691C517.766 97.2708 517.766 97.0716 517.751 96.8734C517.751 96.4529 517.751 95.8806 517.751 95.1447C517.751 94.771 517.751 94.3388 517.692 93.8716C517.634 93.4044 517.564 92.8905 517.482 92.3532C517.4 91.8159 517.319 91.1852 517.225 90.5662L516.735 88.5806C515.867 85.1611 514.447 81.9062 512.53 78.9446C509.746 74.5585 505.994 70.8691 501.562 68.1598C497.129 65.4506 492.135 63.7938 486.962 63.3167C485.409 63.1795 483.848 63.1483 482.29 63.2233C481.508 63.2233 480.702 63.2233 479.954 63.3751L477.548 63.7372C474.247 64.3508 471.052 65.4406 468.064 66.9726C464.944 68.6233 462.077 70.7118 459.549 73.1747C456.961 75.7978 454.798 78.8085 453.137 82.0982C451.35 85.4897 450.179 89.1715 449.68 92.9723C449.534 93.9352 449.452 94.9068 449.434 95.8806C449.356 96.8558 449.337 97.8347 449.376 98.8123C449.63 105.078 451.589 111.156 455.041 116.391V116.029C453.417 120.082 451.817 124.064 450.252 127.942L449.972 128.655L450.707 128.444L463.439 124.94L463.135 124.87C467.423 128.116 472.418 130.302 477.712 131.248C480.167 131.705 482.67 131.858 485.163 131.703C486.366 131.685 487.565 131.572 488.749 131.364L490.49 131.096C491.062 130.991 491.658 130.815 492.171 130.687C500.017 128.699 506.898 123.983 511.584 117.383C513.331 114.952 514.734 112.291 515.753 109.476C515.975 108.857 516.186 108.308 516.384 107.701C516.583 107.093 516.688 106.533 516.816 106.007C516.945 105.482 517.085 104.944 517.202 104.454C517.319 103.963 517.354 103.484 517.424 103.029C517.529 102.129 517.692 101.335 517.727 100.693C517.762 100.05 517.727 99.4313 517.727 98.9407C517.727 98.4502 517.727 98.1465 517.727 97.8779C517.727 97.6092 517.727 97.5158 517.727 97.5158C517.709 97.6358 517.709 97.7578 517.727 97.8779C517.727 98.1465 517.727 98.4969 517.646 98.9407C517.564 99.3846 517.575 100.004 517.529 100.681C517.482 101.359 517.307 102.153 517.167 103.017C516.053 109.481 513.085 115.483 508.626 120.294C504.166 125.104 498.405 128.516 492.043 130.115C491.494 130.243 490.945 130.407 490.384 130.512L488.667 130.769C487.509 130.962 486.338 131.068 485.163 131.084C482.716 131.213 480.262 131.052 477.852 130.605C472.682 129.654 467.806 127.506 463.614 124.333L463.474 124.216H463.299L450.556 127.72L450.999 128.223L455.8 116.321L455.87 116.134L455.765 115.959C453.465 112.479 451.833 108.601 450.953 104.524C450.549 102.632 450.307 100.71 450.229 98.7772C450.19 97.8231 450.209 96.8674 450.287 95.9156C450.294 94.9651 450.372 94.0163 450.521 93.0774C450.969 89.3657 452.072 85.7631 453.779 82.4369C455.403 79.2219 457.51 76.2753 460.028 73.7003C462.502 71.2824 465.31 69.233 468.368 67.615C471.289 66.0955 474.417 65.0132 477.653 64.403L479.989 64.0409C480.772 63.9241 481.554 63.9358 482.325 63.8774C483.848 63.8049 485.373 63.8323 486.892 63.9591C491.98 64.4045 496.9 66.0034 501.277 68.6344C505.655 71.2654 509.375 74.8593 512.156 79.1431C514.083 82.0531 515.527 85.2559 516.431 88.6273L516.956 90.5895C517.062 91.2086 517.155 91.7575 517.248 92.3415C517.342 92.9255 517.412 93.3927 517.494 93.8599C517.575 94.3271 517.552 94.7476 517.587 95.1214C517.587 95.8455 517.681 96.4179 517.716 96.8383C517.693 97.0491 517.705 97.2621 517.751 97.4691Z" fill="#263238"/>
<path d="M169.442 235.212H236.894C236.894 235.212 236.894 178.576 295.749 177.571C326.316 177.034 342.165 197.065 348.613 212.401C356.088 230.213 353.822 250.513 343.801 267.04C332.366 285.903 307.721 304.86 262.263 296.848L261.83 447.134H328.535V358.039C328.535 358.039 422.08 333.862 422.08 230.727C422.08 132.09 342.317 110.785 299.44 109.407C275.589 108.648 266.946 107.62 237.443 111.813C199.845 117.186 168.647 160.846 169.442 235.212Z" fill="#FC2D3F"/>
<path d="M329.341 478.461H261.644V541.685H329.341V478.461Z" fill="#FC2D3F"/>
<path opacity="0.1" d="M329.341 478.461H261.644V541.685H329.341V478.461Z" fill="black"/>
<path opacity="0.1" d="M169.442 235.212H236.894C236.894 235.212 236.894 178.576 295.749 177.571C326.316 177.034 342.165 197.065 348.613 212.401C356.088 230.213 353.822 250.513 343.801 267.04C332.366 285.903 307.721 304.86 262.263 296.848L261.83 447.134H328.535V358.039C328.535 358.039 422.08 333.862 422.08 230.727C422.08 132.09 342.317 110.785 299.44 109.407C275.589 108.648 266.946 107.62 237.443 111.813C199.845 117.186 168.647 160.846 169.442 235.212Z" fill="black"/>
<path d="M141.492 235.211H208.955C208.955 235.211 208.955 178.574 267.811 177.57C298.377 177.033 314.227 197.064 320.663 212.4C328.15 230.212 325.884 250.512 315.862 267.039C304.428 285.902 279.351 303.048 233.892 295.071V447.133H300.597V358.038C300.597 358.038 394.142 333.86 394.142 230.726C394.142 132.088 305.677 109.184 267.823 109.184C238.868 109.219 140.219 116.215 141.492 235.211Z" fill="#FC2D3F"/>
<path opacity="0.3" d="M141.492 235.211H208.955C208.955 235.211 208.955 178.574 267.811 177.57C298.377 177.033 314.227 197.064 320.663 212.4C328.15 230.212 325.884 250.512 315.862 267.039C304.428 285.902 279.351 303.048 233.892 295.071V447.133H300.597V358.038C300.597 358.038 394.142 333.86 394.142 230.726C394.142 132.088 305.677 109.184 267.823 109.184C238.868 109.219 140.219 116.215 141.492 235.211Z" fill="black"/>
<path d="M301.402 478.461H233.705V541.685H301.402V478.461Z" fill="#FC2D3F"/>
<path opacity="0.3" d="M301.402 478.461H233.705V541.685H301.402V478.461Z" fill="black"/>
<path d="M275.426 177.876C275.092 177.905 274.756 177.905 274.421 177.876C273.756 177.876 272.798 177.655 271.548 177.643C268.015 177.469 264.473 177.618 260.966 178.087C255.766 178.745 250.65 179.947 245.7 181.672C242.783 182.692 239.941 183.918 237.197 185.34C234.231 186.822 231.438 188.628 228.869 190.724C226.318 192.84 224.032 195.256 222.06 197.919C220.191 200.382 218.486 202.965 216.956 205.652C214.401 210.227 212.376 215.078 210.917 220.111C209.928 223.508 209.248 226.987 208.885 230.507C208.745 231.745 208.71 232.726 208.675 233.38C208.675 233.717 208.644 234.053 208.581 234.384C208.551 234.05 208.551 233.714 208.581 233.38C208.581 232.714 208.581 231.733 208.686 230.483C208.955 226.926 209.577 223.405 210.543 219.971C211.948 214.88 213.948 209.972 216.5 205.348C218.033 202.632 219.746 200.021 221.628 197.534C223.616 194.827 225.931 192.375 228.519 190.234C231.119 188.109 233.947 186.279 236.952 184.779C239.713 183.331 242.574 182.082 245.513 181.042C250.508 179.323 255.673 178.148 260.919 177.538C264.449 177.104 268.014 177.022 271.56 177.292C272.523 177.354 273.483 177.471 274.433 177.643C274.769 177.697 275.101 177.775 275.426 177.876Z" fill="#263238"/>
<path d="M377.065 165.857C377.065 165.857 376.984 165.775 376.843 165.6C376.703 165.425 376.493 165.121 376.259 164.783L374.029 161.629C373.55 160.951 373.036 160.169 372.428 159.363L370.326 156.805L367.92 153.85C367.044 152.822 366.016 151.829 364.988 150.743C363.96 149.657 362.909 148.501 361.718 147.391C360.526 146.281 359.253 145.148 357.945 143.98C357.291 143.396 356.649 142.812 355.948 142.193L353.775 140.476C352.292 139.308 350.82 138.14 349.22 136.972C342.246 131.982 334.847 127.613 327.11 123.914L320.955 121.134L314.846 118.798C312.849 117.969 310.816 117.385 308.854 116.731C306.892 116.077 304.976 115.411 303.014 114.956L297.431 113.496C295.621 113.017 293.822 112.725 292.105 112.328C290.388 111.931 288.73 111.58 287.106 111.382L282.434 110.704C279.479 110.202 276.769 110.097 274.41 109.863C273.242 109.77 272.074 109.641 271.104 109.595L268.325 109.524L264.47 109.396H263.466H263.127C263.239 109.378 263.353 109.378 263.466 109.396H264.47H268.325H271.116C272.132 109.396 273.242 109.536 274.433 109.618C276.769 109.816 279.526 109.898 282.481 110.377L287.153 111.008C288.776 111.195 290.435 111.615 292.163 111.931C293.892 112.246 295.667 112.573 297.525 113.099L303.131 114.547C305.07 114.991 306.985 115.715 308.971 116.311C310.957 116.906 312.977 117.479 314.974 118.366L321.118 120.702L327.309 123.494C335.087 127.201 342.514 131.603 349.501 136.645C351.112 137.813 352.584 139.063 354.067 140.219L356.24 141.796C356.941 142.38 357.583 142.964 358.237 143.595L361.998 147.099C363.166 148.267 364.217 149.435 365.257 150.498C366.296 151.561 367.289 152.6 368.165 153.64L370.501 156.618L372.58 159.211C373.176 160.029 373.678 160.823 374.145 161.547C375.056 162.914 375.769 163.988 376.271 164.759L376.82 165.612C376.912 165.683 376.995 165.765 377.065 165.857Z" fill="#263238"/>
<path d="M370.034 310.688C369.895 310.94 369.727 311.176 369.532 311.388L367.92 313.292C367.254 314.145 366.413 315.161 365.374 316.294C364.334 317.427 363.225 318.758 361.87 320.137C360.515 321.515 359.067 323.057 357.42 324.61C355.773 326.164 353.986 327.799 352.082 329.504C343.732 336.792 334.578 343.105 324.797 348.32C322.532 349.488 320.394 350.656 318.327 351.556C316.259 352.455 314.332 353.378 312.557 354.125C310.781 354.873 309.146 355.492 307.721 356.041C306.296 356.59 305.047 357.034 304.019 357.361L301.683 358.12C301.412 358.228 301.13 358.306 300.842 358.354C301.094 358.209 301.36 358.092 301.636 358.003L303.972 357.139C304.988 356.777 306.215 356.31 307.628 355.726C309.041 355.142 310.676 354.558 312.428 353.728C314.18 352.899 316.119 352.116 318.14 351.1C320.161 350.084 322.321 349.01 324.576 347.83C329.026 345.377 333.826 342.504 338.673 339.187C343.52 335.87 347.877 332.377 351.755 329.083C353.659 327.402 355.481 325.825 357.104 324.236C358.728 322.648 360.246 321.211 361.589 319.833C362.933 318.455 364.112 317.182 365.164 316.06C366.215 314.939 367.079 313.958 367.78 313.14L369.415 311.283C369.605 311.068 369.812 310.869 370.034 310.688Z" fill="#263238"/>
<path d="M299.417 441.831C299.242 441.831 299.102 423.073 299.102 399.935C299.102 376.797 299.242 358.027 299.417 358.027C299.592 358.027 299.721 376.785 299.721 399.935C299.721 423.085 299.58 441.831 299.417 441.831Z" fill="#263238"/>
<path d="M301.986 537.399C301.811 537.399 301.683 524.235 301.683 508C301.683 491.765 301.811 478.59 301.986 478.59C302.161 478.59 302.29 491.753 302.29 508C302.29 524.247 302.15 537.399 301.986 537.399Z" fill="#263238"/>
<path d="M368.387 226.252C367.219 228.588 371.576 230.504 374.087 231.263C376.649 231.892 379.301 232.074 381.924 231.8C385.428 231.613 389.014 231.286 392.039 229.558C394.689 227.916 396.806 225.543 398.136 222.725C399.448 219.915 400.484 216.986 401.232 213.977C401.232 213.977 373.632 215.775 368.387 226.252Z" fill="#FC2D3F"/>
<g opacity="0.4">
<path d="M368.387 226.252C367.219 228.588 371.576 230.504 374.087 231.263C376.649 231.892 379.301 232.074 381.924 231.8C385.428 231.613 389.014 231.286 392.039 229.558C394.689 227.916 396.806 225.543 398.136 222.725C399.448 219.915 400.484 216.986 401.232 213.977C401.232 213.977 373.632 215.775 368.387 226.252Z" fill="black"/>
</g>
<path d="M446.34 218.776C450.89 222.003 456.343 223.712 461.921 223.658C464.595 223.807 467.232 222.976 469.338 221.322C470.237 220.492 470.914 219.441 471.837 218.647C472.468 218.11 473.204 217.701 473.799 217.129C474.114 216.858 474.356 216.514 474.505 216.126C474.654 215.739 474.704 215.321 474.652 214.909C474.421 213.895 473.853 212.989 473.04 212.34C469.875 210.541 466.091 210.611 462.446 210.693C458.799 210.851 455.197 211.556 451.759 212.784C448.933 213.741 445.978 215.12 444.541 217.689" fill="#FC2D3F"/>
<g opacity="0.4">
<path d="M474.652 214.909C474.239 213.924 473.512 213.102 472.585 212.573C469.419 210.774 466.091 210.61 462.446 210.692C458.799 210.85 455.197 211.555 451.759 212.783C448.933 213.741 445.978 215.119 444.541 217.689L446.34 218.775C450.89 222.002 456.343 223.711 461.921 223.657C464.595 223.806 467.232 222.976 469.338 221.321C470.237 220.492 470.914 219.441 471.837 218.646C472.468 218.109 473.204 217.7 473.799 217.128C474.114 216.857 474.356 216.513 474.505 216.126C474.654 215.738 474.704 215.32 474.652 214.909Z" fill="black"/>
</g>
<path d="M392.448 260.697L450.673 261.468C450.791 261.468 450.908 261.44 451.014 261.386C451.12 261.333 451.211 261.255 451.282 261.16C451.352 261.064 451.399 260.954 451.419 260.837C451.439 260.72 451.432 260.6 451.397 260.487L444.564 239.183C444.564 239.183 445.569 228.531 446.958 215.729C449.073 196.282 451.887 171.836 451.922 171.906C447.94 160.74 424.439 158.848 424.439 158.848L397.657 160.436L396.723 158.859L389.014 162.445C387.333 163.227 385.716 164.141 384.178 165.178C379.086 168.577 366.822 176.391 364.579 185.093C359.405 205.241 368.165 227.725 368.165 227.725L373.795 223.321C375.213 222.229 376.704 221.233 378.257 220.343L389.54 250.582C388.868 251.006 388.3 251.573 387.875 252.244C387.451 252.915 387.182 253.672 387.087 254.46C386.993 256.913 388.255 259.856 392.448 260.697Z" fill="#FC2D3F"/>
<g opacity="0.3">
<path d="M417.431 225.048C419.277 215.12 418.307 204.912 417.315 194.867C414.091 203.043 414.208 212.387 410.785 220.493C410.366 221.349 410.06 222.256 409.874 223.191C409.785 223.661 409.809 224.145 409.943 224.604C410.077 225.063 410.317 225.483 410.645 225.831C411.58 226.684 412.981 226.216 414.219 226.076C415.328 225.865 416.406 225.52 417.431 225.048Z" fill="black"/>
</g>
<g opacity="0.4">
<path d="M395.952 248.036C400.624 249.659 405.599 246.634 410.54 246.097C413.81 245.746 417.081 246.494 420.328 247.019C426.894 248.082 433.573 248.247 440.184 247.51C441.198 247.454 442.191 247.196 443.104 246.751C443.576 246.429 443.962 245.997 444.228 245.492C444.495 244.987 444.634 244.425 444.634 243.854C433.631 242.686 422.64 242.055 411.638 240.922C408.899 240.455 406.094 240.547 403.392 241.191C400.075 242.219 397.552 244.824 395.216 247.405" fill="black"/>
</g>
<path d="M472.97 211.081C468.216 200.37 451.455 170.75 451.455 170.75L438.479 187.02L441.504 218.965C441.504 218.965 448.36 211.315 467.527 211.163C468.92 211.218 470.282 211.585 471.515 212.236C472.748 212.887 473.82 213.805 474.651 214.924L472.97 211.081Z" fill="#FC2D3F"/>
<path d="M395.053 205.414C394.127 203.143 393.393 200.799 392.857 198.406C392.132 196.075 391.6 193.688 391.269 191.27C392.181 193.544 392.911 195.887 393.453 198.278C394.178 200.609 394.713 202.996 395.053 205.414Z" fill="#263238"/>
<path d="M437.498 184.859C437.92 185.158 438.312 185.498 438.666 185.876C439.698 186.872 440.665 187.933 441.562 189.052C444.583 192.744 446.706 197.086 447.765 201.737C448.314 204.308 448.437 206.952 448.127 209.563C447.835 211.957 447.379 214.059 447.075 215.835C446.772 217.61 446.585 219.058 446.491 220.063C446.489 220.585 446.434 221.105 446.328 221.616C446.245 221.095 446.222 220.566 446.258 220.04C446.309 218.608 446.442 217.181 446.655 215.765C446.9 213.978 447.309 211.852 447.578 209.504C447.848 206.952 447.71 204.374 447.169 201.865C446.123 197.302 444.094 193.021 441.224 189.321C439.086 186.448 437.404 184.953 437.498 184.859Z" fill="#263238"/>
<path d="M425.608 258.128C425.202 258.309 424.774 258.435 424.335 258.502C423.836 258.634 423.328 258.731 422.816 258.794C422.221 258.876 421.543 259.004 420.784 259.039C419.005 259.203 417.214 259.203 415.434 259.039C413.257 258.816 411.106 258.385 409.01 257.755C406.925 257.084 404.907 256.22 402.984 255.173C401.424 254.303 399.943 253.298 398.557 252.171C397.95 251.704 397.459 251.214 397.015 250.805C396.632 250.46 396.27 250.093 395.929 249.707C395.604 249.406 395.325 249.06 395.1 248.679C395.181 248.597 396.431 249.999 398.826 251.833C400.224 252.897 401.704 253.85 403.252 254.683C405.154 255.682 407.14 256.514 409.186 257.171C411.246 257.791 413.356 258.229 415.493 258.479C417.238 258.667 418.995 258.721 420.749 258.642C423.751 258.479 425.584 258.035 425.608 258.128Z" fill="#263238"/>
<path d="M443.583 251.492C443.858 252.02 444.013 252.603 444.038 253.197C444.225 254.621 444.118 256.068 443.723 257.449C443.322 258.861 442.509 260.122 441.387 261.07C440.534 261.782 439.88 262.004 439.845 261.946C439.81 261.887 440.359 261.502 441.095 260.778C442.04 259.793 442.726 258.589 443.092 257.274C444.027 254.19 443.361 251.504 443.583 251.492Z" fill="#263238"/>
<path d="M440.417 255.605C440.671 256.807 440.569 258.056 440.125 259.201C439.682 260.345 438.915 261.336 437.918 262.053C437.789 261.924 438.875 260.768 439.553 258.981C440.23 257.194 440.242 255.617 440.417 255.605Z" fill="#263238"/>
<path d="M429.999 217.176C429.38 218.222 428.685 219.221 427.92 220.166C427.316 221.221 426.633 222.228 425.876 223.179C426.1 221.947 426.63 220.79 427.418 219.815C428.04 218.731 428.929 217.822 429.999 217.176Z" fill="#263238"/>
<path d="M390.03 188.888C389.14 188.365 388.279 187.796 387.449 187.182C383.295 184.453 378.581 182.693 373.655 182.032C372.624 181.956 371.598 181.82 370.583 181.623C371.618 181.48 372.667 181.48 373.702 181.623C378.762 182.055 383.608 183.86 387.718 186.844C388.58 187.414 389.358 188.102 390.03 188.888Z" fill="#263238"/>
<path d="M451.455 170.363C449.365 172.047 447.412 173.894 445.615 175.888C443.961 178.016 442.481 180.273 441.188 182.639C441.327 181.843 441.599 181.077 441.994 180.373C442.84 178.622 443.899 176.982 445.148 175.491C446.4 174.003 447.837 172.68 449.423 171.555C450.027 171.043 450.714 170.64 451.455 170.363Z" fill="#263238"/>
<path d="M427.417 160.738C427.524 160.907 427.61 161.087 427.674 161.276C427.902 161.805 428.086 162.351 428.223 162.911C428.716 164.992 428.716 167.16 428.223 169.241C427.496 172.349 425.833 175.158 423.458 177.289C420.46 179.828 416.641 181.19 412.712 181.12C408.781 181.133 404.95 179.876 401.792 177.534C399.275 175.613 397.233 173.139 395.823 170.304C394.873 168.406 394.204 166.38 393.837 164.289C393.73 163.726 393.66 163.156 393.627 162.584C393.594 162.383 393.594 162.177 393.627 161.976C393.627 161.976 393.756 162.794 394.083 164.242C394.537 166.274 395.256 168.237 396.22 170.082C397.645 172.832 399.669 175.227 402.142 177.09C405.185 179.344 408.867 180.571 412.654 180.594C416.44 180.664 420.125 179.371 423.037 176.95C425.332 174.897 426.959 172.204 427.709 169.218C428.229 167.202 428.301 165.097 427.92 163.051C427.698 161.509 427.347 160.762 427.417 160.738Z" fill="#263238"/>
<g opacity="0.3">
<path d="M431.506 219.245C431.506 218.661 431.412 217.972 430.898 217.68C430.735 217.597 430.555 217.555 430.373 217.555C430.19 217.555 430.01 217.597 429.847 217.68C429.521 217.856 429.231 218.094 428.995 218.38C427.621 219.809 426.559 221.508 425.876 223.368L431.599 222.866C431.564 221.686 431.541 220.448 431.506 219.245Z" fill="black"/>
</g>
<g opacity="0.3">
<path d="M450.51 207.201C449.934 203.926 448.499 200.863 446.352 198.324C448.828 206.407 447.998 210.974 446.609 216.51L446.912 215.739C448.512 212.504 450.942 210.471 450.51 207.201Z" fill="black"/>
</g>
<path d="M439.075 478.715L435.582 531.1L412.806 530.831L409.221 476.367L439.075 478.715Z" fill="#FFBE9D"/>
<path d="M436.224 524.209V525.728C436.224 525.728 461.92 536.053 462.166 540.912L411.136 540.631L411.93 523.66C419.534 527.223 427.488 527.666 436.224 524.209Z" fill="#FC2D3F"/>
<path d="M417.104 529.102C416.62 529.248 416.206 529.566 415.939 529.996C415.672 530.426 415.572 530.939 415.656 531.438C415.781 531.936 416.094 532.366 416.53 532.639C416.965 532.911 417.489 533.004 417.992 532.898C418.512 532.742 418.955 532.399 419.236 531.935C419.516 531.471 419.614 530.919 419.51 530.387C419.325 529.882 418.951 529.47 418.467 529.236C417.983 529.003 417.427 528.967 416.917 529.137" fill="white"/>
<path d="M411.136 540.631L411.323 536.555L460.192 538.33C460.192 538.33 462.458 539.335 462.189 540.923L411.136 540.631Z" fill="#263238"/>
<path d="M436.412 525.867C436.412 526.112 435.15 526.218 433.924 527.035C432.698 527.853 432.032 528.869 431.81 528.775C431.588 528.682 431.962 527.234 433.468 526.299C434.975 525.365 436.47 525.598 436.412 525.867Z" fill="#263238"/>
<path d="M441.749 528.111C441.807 528.357 440.721 528.765 439.868 529.817C439.016 530.868 438.771 531.977 438.514 531.966C438.257 531.954 438.116 530.541 439.203 529.268C440.289 527.995 441.737 527.936 441.749 528.111Z" fill="#263238"/>
<path d="M444.751 534.535C444.517 534.535 444.178 533.367 444.833 531.977C445.487 530.588 446.643 530.085 446.748 530.284C446.853 530.482 446.129 531.218 445.58 532.351C445.031 533.484 445.008 534.512 444.751 534.535Z" fill="#263238"/>
<path d="M434.916 95.5993C436.236 92.3289 434.636 88.3693 431.798 86.2553C428.806 84.2862 425.159 83.5768 421.648 84.2813C418.184 85.0077 414.83 86.1857 411.673 87.7853C410.205 86.3047 408.354 85.2613 406.328 84.7716C404.301 84.2819 402.178 84.3652 400.196 85.0122C398.214 85.6592 396.45 86.8444 395.103 88.4355C393.755 90.0265 392.877 91.9609 392.565 94.0225C391.302 93.7046 389.976 93.7366 388.73 94.115C387.484 94.4934 386.365 95.204 385.492 96.1704C384.619 97.1369 384.026 98.3228 383.776 99.6008C383.526 100.879 383.629 102.201 384.073 103.425L399.865 108.973L417.104 139.341C419.652 141.515 422.904 142.687 426.253 142.64C429.601 142.592 432.819 141.328 435.304 139.083C437.789 136.838 439.373 133.765 439.759 130.439C440.146 127.112 439.309 123.758 437.404 121.003C438.37 120.144 439.191 119.134 439.834 118.013C441.211 117.199 442.413 116.118 443.37 114.835C444.326 113.552 445.018 112.091 445.405 110.538C446.935 103.775 441.702 96.3935 434.916 95.5993Z" fill="#263238"/>
<path d="M424.463 158.847C423.482 153.907 422.804 150.519 422.816 150.554C422.828 150.589 432.16 146.934 431.483 133.934C431.156 127.463 428.691 117.266 426.402 108.997C424.346 101.545 417.397 93.3341 410.05 95.7051L387.776 106.567C385.545 107.292 385.16 109.394 385.685 111.672V112.84L394.34 148.651L397.996 164.652C398.775 167.938 400.757 170.813 403.55 172.711C406.343 174.609 409.745 175.392 413.087 174.907C414.912 174.65 416.665 174.024 418.239 173.065C419.813 172.106 421.175 170.836 422.24 169.332C423.305 167.828 424.052 166.122 424.434 164.319C424.817 162.516 424.826 160.654 424.463 158.847Z" fill="#FFBE9D"/>
<path d="M426.32 117.64C426.414 118.055 426.345 118.489 426.128 118.855C425.91 119.22 425.561 119.487 425.152 119.603C424.946 119.66 424.73 119.676 424.517 119.648C424.305 119.62 424.1 119.549 423.916 119.44C423.732 119.331 423.571 119.185 423.444 119.013C423.318 118.84 423.227 118.643 423.178 118.435C423.085 118.022 423.154 117.589 423.372 117.225C423.589 116.862 423.938 116.597 424.346 116.484C424.552 116.425 424.767 116.408 424.98 116.434C425.192 116.46 425.397 116.53 425.582 116.638C425.766 116.746 425.927 116.891 426.054 117.063C426.181 117.236 426.272 117.432 426.32 117.64Z" fill="#263238"/>
<path d="M425.304 115.152C425.14 115.409 423.727 114.766 421.998 115.152C420.27 115.537 419.172 116.658 418.938 116.483C418.704 116.308 418.938 115.981 419.417 115.467C420.06 114.788 420.896 114.323 421.811 114.135C422.715 113.941 423.657 114.043 424.498 114.427C425.152 114.696 425.374 115.046 425.304 115.152Z" fill="#263238"/>
<path d="M409.361 121.469C409.454 121.882 409.385 122.315 409.167 122.678C408.95 123.041 408.601 123.307 408.193 123.419C407.991 123.478 407.779 123.496 407.571 123.473C407.362 123.449 407.16 123.385 406.976 123.283C406.793 123.18 406.631 123.043 406.501 122.878C406.371 122.713 406.275 122.524 406.219 122.322C406.125 121.907 406.194 121.473 406.411 121.107C406.628 120.742 406.978 120.475 407.387 120.359C407.589 120.301 407.801 120.283 408.01 120.307C408.22 120.332 408.422 120.397 408.606 120.501C408.79 120.604 408.951 120.743 409.081 120.909C409.21 121.075 409.305 121.266 409.361 121.469Z" fill="#263238"/>
<path d="M408.508 119.276C408.356 119.533 406.931 118.879 405.202 119.276C403.474 119.673 402.376 120.771 402.142 120.607C401.909 120.444 402.142 120.105 402.621 119.58C403.267 118.907 404.102 118.446 405.016 118.26C405.918 118.068 406.858 118.166 407.702 118.54C408.321 118.82 408.59 119.136 408.508 119.276Z" fill="#263238"/>
<path d="M417.303 130.255C418.159 129.782 419.069 129.414 420.013 129.157C420.445 129.017 420.854 128.842 420.865 128.526C420.804 128.062 420.605 127.626 420.293 127.276L418.272 124.17C415.446 119.743 413.297 116.075 413.472 115.994C413.647 115.912 416.088 119.381 418.915 123.808L420.889 126.938C421.276 127.417 421.487 128.015 421.484 128.631C421.45 128.799 421.378 128.958 421.275 129.095C421.172 129.232 421.04 129.345 420.889 129.426C420.66 129.547 420.417 129.637 420.165 129.694C419.241 130.011 418.278 130.199 417.303 130.255Z" fill="#263238"/>
<path d="M422.816 150.555C416.908 151.891 410.746 151.559 405.016 149.598C405.016 149.598 411.136 157.587 423.482 153.767L422.816 150.555Z" fill="#EB996E"/>
<path d="M408.8 116.8C408.683 117.302 406.896 117.291 404.864 117.793C402.832 118.295 401.22 119.054 400.893 118.657C400.753 118.47 400.986 117.98 401.605 117.489C402.428 116.796 403.406 116.311 404.455 116.076C405.496 115.829 406.58 115.829 407.621 116.076C408.45 116.228 408.882 116.566 408.8 116.8Z" fill="#263238"/>
<path d="M424.638 109.64C424.357 110.107 422.862 109.99 421.134 110.329C419.405 110.668 418.038 111.252 417.63 110.913C417.443 110.738 417.63 110.294 418.132 109.745C418.903 109.096 419.835 108.668 420.83 108.507C421.808 108.31 422.822 108.382 423.762 108.717C424.474 109.044 424.754 109.406 424.638 109.64Z" fill="#263238"/>
<path d="M393.277 98.2029C393.536 99.4682 394.069 100.661 394.841 101.697C395.612 102.732 396.602 103.585 397.741 104.195C398.879 104.805 400.138 105.157 401.427 105.225C402.717 105.294 404.006 105.078 405.202 104.592C407.048 103.844 408.963 102.443 410.832 103.12C412.701 103.798 413.472 106.461 415.259 107.453C417.887 108.925 421.099 106.379 424.031 106.636C426.367 106.834 428.13 108.621 429.941 110.14C431.751 111.658 434.251 112.803 436.295 111.705C435.826 109.754 435.133 107.865 434.227 106.075C433.314 104.273 431.803 102.845 429.952 102.034C428.924 101.625 427.815 101.485 426.834 100.983C424.72 99.9082 423.774 97.4788 422.243 95.645C421.239 94.4894 419.973 93.59 418.551 93.0212C417.129 92.4525 415.592 92.2308 414.067 92.3746C411.545 92.6316 409.15 93.9047 406.604 93.7996C404.723 93.7178 402.925 92.8768 401.044 92.9119C397.388 92.9119 394.644 96.1823 392.611 99.2308" fill="#263238"/>
<path d="M405.588 100.88C403.906 100.751 400.472 100.401 399.339 99.2094C398.188 97.922 396.719 96.9596 395.079 96.4184C393.44 95.8773 391.686 95.7764 389.995 96.1259C388.317 96.6261 386.844 97.652 385.793 99.0523C384.741 100.453 384.167 102.154 384.155 103.905C382.112 104.403 380.24 105.445 378.74 106.919C377.239 108.393 376.164 110.245 375.629 112.279C375.085 114.409 375.067 116.639 375.575 118.777C376.084 120.915 377.104 122.898 378.549 124.555C379.25 125.432 379.89 126.357 380.464 127.323C379.672 128.306 378.976 129.362 378.385 130.477C375.711 136.387 382.964 138.653 382.964 138.653C382.964 142.624 386.643 142.601 388.991 142.589C391.338 142.577 392.635 148.849 394.469 148.604L392.611 129.25C392.883 129.356 393.172 129.411 393.464 129.414C397.891 129.496 396.735 121.109 395.31 118.902C396.628 117.26 397.742 115.464 398.627 113.552C399.428 110.631 399.485 107.555 398.79 104.606C400.274 104.419 406.312 100.926 405.588 100.88Z" fill="#263238"/>
<path d="M393.196 130.278C393.045 129.663 392.741 129.096 392.312 128.631C391.883 128.165 391.343 127.816 390.742 127.615C390.142 127.414 389.5 127.369 388.877 127.484C388.254 127.598 387.671 127.868 387.181 128.269C386.013 129.274 385.394 130.955 386.094 133.77C387.986 141.292 395.146 137.847 395.1 137.636C395.053 137.426 394.013 133.385 393.196 130.278Z" fill="#FFBE9D"/>
<path d="M392.085 135.357C392.085 135.357 391.98 135.486 391.782 135.638C391.506 135.849 391.158 135.946 390.812 135.906C389.948 135.813 388.955 134.738 388.581 133.372C388.403 132.733 388.367 132.063 388.476 131.41C388.488 131.156 388.561 130.908 388.689 130.689C388.818 130.469 388.997 130.283 389.212 130.148C389.354 130.072 389.518 130.047 389.676 130.079C389.834 130.111 389.976 130.198 390.076 130.323C390.228 130.499 390.217 130.662 390.263 130.674C390.31 130.685 390.392 130.499 390.263 130.207C390.174 130.033 390.03 129.894 389.855 129.809C389.607 129.709 389.331 129.709 389.084 129.809C388.79 129.949 388.537 130.16 388.347 130.423C388.157 130.687 388.037 130.994 387.997 131.316C387.846 132.052 387.874 132.813 388.079 133.535C388.21 134.214 388.537 134.838 389.022 135.331C389.506 135.823 390.125 136.162 390.801 136.303C391.02 136.312 391.24 136.272 391.442 136.185C391.644 136.098 391.824 135.967 391.969 135.801C392.12 135.544 392.12 135.369 392.085 135.357Z" fill="#EB996E"/>
<path d="M433.526 119.779C433.526 119.779 434.215 119.253 435.173 118.085C436.495 116.402 437.305 114.375 437.509 112.245C437.664 110.791 437.521 109.32 437.088 107.923C436.59 106.321 435.665 104.884 434.414 103.765C432.969 102.503 431.219 101.641 429.338 101.264C427.458 100.887 425.511 101.009 423.691 101.616C423.341 101.733 423.014 101.908 422.687 102.048C422.36 102.188 422.068 102.399 421.764 102.574L421.297 102.831V102.317C421.287 101.412 420.951 100.541 420.351 99.8641C419.736 99.2069 418.982 98.696 418.143 98.3691C416.557 97.708 414.8 97.5769 413.133 97.9953C409.909 98.7312 407.176 100.203 404.595 100.507C402.57 100.858 400.488 100.442 398.755 99.3385C398.297 99.0238 397.901 98.6279 397.587 98.1705C397.4 97.8552 397.306 97.68 397.33 97.6683C397.753 98.2451 398.27 98.7465 398.86 99.1516C400.565 100.136 402.568 100.472 404.501 100.098C405.846 99.8447 407.161 99.4532 408.426 98.9297C409.91 98.3363 411.432 97.8408 412.981 97.4464C413.845 97.2374 414.733 97.147 415.621 97.1777C416.558 97.2272 417.479 97.4407 418.342 97.8084C419.235 98.19 420.033 98.7644 420.678 99.4904C421.369 100.281 421.758 101.291 421.776 102.34L421.309 102.083L422.278 101.523C422.64 101.383 422.979 101.196 423.353 101.067C425.27 100.41 427.328 100.273 429.315 100.669C431.303 101.065 433.151 101.98 434.671 103.321C435.984 104.511 436.946 106.038 437.451 107.736C437.975 109.537 438.045 111.439 437.656 113.273C437.267 115.107 436.43 116.816 435.22 118.248C434.835 118.687 434.4 119.079 433.923 119.416C433.806 119.553 433.673 119.674 433.526 119.779Z" fill="#455A64"/>
<path d="M432.008 93.3698C431.241 92.9805 430.423 92.7013 429.579 92.5405C428.613 92.4085 427.63 92.5004 426.705 92.8091C425.508 93.1754 424.468 93.932 423.75 94.9583L423.458 95.3671L423.283 94.8999C422.673 93.4641 421.692 92.2169 420.439 91.2868C419.187 90.3568 417.709 89.7776 416.158 89.6088C413.723 89.5172 411.322 90.2135 409.314 91.5944C407.603 92.7098 405.783 93.649 403.883 94.3976C402.573 94.8932 401.161 95.0616 399.771 94.8882C399.401 94.8198 399.037 94.7181 398.685 94.5845C398.452 94.4794 398.323 94.421 398.335 94.3976C398.346 94.3743 398.86 94.5495 399.806 94.6429C401.15 94.7268 402.495 94.5073 403.743 94.0005C405.589 93.1952 407.36 92.2257 409.034 91.1039C410.067 90.462 411.163 89.9259 412.304 89.5037C413.558 89.0463 414.899 88.8747 416.228 89.0015C417.885 89.1823 419.462 89.809 420.79 90.8148C422.119 91.8205 423.15 93.1677 423.774 94.713H423.318C424.121 93.6153 425.268 92.8178 426.577 92.4471C427.571 92.1588 428.619 92.1068 429.637 92.2952C430.282 92.4176 430.899 92.655 431.459 92.996C431.659 93.0938 431.844 93.2197 432.008 93.3698Z" fill="#455A64"/>
<path d="M416.625 133.713C416.352 133.484 416.034 133.317 415.692 133.22C415.35 133.123 414.991 133.1 414.64 133.152C414.228 133.24 413.84 133.413 413.5 133.66C413.16 133.908 412.876 134.224 412.666 134.589C412.666 134.589 412.607 134.647 412.596 134.682C412.435 134.949 412.361 135.259 412.385 135.57C412.436 135.908 412.569 136.229 412.773 136.504C412.977 136.778 413.245 136.999 413.553 137.146C414.047 137.397 414.606 137.488 415.154 137.409C415.701 137.329 416.211 137.083 416.613 136.703C416.995 136.299 417.209 135.765 417.211 135.21C417.213 134.654 417.004 134.119 416.625 133.713Z" fill="#FC2D3F"/>
<path d="M417.209 137.342C417.116 137.342 417.011 136.992 416.695 136.513C416.316 135.871 415.748 135.361 415.069 135.052C414.39 134.743 413.633 134.649 412.899 134.784C412.327 134.866 411.977 135.03 411.941 134.948C411.906 134.866 412.175 134.586 412.806 134.364C413.631 134.098 414.526 134.148 415.317 134.504C416.115 134.859 416.746 135.507 417.081 136.314C417.326 136.922 417.291 137.33 417.209 137.342Z" fill="#263238"/>
<path d="M393.37 138.794C393.37 138.794 393.709 139.378 393.265 140.265C393.014 140.796 392.572 141.213 392.027 141.433C391.687 141.555 391.323 141.596 390.965 141.554C390.606 141.511 390.262 141.386 389.96 141.188C389.652 141.001 389.392 140.746 389.2 140.442C389.008 140.138 388.888 139.794 388.85 139.436C388.815 138.859 388.985 138.288 389.329 137.824C389.936 137.053 390.614 137.03 390.614 137.1C390.614 137.17 390.1 137.369 389.691 138.069C389.455 138.462 389.356 138.922 389.411 139.378C389.455 139.644 389.555 139.898 389.707 140.122C389.858 140.346 390.056 140.534 390.287 140.674C390.515 140.82 390.771 140.916 391.039 140.956C391.306 140.997 391.58 140.98 391.84 140.908C392.272 140.753 392.643 140.467 392.903 140.09C393.359 139.366 393.277 138.794 393.37 138.794Z" fill="#FC2D3F"/>
<path d="M389.435 138.338C389.493 138.338 389.435 138.735 388.886 138.992C388.616 139.104 388.32 139.137 388.032 139.086C387.745 139.035 387.478 138.903 387.263 138.705C387.048 138.507 386.894 138.252 386.819 137.97C386.745 137.688 386.753 137.39 386.842 137.112C386.956 136.796 387.174 136.528 387.461 136.352C387.94 136.06 388.302 136.177 388.29 136.247C388.278 136.317 388.01 136.399 387.718 136.691C387.574 136.871 387.487 137.089 387.466 137.318C387.446 137.547 387.493 137.777 387.603 137.979C387.713 138.181 387.88 138.346 388.083 138.453C388.286 138.561 388.517 138.606 388.746 138.583C389.143 138.502 389.353 138.291 389.435 138.338Z" fill="#FC2D3F"/>
<path d="M402.271 242.065C402.271 242.065 431.191 243.747 448.29 243.899C461.524 244.028 467.434 240.512 470.074 231.997C472.293 224.861 467.527 211.16 467.527 211.16C458.569 211.16 453.044 212.445 447.286 215.143L448.816 221.404L402.189 225.421L402.271 242.065Z" fill="#FFBE9D"/>
<path d="M458.533 228.085C457.279 226.455 455.814 224.998 454.177 223.752C452.42 222.677 450.526 221.844 448.547 221.276C449.17 221.186 449.806 221.242 450.404 221.439C451.874 221.787 453.267 222.4 454.515 223.25C455.766 224.102 456.847 225.179 457.704 226.427C458.358 227.385 458.603 228.05 458.533 228.085Z" fill="#EB996E"/>
<path d="M391.689 215.098C391.689 215.098 382.742 217.247 376.166 221.638L383.174 240.63C385.51 246.867 392.646 249.974 398.358 246.704C407.153 241.67 410.26 227 410.26 227L419.919 185.092L403.906 175.059L391.747 215.098" fill="#FFBE9D"/>
<path d="M403.848 175.057L404.502 161.275L400.916 147.259C400.718 146.488 400.624 145.518 401.255 145.051C401.568 144.811 401.954 144.687 402.348 144.7C402.742 144.713 403.119 144.862 403.416 145.121C404.385 146.126 409.057 158.378 409.057 158.378C409.057 158.378 416.147 154.127 417.408 153.916C418.67 153.706 420.247 157.525 420.352 157.817C420.398 158.673 420.398 159.531 420.352 160.387C420.352 160.387 424.732 160.516 425.129 161.111C425.447 162.328 425.616 163.579 425.631 164.837C425.631 164.837 427.488 165.433 427.78 166.834C428.072 168.236 428.68 170.549 427.78 171.063C426.881 171.577 425.059 172.581 425.059 172.581C425.059 172.581 424.323 179.729 424.124 180.383C423.926 181.037 419.826 185.055 419.826 185.055L403.848 175.057Z" fill="#FFBE9D"/>
<path d="M388.944 246.984C388.944 246.984 389.376 247.241 390.288 247.533C391.62 247.951 393.029 248.063 394.411 247.86C396.63 247.544 398.708 246.585 400.391 245.104C402.614 243.087 404.492 240.719 405.95 238.096C406.809 236.553 407.532 234.939 408.111 233.272C408.719 231.437 409.222 229.569 409.618 227.677C410.529 223.741 411.522 219.501 412.573 214.993C414.675 205.987 417.035 195.919 419.581 185.068V184.987H419.639C420.445 184.192 421.251 183.386 422.057 182.545C422.454 182.125 422.851 181.705 423.225 181.272C423.412 181.05 423.611 180.829 423.762 180.607C423.881 180.387 423.948 180.143 423.961 179.894C424.276 177.558 424.522 175.14 424.779 172.699V172.547L424.919 172.477L427.15 171.228C427.313 171.122 427.57 171.006 427.675 170.912C427.787 170.811 427.861 170.675 427.885 170.527C427.94 170.139 427.94 169.746 427.885 169.359C427.772 168.502 427.597 167.655 427.36 166.824C426.963 166.098 426.296 165.556 425.503 165.317L425.304 165.247V165.049C425.304 164.371 425.234 163.671 425.152 162.981C425.121 162.636 425.07 162.293 425 161.954C424.973 161.804 424.926 161.659 424.86 161.521C424.86 161.44 424.86 161.521 424.79 161.451C424.727 161.418 424.66 161.391 424.592 161.37C423.187 161.064 421.754 160.903 420.317 160.891H420.013V160.587C420.013 159.863 420.013 159.057 420.013 158.251C419.965 157.976 419.87 157.712 419.733 157.469C419.616 157.188 419.476 156.92 419.336 156.639C419.062 156.098 418.742 155.582 418.378 155.097C418.213 154.872 418.011 154.674 417.782 154.513C417.698 154.442 417.594 154.397 417.483 154.385C417.373 154.372 417.262 154.393 417.163 154.443C416.598 154.66 416.048 154.913 415.516 155.203C413.344 156.371 411.218 157.539 409.139 158.8L408.835 158.987L408.707 158.66C407.609 155.892 406.511 153.159 405.436 150.484C404.899 149.141 404.374 147.798 403.836 146.478C403.753 146.182 403.589 145.916 403.362 145.709C403.135 145.502 402.854 145.364 402.552 145.31C402.272 145.217 401.97 145.222 401.694 145.324C401.418 145.426 401.185 145.618 401.033 145.87C400.888 146.121 400.826 146.412 400.858 146.7C400.858 146.957 401.021 147.354 401.092 147.669C401.278 148.346 401.454 149.012 401.629 149.678C401.979 151.021 402.318 152.341 402.668 153.649C403.354 156.281 404.027 158.851 404.689 161.358V161.44C404.455 166.236 404.233 170.83 404.023 175.222V175.199L393.383 209.818L390.381 219.454C390.031 220.541 389.762 221.393 389.575 221.989C389.388 222.585 389.271 222.841 389.271 222.841C389.271 222.841 389.33 222.538 389.493 221.965L390.229 219.408C390.907 217.153 391.876 213.895 393.102 209.737C395.625 201.374 399.211 189.437 403.544 175.047V175.105C403.747 170.729 403.953 166.135 404.163 161.323V161.405C403.498 158.894 402.808 156.324 402.119 153.708L401.068 149.736C400.893 149.071 400.718 148.393 400.531 147.727C400.43 147.378 400.349 147.023 400.286 146.665C400.243 146.259 400.328 145.85 400.531 145.497C400.747 145.132 401.081 144.852 401.477 144.702C401.869 144.588 402.284 144.575 402.682 144.664C403.081 144.754 403.45 144.944 403.755 145.216C404.048 145.491 404.265 145.837 404.385 146.221L405.985 150.227C407.072 152.913 408.158 155.646 409.268 158.403L408.835 158.251C410.926 157.013 413.028 155.775 415.248 154.619C415.809 154.325 416.386 154.064 416.976 153.836C417.161 153.759 417.362 153.731 417.56 153.754C417.76 153.783 417.951 153.855 418.121 153.965C418.402 154.166 418.651 154.411 418.857 154.689C419.247 155.2 419.588 155.747 419.873 156.324C420.025 156.616 420.165 156.896 420.293 157.188C420.46 157.497 420.57 157.834 420.62 158.181C420.62 159.01 420.62 159.781 420.62 160.517L420.328 160.202C421.83 160.212 423.326 160.384 424.79 160.716C424.891 160.751 424.988 160.794 425.082 160.844C425.211 160.914 425.316 161.019 425.386 161.148C425.477 161.337 425.543 161.537 425.584 161.743C425.655 162.117 425.701 162.468 425.748 162.83C425.818 163.542 425.865 164.243 425.9 164.944L425.69 164.663C426.167 164.804 426.611 165.039 426.995 165.357C427.378 165.674 427.693 166.066 427.92 166.509C428.176 167.396 428.364 168.302 428.481 169.219C428.562 169.686 428.562 170.164 428.481 170.632C428.43 170.915 428.281 171.171 428.061 171.356C427.869 171.484 427.67 171.601 427.465 171.706L425.246 172.863L425.398 172.641C425.129 175.082 424.884 177.476 424.557 179.847L424.487 180.303C424.46 180.487 424.383 180.661 424.265 180.805C424.093 181.061 423.901 181.303 423.692 181.529C423.295 181.973 422.898 182.405 422.524 182.826C421.718 183.667 420.913 184.473 420.095 185.267L420.177 185.127C417.607 195.966 415.224 206.034 413.087 215.039C412.024 219.536 411.008 223.776 410.073 227.7C409.674 229.606 409.159 231.486 408.532 233.33C407.931 235.013 407.188 236.643 406.312 238.201C404.82 240.858 402.898 243.25 400.624 245.279C398.892 246.77 396.76 247.721 394.492 248.012C393.081 248.201 391.645 248.057 390.299 247.591C389.957 247.466 389.625 247.313 389.306 247.136L388.944 246.984Z" fill="#EB996E"/>
<path d="M420.363 160.422C420.363 160.503 419.966 160.55 419.347 160.573C418.561 160.588 417.778 160.682 417.011 160.854C416.27 161.036 415.588 161.401 415.025 161.917C414.605 162.314 414.418 162.652 414.325 162.617C414.231 162.582 414.325 162.162 414.71 161.625C415.254 160.944 416.011 160.467 416.859 160.27C417.677 160.068 418.526 160.028 419.359 160.153C419.989 160.235 420.363 160.34 420.363 160.422Z" fill="#EB996E"/>
<path d="M416.976 160.55C416.824 160.492 416.812 160.13 416.976 159.744C417.139 159.359 417.373 159.09 417.525 159.149C417.677 159.207 417.7 159.569 417.525 159.955C417.349 160.34 417.093 160.609 416.976 160.55Z" fill="#EB996E"/>
<path d="M425.829 164.79C424.695 165.141 423.511 165.303 422.325 165.269C421.951 165.256 421.58 165.334 421.243 165.494C420.906 165.655 420.612 165.894 420.386 166.192C420.082 166.67 420.187 167.068 420.094 167.091C420.001 167.114 419.72 166.706 420.012 166.005C420.173 165.61 420.466 165.284 420.841 165.082C421.274 164.845 421.752 164.701 422.243 164.661C423.436 164.479 424.652 164.522 425.829 164.79Z" fill="#EB996E"/>
<path d="M425.059 168.996C425.222 168.996 425.316 169.861 425.269 170.923C425.222 171.986 425.047 172.827 424.883 172.827C424.72 172.827 424.615 171.951 424.662 170.888C424.708 169.825 424.883 168.985 425.059 168.996Z" fill="#EB996E"/>
<path d="M369.088 179.871C369.088 179.871 368.656 180.315 368.048 181.261C367.233 182.608 366.697 184.106 366.472 185.664C366.139 187.985 366.068 190.336 366.261 192.672C366.39 195.324 366.6 198.22 366.927 201.257C367.48 206.443 368.303 211.597 369.392 216.698C369.8 218.66 370.174 220.202 370.431 221.37C370.548 221.861 370.653 222.27 370.735 222.62C370.817 222.97 370.828 223.064 370.828 223.064C370.828 223.064 370.77 222.924 370.688 222.643C370.606 222.363 370.478 221.872 370.349 221.393C370.057 220.307 369.66 218.742 369.181 216.78C368.046 211.681 367.2 206.522 366.647 201.327C366.32 198.29 366.121 195.382 366.004 192.731C365.827 190.393 365.914 188.042 366.261 185.723C366.512 184.144 367.085 182.633 367.943 181.284C368.26 180.764 368.645 180.289 369.088 179.871Z" fill="white"/>
<path d="M393.674 163.963L393.406 164.103L392.635 164.477C391.969 164.792 391 165.26 389.843 165.902C386.829 167.583 383.901 169.415 381.072 171.392C377.731 173.728 374.776 175.853 372.615 177.395L370.057 179.206L369.345 179.684C369.265 179.748 369.179 179.803 369.088 179.848C369.154 179.769 369.233 179.702 369.322 179.649L369.999 179.135L372.51 177.255C374.648 175.678 377.591 173.482 380.931 171.193C383.766 169.208 386.715 167.391 389.762 165.75C390.93 165.131 391.911 164.687 392.6 164.395L393.382 164.068C393.616 163.986 393.616 163.951 393.674 163.963Z" fill="white"/>
<path d="M449.376 171.566C449.303 171.526 449.236 171.474 449.178 171.414L448.652 170.959C448.001 170.409 447.319 169.898 446.608 169.429C444.237 167.917 441.721 166.645 439.098 165.633C436.483 164.597 433.812 163.708 431.097 162.97C430.046 162.678 429.205 162.467 428.609 162.327L427.944 162.152C427.862 162.135 427.784 162.108 427.71 162.07H427.955L428.633 162.199C429.228 162.316 430.081 162.502 431.132 162.771C433.872 163.463 436.565 164.333 439.191 165.376C441.83 166.388 444.349 167.689 446.702 169.254C447.681 169.917 448.579 170.693 449.376 171.566Z" fill="white"/>
<path d="M394.001 260.718C393.843 260.69 393.689 260.638 393.546 260.566C393.14 260.388 392.749 260.177 392.378 259.935C391.748 259.558 391.2 259.061 390.763 258.471C390.326 257.882 390.009 257.213 389.831 256.501C389.511 255.065 389.671 253.563 390.287 252.226C390.465 251.811 390.692 251.419 390.964 251.058C391.151 250.813 391.28 250.696 391.291 250.708C390.973 251.206 390.688 251.725 390.439 252.261C389.896 253.574 389.769 255.021 390.077 256.408C390.411 257.777 391.244 258.972 392.413 259.76C393.382 260.461 394.024 260.671 394.001 260.718Z" fill="white"/>
<path d="M390.287 248.07C390.536 248.534 390.72 249.029 390.836 249.542C391.019 250.033 391.129 250.549 391.163 251.072C390.898 250.619 390.708 250.126 390.602 249.612C390.411 249.12 390.304 248.598 390.287 248.07Z" fill="white"/>
<path d="M406.079 509.947L441.703 509.771L441.06 386.606L440.722 261.314L392.448 260.695L383.77 277.047C380.219 283.621 377.956 290.812 377.101 298.235C376.517 303.911 380.768 322.366 382.24 327.038L395.52 369.156L406.079 509.947Z" fill="#263238"/>
<path d="M451.175 261.468L490.327 368.189C492.646 375.065 493.416 382.369 492.583 389.577C491.749 396.786 489.331 403.721 485.503 409.886L440.044 498.654L414.488 466.674L452.518 387.25L418.997 332.88L424.638 261.632L440.43 261.375L451.175 261.468Z" fill="#263238"/>
<path d="M437.475 297.219C437.475 297.219 437.475 297.406 437.475 297.768C437.475 298.13 437.533 298.69 437.58 299.38C437.662 300.816 437.767 302.884 437.907 305.558C438.175 310.966 438.549 318.733 439.075 328.323C439.6 337.912 440.044 349.347 440.628 362.078C440.909 368.432 441.212 375.101 441.516 382.016C441.738 385.52 441.644 389.024 441.679 392.528C441.714 396.032 441.679 399.722 441.679 403.39C441.679 432.742 441.773 459.314 441.808 478.574C441.808 488.175 441.808 495.954 441.808 501.362C441.808 504.036 441.808 506.116 441.808 507.564C441.808 508.241 441.808 508.732 441.808 509.176C441.808 509.62 441.808 509.725 441.808 509.725C441.808 509.725 441.808 509.538 441.808 509.176V507.564C441.808 506.116 441.808 504.06 441.738 501.362C441.738 495.954 441.644 488.187 441.574 478.586C441.493 459.325 441.387 432.753 441.271 403.402C441.271 399.734 441.271 396.113 441.271 392.539C441.271 388.965 441.341 385.438 441.119 382.027C440.827 375.124 440.535 368.455 440.266 362.101C439.729 349.393 439.238 337.959 438.841 328.334C438.444 318.71 438.152 310.978 437.93 305.57C437.837 302.907 437.767 300.828 437.72 299.38C437.72 298.69 437.72 298.212 437.72 297.768C437.72 297.324 437.475 297.219 437.475 297.219Z" fill="#455A64"/>
<path d="M436.575 263.57C436.712 263.946 436.794 264.339 436.821 264.738C436.949 265.486 437.089 266.572 437.253 267.927C437.556 270.625 437.883 274.374 438.07 278.521C438.257 282.667 438.269 286.428 438.21 289.15C438.21 290.504 438.129 291.614 438.07 292.373C438.082 292.767 438.035 293.161 437.93 293.541C437.783 292.082 437.732 290.615 437.778 289.15C437.778 286.428 437.65 282.69 437.463 278.544C437.276 274.398 437.019 270.672 436.821 268.032C436.654 266.551 436.572 265.061 436.575 263.57Z" fill="#455A64"/>
<path d="M428.726 265.974C428.784 266.056 428.119 266.359 427.932 267.305C427.879 267.562 427.894 267.828 427.974 268.077C428.053 268.327 428.196 268.552 428.387 268.73C428.618 268.945 428.906 269.089 429.217 269.145C429.528 269.201 429.848 269.166 430.139 269.046C430.419 268.901 430.653 268.682 430.814 268.411C430.975 268.141 431.057 267.83 431.05 267.516C431.04 267.254 430.962 267 430.825 266.777C430.688 266.554 430.496 266.37 430.268 266.242C429.793 266.012 429.263 265.919 428.738 265.974C428.738 265.974 428.854 265.822 429.158 265.729C429.596 265.622 430.057 265.667 430.466 265.857C430.792 265.993 431.074 266.216 431.281 266.503C431.487 266.79 431.609 267.128 431.634 267.481C431.681 267.915 431.589 268.354 431.374 268.734C431.158 269.114 430.828 269.418 430.431 269.601C430.034 269.784 429.589 269.838 429.16 269.755C428.73 269.672 428.338 269.457 428.037 269.139C427.789 268.892 427.613 268.582 427.528 268.242C427.444 267.903 427.454 267.546 427.558 267.212C427.675 266.775 427.939 266.391 428.306 266.126C428.539 265.962 428.714 265.939 428.726 265.974Z" fill="#455A64"/>
<path d="M410.038 263.863C410.21 264.231 410.316 264.627 410.353 265.031C410.541 266.08 410.576 267.15 410.458 268.208C410.29 269.784 409.835 271.316 409.115 272.728C408.245 274.485 406.958 276.001 405.365 277.143C403.772 278.286 401.924 279.02 399.981 279.281C398.427 279.513 396.842 279.454 395.309 279.106C394.272 278.881 393.273 278.507 392.343 277.996C391.991 277.83 391.668 277.609 391.385 277.342C392.676 277.923 394.022 278.373 395.403 278.685C397.064 279.031 398.779 279.028 400.439 278.677C402.099 278.326 403.668 277.635 405.048 276.648C406.428 275.66 407.587 274.397 408.454 272.938C409.321 271.48 409.876 269.857 410.084 268.173C410.222 266.739 410.206 265.294 410.038 263.863Z" fill="#455A64"/>
<path d="M455.871 274.095C455.109 274.183 454.337 274.091 453.616 273.826C451.852 273.27 450.268 272.254 449.026 270.883C447.774 269.517 446.914 267.838 446.538 266.024C446.354 265.284 446.354 264.51 446.538 263.77C446.644 263.77 446.655 264.622 447.006 265.93C447.479 267.621 448.34 269.177 449.52 270.477C450.7 271.777 452.166 272.783 453.803 273.417C455.018 273.896 455.882 273.978 455.871 274.095Z" fill="#455A64"/>
<path d="M469.781 389.141C469.196 389.809 468.496 390.366 467.714 390.788C466.894 391.308 466 391.702 465.063 391.956C463.883 392.268 462.639 392.236 461.477 391.862C459.437 391.093 457.689 389.704 456.478 387.891C455.922 387.21 455.462 386.455 455.111 385.648C455.742 386.25 456.313 386.911 456.817 387.622C458.057 389.267 459.732 390.533 461.652 391.278C462.632 391.54 463.656 391.599 464.66 391.453C465.664 391.306 466.628 390.957 467.492 390.426C468.23 389.954 468.994 389.525 469.781 389.141Z" fill="#455A64"/>
<path d="M460.858 395.952C459.478 394.523 458.245 392.957 457.179 391.28C455.951 389.719 454.879 388.04 453.979 386.27C455.368 387.694 456.605 389.26 457.669 390.942C458.907 392.494 459.976 394.173 460.858 395.952Z" fill="#455A64"/>
<path d="M401.009 301.342C400.846 301.4 400.437 300.735 400.075 299.835C399.713 298.936 399.561 298.177 399.713 298.107C399.865 298.036 400.285 298.714 400.636 299.613C400.986 300.513 401.161 301.342 401.009 301.342Z" fill="#FAFAFA"/>
<path d="M423.622 304.589C423.447 304.589 423.318 304.017 423.318 303.304C423.318 302.592 423.447 302.008 423.622 302.008C423.797 302.008 423.926 302.592 423.926 303.304C423.926 304.017 423.786 304.589 423.622 304.589Z" fill="#FAFAFA"/>
<path d="M414.324 316.876C414.161 316.876 413.974 316.175 413.915 315.276C413.857 314.377 413.915 313.652 414.102 313.641C414.289 313.629 414.464 314.342 414.523 315.241C414.581 316.14 414.488 316.864 414.324 316.876Z" fill="#FAFAFA"/>
<path d="M397.342 325.869C397.201 325.974 396.723 325.541 396.092 325.098C395.461 324.654 394.924 324.315 394.924 324.152C394.924 323.988 395.695 324.081 396.407 324.595C397.12 325.109 397.482 325.869 397.342 325.869Z" fill="#FAFAFA"/>
<path d="M427.278 337.33C427.137 337.236 427.278 336.734 427.675 336.162C428.072 335.589 428.434 335.262 428.574 335.356C428.714 335.449 428.574 335.963 428.177 336.524C427.78 337.084 427.418 337.423 427.278 337.33Z" fill="#FAFAFA"/>
<path d="M408.8 340.564C408.636 340.564 408.496 339.594 408.496 338.415C408.496 337.235 408.636 336.254 408.8 336.254C408.963 336.254 409.103 337.223 409.103 338.415C409.103 339.606 408.928 340.564 408.8 340.564Z" fill="#FAFAFA"/>
<path d="M402.749 353.667C402.656 353.796 402.049 353.527 401.395 353.048C400.74 352.569 400.227 352.079 400.378 351.938C400.53 351.798 401.091 352.079 401.745 352.558C402.399 353.036 402.855 353.527 402.749 353.667Z" fill="#FAFAFA"/>
<path d="M421.461 358.224C421.531 358.376 421.157 358.691 420.62 358.936C420.083 359.182 419.592 359.24 419.522 359.088C419.452 358.936 419.837 358.621 420.375 358.376C420.912 358.131 421.402 358.072 421.461 358.224Z" fill="#FAFAFA"/>
<path d="M408.8 379.597C408.66 379.667 408.052 378.768 407.457 377.576C406.861 376.385 406.499 375.357 406.651 375.24C406.803 375.123 407.41 376.07 407.994 377.261C408.578 378.452 408.905 379.468 408.8 379.597Z" fill="#FAFAFA"/>
<path d="M429.438 377.613C429.286 377.532 429.555 376.749 430.022 375.85C430.489 374.95 431.015 374.296 431.19 374.378C431.365 374.46 431.073 375.242 430.594 376.142C430.115 377.041 429.578 377.695 429.438 377.613Z" fill="#FAFAFA"/>
<path d="M420.386 395.707C420.211 395.707 420.234 394.761 420.047 393.663C419.86 392.565 419.58 391.689 419.744 391.607C419.907 391.525 420.468 392.355 420.655 393.569C420.842 394.784 420.55 395.742 420.386 395.707Z" fill="#FAFAFA"/>
<path d="M410.692 406.042C410.576 406.159 409.992 405.715 409.396 405.061C408.8 404.407 408.415 403.788 408.543 403.671C408.672 403.554 409.244 403.998 409.84 404.652C410.435 405.306 410.821 405.925 410.692 406.042Z" fill="#FAFAFA"/>
<path d="M434.215 409.968C434.099 409.851 434.531 409.221 435.185 408.555C435.839 407.889 436.446 407.457 436.575 407.574C436.703 407.691 436.259 408.333 435.617 408.987C434.975 409.641 434.344 410.085 434.215 409.968Z" fill="#FAFAFA"/>
<path d="M420.69 425.441C420.527 425.441 420.527 424.518 420.69 423.443C420.854 422.369 421.111 421.528 421.286 421.551C421.461 421.575 421.449 422.462 421.286 423.537C421.122 424.611 420.854 425.464 420.69 425.441Z" fill="#FAFAFA"/>
<path d="M411.592 432.955C411.44 433.036 410.926 432.429 410.424 431.6C409.921 430.77 409.664 430.035 409.805 429.953C409.945 429.871 410.459 430.467 410.973 431.296C411.486 432.125 411.732 432.861 411.592 432.955Z" fill="#FAFAFA"/>
<path d="M433.515 442.424C433.62 442.564 433.024 443.16 432.183 443.756C431.342 444.351 430.606 444.725 430.501 444.585C430.396 444.445 431.003 443.849 431.833 443.254C432.662 442.658 433.421 442.296 433.515 442.424Z" fill="#FAFAFA"/>
<path d="M415.247 454.724C415.083 454.666 415.247 453.732 415.399 452.564C415.55 451.396 415.457 450.438 415.632 450.414C415.807 450.391 416.111 451.372 415.994 452.622C415.877 453.872 415.399 454.794 415.247 454.724Z" fill="#FAFAFA"/>
<path d="M422.547 472.385C422.407 472.49 421.916 472.093 421.437 471.497C420.958 470.901 420.69 470.329 420.818 470.224C420.947 470.119 421.437 470.516 421.916 471.112C422.395 471.707 422.675 472.28 422.547 472.385Z" fill="#FAFAFA"/>
<path d="M414.569 484.227C414.429 484.321 413.787 483.632 413.133 482.674C412.479 481.716 412.07 480.875 412.198 480.782C412.327 480.688 412.981 481.378 413.635 482.335C414.289 483.293 414.71 484.134 414.569 484.227Z" fill="#FAFAFA"/>
<path d="M436.54 469.36C436.388 469.302 436.4 468.869 436.54 468.402C436.68 467.935 436.996 467.585 437.159 467.643C437.323 467.701 437.299 468.134 437.159 468.613C437.019 469.091 436.704 469.43 436.54 469.36Z" fill="#FAFAFA"/>
<path d="M426.846 497.565C426.694 497.484 426.986 496.654 427.219 495.615C427.453 494.575 427.535 493.699 427.71 493.688C427.885 493.676 428.06 494.622 427.815 495.743C427.57 496.865 426.986 497.659 426.846 497.565Z" fill="#FAFAFA"/>
<path d="M433.153 317.066C433.001 317.136 432.627 316.668 432.324 316.014C432.02 315.36 431.892 314.776 432.043 314.706C432.195 314.636 432.569 315.103 432.873 315.757C433.176 316.411 433.328 316.995 433.153 317.066Z" fill="#FAFAFA"/>
<path d="M416.976 280.69C417.069 280.831 416.252 281.485 415.376 282.419C414.5 283.353 413.904 284.218 413.752 284.136C413.6 284.054 413.998 282.968 414.92 282.01C415.843 281.052 416.859 280.539 416.976 280.69Z" fill="#FAFAFA"/>
<path d="M431.377 280.319C431.202 280.319 430.933 279.653 430.525 278.859C430.116 278.065 429.742 277.411 429.87 277.294C429.999 277.177 430.63 277.691 431.038 278.579C431.447 279.466 431.529 280.225 431.377 280.319Z" fill="#FAFAFA"/>
<path d="M386.409 292.127C386.257 292.057 386.409 291.286 386.771 290.398C387.133 289.511 387.53 288.822 387.694 288.892C387.857 288.962 387.694 289.721 387.332 290.62C386.97 291.52 386.608 292.185 386.409 292.127Z" fill="#FAFAFA"/>
<path d="M387.87 309.764C387.753 309.892 387.087 309.519 386.375 308.923C385.662 308.327 385.207 307.755 385.277 307.615C385.347 307.475 386.059 307.86 386.772 308.456C387.484 309.051 387.975 309.635 387.87 309.764Z" fill="#FAFAFA"/>
<path d="M417.373 266.688C417.222 266.688 416.895 266.314 416.661 265.719C416.427 265.123 416.357 264.551 416.509 264.551C416.661 264.551 416.988 264.925 417.222 265.52C417.455 266.116 417.525 266.63 417.373 266.688Z" fill="#FAFAFA"/>
<path d="M445.627 275.308C445.464 275.308 445.475 274.572 445.627 273.743C445.779 272.913 446.083 272.259 446.246 272.294C446.41 272.329 446.398 273.042 446.246 273.871C446.094 274.7 445.791 275.343 445.627 275.308Z" fill="#FAFAFA"/>
<path d="M452.261 288.659C452.109 288.589 452.32 287.725 452.74 286.708C453.161 285.692 453.616 284.933 453.768 284.991C453.92 285.05 453.768 285.926 453.301 286.942C452.834 287.958 452.425 288.717 452.261 288.659Z" fill="#FAFAFA"/>
<path d="M447.531 299.429C447.379 299.499 446.818 298.693 446.281 297.63C445.744 296.567 445.44 295.621 445.592 295.551C445.744 295.481 446.293 296.287 446.83 297.35C447.367 298.413 447.683 299.347 447.531 299.429Z" fill="#FAFAFA"/>
<path d="M457.645 310.198C457.494 310.139 457.645 309.462 457.902 308.691C458.159 307.92 458.568 307.336 458.732 307.395C458.895 307.453 458.732 308.131 458.475 308.901C458.218 309.672 457.856 310.256 457.645 310.198Z" fill="#FAFAFA"/>
<path d="M448.605 320.741C448.465 320.835 448.103 320.519 447.811 320.052C447.519 319.585 447.379 319.118 447.531 319.024C447.683 318.931 448.021 319.246 448.325 319.725C448.629 320.204 448.745 320.659 448.605 320.741Z" fill="#FAFAFA"/>
<path d="M450.533 342.513C450.416 342.618 449.68 342.045 448.909 341.204C448.138 340.364 447.613 339.604 447.741 339.488C447.869 339.371 448.594 339.955 449.365 340.796C450.135 341.637 450.661 342.396 450.533 342.513Z" fill="#FAFAFA"/>
<path d="M462.387 330.006C462.259 330.111 461.616 329.527 460.962 328.686C460.308 327.845 459.888 327.098 460.016 326.992C460.145 326.887 460.787 327.483 461.441 328.312C462.095 329.142 462.527 329.913 462.387 330.006Z" fill="#FAFAFA"/>
<path d="M468.893 347.258C468.741 347.188 469.01 346.312 469.489 345.307C469.968 344.303 470.47 343.532 470.657 343.602C470.844 343.672 470.552 344.56 470.073 345.564C469.594 346.569 469.045 347.34 468.893 347.258Z" fill="#FAFAFA"/>
<path d="M455.064 361.46C454.912 361.542 454.375 360.9 453.627 360.211C452.88 359.522 452.191 359.043 452.261 358.868C452.331 358.692 453.219 359.008 454.036 359.767C454.854 360.526 455.204 361.379 455.064 361.46Z" fill="#FAFAFA"/>
<path d="M455.929 376.093C455.929 376.256 455.345 376.396 454.632 376.396C453.92 376.396 453.348 376.256 453.348 376.093C453.348 375.929 453.92 375.789 454.632 375.789C455.345 375.789 455.929 375.929 455.929 376.093Z" fill="#FAFAFA"/>
<path d="M470.143 372.008C469.992 371.926 470.295 371.191 470.517 370.28C470.739 369.369 470.833 368.574 471.008 368.563C471.183 368.551 471.37 369.404 471.113 370.42C470.856 371.436 470.272 372.102 470.143 372.008Z" fill="#FAFAFA"/>
<path d="M484.264 376.923C484.112 376.981 483.68 376.152 483.306 375.089C482.932 374.026 482.757 373.115 482.909 373.068C483.061 373.022 483.505 373.828 483.879 374.89C484.252 375.953 484.427 376.864 484.264 376.923Z" fill="#FAFAFA"/>
<path d="M482.01 397.015C481.869 396.934 482.232 395.952 482.816 394.819C483.4 393.686 483.984 392.834 484.159 392.916C484.334 392.997 483.949 393.978 483.353 395.1C482.757 396.221 482.161 397.12 482.01 397.015Z" fill="#FAFAFA"/>
<path d="M469.127 408.8C468.975 408.858 468.496 408.052 468.052 406.99C467.608 405.927 467.386 405.016 467.55 404.946C467.713 404.876 468.181 405.693 468.613 406.756C469.045 407.819 469.278 408.8 469.127 408.8Z" fill="#FAFAFA"/>
<path d="M454.854 413.366C454.854 413.53 454.364 413.67 453.768 413.67C453.172 413.67 452.693 413.53 452.693 413.366C452.693 413.203 453.184 413.062 453.768 413.062C454.352 413.062 454.854 413.203 454.854 413.366Z" fill="#FAFAFA"/>
<path d="M463.03 432.159C462.878 432.159 462.551 431.516 462.306 430.629C462.06 429.741 462.014 428.97 462.177 428.935C462.341 428.9 462.656 429.577 462.901 430.465C463.147 431.353 463.193 432.065 463.03 432.159Z" fill="#FAFAFA"/>
<path d="M452.694 425.851C452.554 425.769 452.694 425.22 453.079 424.625C453.465 424.029 453.85 423.62 453.99 423.702C454.13 423.784 453.99 424.344 453.605 424.94C453.219 425.536 452.846 425.944 452.694 425.851Z" fill="#FAFAFA"/>
<path d="M452.483 446.535C452.32 446.535 452.086 445.753 451.969 444.736C451.852 443.72 451.887 442.891 452.051 442.868C452.214 442.844 452.448 443.65 452.565 444.666C452.682 445.683 452.647 446.512 452.483 446.535Z" fill="#FAFAFA"/>
</svg>
